<svg width="150" height="150" viewBox="0 0 150 150" fill="none" xmlns="http://www.w3.org/2000/svg">
<g clip-path="url(#clip0)">
<path opacity="0.37" d="M149.84 51.8845C149.929 50.9894 149.985 50.0755 149.996 49.1768C150.184 35.7742 143.23 23.3459 132.884 15.9932C124.603 10.1246 114.58 8.37238 104.798 9.19564C95.0158 10.0189 85.7341 13.6858 75.8209 12.7417C61.8559 11.386 47.1032 8.20999 32.7869 13.9313C16.5121 20.4192 3.3773 36.741 0.411149 55.0944C-2.49469 72.9834 10.5585 86.6503 19.2689 100.147C34.9157 124.441 60.9192 149.358 90.5311 147.832C125.976 146.02 140.246 104.645 144.993 73.0363C146.075 65.8308 149.105 59.1201 149.84 51.8845Z" fill="#0A5086"/>
<g opacity="0.55">
<path opacity="0.55" d="M26.4151 76.9977C28.7106 79.2635 31.51 81.2575 34.6642 82.2129L38.7551 83.0135L38.7303 79.5694C37.7084 75.7061 36.8072 72.2243 35.5548 69.0407C35.4786 70.3258 35.2885 71.6003 34.9871 72.8474C34.9871 72.8474 35.1468 70.3209 35.0545 67.8436C33.8512 65.001 32.1838 62.408 30.1299 60.185C30.3392 61.8579 30.6514 64.8866 30.4208 66.8504C30.4208 66.8504 29.9915 61.8882 29.0938 59.1276C27.7669 57.8474 28.072 58.0211 26.2554 56.8277C26.5463 58.5309 26.8692 60.895 26.7805 62.5453C26.4637 60.4455 26.0265 58.3684 25.4713 56.3255C24.2011 55.5324 20.9582 53.3534 19.4219 52.5906C19.4219 52.5906 17.9495 54.8036 18.7549 60.7515C19.9186 61.7786 21.1569 63.327 23.2751 64.5921C23.2751 64.5921 22.3277 64.2144 18.9074 61.7711C19.3119 64.1465 19.4538 66.9826 20.6815 69.358C21.7068 69.7847 22.7606 69.8225 25.8864 71.1442C25.8864 71.1442 22.7783 70.1132 21.4549 70.7401C22.5955 72.5892 23.9026 74.3157 25.3578 75.895L28.8845 77.5037L26.4151 76.9977Z" fill="#385167"/>
</g>
<g opacity="0.55">
<path opacity="0.55" d="M32.3793 88.4518C35.09 88.8068 38.0561 88.7199 40.7527 87.6965L44.0488 86.05L42.3741 83.6142C39.7947 81.4163 37.4885 79.4261 35.0687 77.84C35.6325 78.7958 36.1078 79.8076 36.4879 80.8611C36.4879 80.8611 35.3916 78.9729 34.1391 77.2584C31.9186 75.8902 29.4889 74.9493 26.9615 74.479C27.9123 75.5553 29.587 77.5454 30.3605 79.0673C30.3605 79.0673 27.6817 75.7667 25.7161 74.2901C24.1585 74.0975 24.4601 74.056 22.5938 74.192C23.6192 75.2494 24.9817 76.7562 25.709 77.9684C24.4802 76.6453 23.1769 75.4031 21.8062 74.2486C20.5218 74.3732 17.1689 74.5809 15.7071 74.8755C15.7071 74.8755 15.7071 77.2471 19.1416 81.0462C20.465 81.1482 22.09 81.5787 24.2046 81.3294C24.2046 81.3294 23.3531 81.5787 19.7412 81.7071C21.1604 83.1799 22.6258 85.1059 24.634 86.1519C25.5671 85.8989 26.337 85.3513 29.1967 84.5961C29.1967 84.5961 26.486 85.5515 25.8474 86.7146C27.5448 87.4129 29.3024 87.9328 31.0949 88.2668L34.3804 87.5115L32.3793 88.4518Z" fill="#385167"/>
</g>
<path d="M111.071 3.95019V26.2727C111.071 26.5976 110.95 26.9092 110.735 27.1392C110.519 27.3693 110.227 27.499 109.921 27.5L69.5981 27.4774C69.2935 27.4764 69.0017 27.3472 68.7863 27.1179C68.5709 26.8887 68.4495 26.578 68.4486 26.2538V3.92754C68.4486 3.60268 68.5696 3.29107 68.7851 3.06101C69.0005 2.83094 69.2929 2.70119 69.5981 2.7002L109.904 2.72285C110.056 2.72085 110.208 2.75112 110.349 2.81191C110.491 2.87269 110.62 2.96278 110.728 3.07695C110.837 3.19112 110.923 3.3271 110.982 3.477C111.041 3.6269 111.071 3.78774 111.071 3.95019V3.95019Z" fill="#385167"/>
<path d="M105.724 4.55434V25.6684C105.723 25.7062 105.709 25.7421 105.684 25.7688C105.659 25.7955 105.625 25.8109 105.589 25.8119L71.5105 25.7892C71.4744 25.7892 71.4397 25.7743 71.4139 25.7474C71.388 25.7206 71.3731 25.6841 71.3721 25.6457V4.53169C71.3739 4.49359 71.3892 4.45763 71.4148 4.43101C71.4405 4.40439 71.4747 4.38909 71.5105 4.38818L105.589 4.41084C105.607 4.40975 105.625 4.41271 105.642 4.41953C105.659 4.42636 105.674 4.43689 105.687 4.45044C105.7 4.46399 105.71 4.48025 105.716 4.49816C105.722 4.51607 105.725 4.53521 105.724 4.55434V4.55434Z" fill="white"/>
<path d="M70.2722 11.8204V18.9956C70.2722 19.1028 70.2322 19.2055 70.1611 19.2813C70.0899 19.3571 69.9933 19.3997 69.8926 19.3997V19.3997C69.8426 19.4002 69.793 19.3901 69.7468 19.3699C69.7005 19.3498 69.6584 19.3201 69.6231 19.2824C69.5878 19.2448 69.5598 19.2001 69.5409 19.1508C69.522 19.1016 69.5125 19.0488 69.513 18.9956V11.8204C69.5125 11.7672 69.522 11.7144 69.5409 11.6651C69.5598 11.6159 69.5878 11.5711 69.6231 11.5335C69.6584 11.4959 69.7005 11.4661 69.7468 11.446C69.793 11.4259 69.8426 11.4158 69.8926 11.4163V11.4163C69.9434 11.4123 69.9944 11.4201 70.0422 11.439C70.0899 11.4579 70.1332 11.4876 70.1693 11.5259C70.2053 11.5642 70.2331 11.6104 70.2509 11.6612C70.2687 11.712 70.2759 11.7663 70.2722 11.8204V11.8204Z" fill="#CDEAFB"/>
<path d="M70.2829 10.642C70.2829 10.7492 70.2429 10.8519 70.1717 10.9277C70.1005 11.0035 70.0039 11.0461 69.9033 11.0461C69.8533 11.0466 69.8037 11.0365 69.7574 11.0163C69.7111 10.9962 69.6691 10.9665 69.6338 10.9288C69.5984 10.8912 69.5705 10.8465 69.5515 10.7972C69.5326 10.748 69.5231 10.6952 69.5236 10.642V10.642C69.5232 10.5886 69.5326 10.5357 69.5515 10.4862C69.5704 10.4367 69.5982 10.3917 69.6335 10.3538C69.6688 10.3159 69.7109 10.2858 69.7572 10.2652C69.8034 10.2447 69.8531 10.2341 69.9033 10.2341V10.2341C70.004 10.2361 70.1 10.2798 70.1709 10.356C70.2418 10.4322 70.282 10.5348 70.2829 10.642V10.642Z" fill="#CDEAFB"/>
<path d="M108.357 17.2999C109.425 17.2999 110.29 16.3784 110.29 15.2418C110.29 14.1051 109.425 13.1836 108.357 13.1836C107.289 13.1836 106.423 14.1051 106.423 15.2418C106.423 16.3784 107.289 17.2999 108.357 17.2999Z" fill="#CDEAFB"/>
<path d="M33.4082 98.9425H117.014V34.7053C117.014 34.4858 116.973 34.2684 116.894 34.0657C116.815 33.8629 116.699 33.6787 116.553 33.5237C116.407 33.3686 116.234 33.2458 116.043 33.1621C115.853 33.0785 115.648 33.0356 115.442 33.0361H34.9729C34.5576 33.0371 34.1596 33.2134 33.8663 33.5264C33.573 33.8393 33.4082 34.2633 33.4082 34.7053V98.9425Z" fill="#385167"/>
<path d="M113.902 36.2576H36.3567V86.9751H113.902V36.2576Z" fill="#34312C" fill-opacity="0.26"/>
<path d="M117.014 89.4336H75.2182H33.4366L24.2792 125.831H75.4985H126.154L117.014 89.4336Z" fill="#385167"/>
<path d="M36.6015 95.8194H41.7426C41.9554 95.8194 42.1222 95.9969 42.0725 96.197L41.5687 98.5649C41.5474 98.6392 41.5033 98.7037 41.4435 98.7482C41.3837 98.7927 41.3116 98.8146 41.2387 98.8104H36.0125C35.9659 98.8151 35.9188 98.8084 35.875 98.7907C35.8312 98.773 35.7918 98.7448 35.7599 98.7082C35.728 98.6717 35.7044 98.6279 35.691 98.5801C35.6776 98.5323 35.6747 98.4819 35.6825 98.4327L36.2609 96.0573C36.2849 95.9832 36.3314 95.9196 36.3931 95.8766C36.4547 95.8335 36.528 95.8134 36.6015 95.8194V95.8194Z" fill="white"/>
<path d="M44.0807 95.8196H47.9622L47.4513 98.8294H43.4846L44.0807 95.8196Z" fill="white"/>
<path d="M49.8959 95.8196H53.781L53.3836 98.8294H49.4169L49.8959 95.8196Z" fill="white"/>
<path d="M55.7324 95.8196H59.614L59.3195 98.8294H55.3492L55.7324 95.8196Z" fill="white"/>
<path d="M61.5477 95.8196H65.4327L65.2518 98.8294H61.2851L61.5477 95.8196Z" fill="white"/>
<path d="M67.3664 95.8196H71.2515L71.1841 98.8294H67.2174L67.3664 95.8196Z" fill="white"/>
<path d="M113.973 95.8196H108.14L108.768 98.8294H114.701L113.973 95.8196Z" fill="white"/>
<path d="M106.207 95.8196H102.322L102.836 98.8294H106.803L106.207 95.8196Z" fill="white"/>
<path d="M100.388 95.8196H96.5064L96.9002 98.8294H100.867L100.388 95.8196Z" fill="white"/>
<path d="M94.555 95.8196H90.6699L90.9679 98.8294H94.9346L94.555 95.8196Z" fill="white"/>
<path d="M88.7362 95.8196H84.8546L85.0356 98.8294H89.0023L88.7362 95.8196Z" fill="white"/>
<path d="M82.9174 95.8196H79.0359L79.0998 98.8294H83.0665L82.9174 95.8196Z" fill="white"/>
<path d="M73.1994 95.8196H77.0845L77.1341 98.8294H73.1994V95.8196Z" fill="white"/>
<path d="M34.8913 101.061H42.9879L42.5267 104.158H34.2633L34.8913 101.061Z" fill="white"/>
<path d="M115.229 101.061H105.213L105.777 104.158H116.006L115.229 101.061Z" fill="white"/>
<path d="M103.198 101.061H99.1993L99.6464 104.158H103.744L103.198 101.061Z" fill="white"/>
<path d="M97.1805 101.061H93.1819L93.5118 104.158H97.6134L97.1805 101.061Z" fill="white"/>
<path d="M91.1666 101.061H87.168L87.3986 104.158H91.4788L91.1666 101.061Z" fill="white"/>
<path d="M85.1492 101.061H81.1505L81.2676 104.158H85.3478L85.1492 101.061Z" fill="white"/>
<path d="M33.6672 106.567H41.9625L41.3523 109.649H32.908L33.6672 106.567Z" fill="white"/>
<path d="M44.031 106.567H48.1787L47.6997 109.649H43.4669L44.031 106.567Z" fill="white"/>
<path d="M50.2614 106.567H54.409H81.3492L81.4627 109.649H49.7966L50.2614 106.567Z" fill="white"/>
<path d="M83.4319 106.567H87.5795L87.8102 109.649H83.5809L83.4319 106.567Z" fill="white"/>
<path d="M89.6445 106.567H93.7957L94.1398 109.649H89.9106L89.6445 106.567Z" fill="white"/>
<path d="M95.8784 106.567H100.026L100.473 109.649H96.258L95.8784 106.567Z" fill="white"/>
<path d="M102.091 106.567H106.239L106.803 109.649H102.588L102.091 106.567Z" fill="white"/>
<path d="M108.304 106.567H116.602L117.362 109.649H108.917L108.304 106.567Z" fill="white"/>
<path d="M79.1494 101.061H75.1685V104.158H79.2168L79.1494 101.061Z" fill="white"/>
<path d="M73.1355 101.061H69.1192L69.0021 104.158H73.1L73.1355 101.061Z" fill="white"/>
<path d="M67.1181 101.061H63.1017L62.8711 104.158H66.969L67.1181 101.061Z" fill="white"/>
<path d="M61.1042 101.061H57.0878L56.7401 104.158H60.8381L61.1042 101.061Z" fill="white"/>
<path d="M55.0867 101.061H51.0703L50.6091 104.158H54.707L55.0867 101.061Z" fill="white"/>
<path d="M49.0692 101.061H45.0529L44.4923 104.158H48.5761L49.0692 101.061Z" fill="white"/>
<path d="M36.7753 93.9389L37.4352 91.2651H39.3193L38.709 93.9389H36.7753Z" fill="white"/>
<path d="M41.2032 91.2651H44.9713L44.4603 93.9389H40.6072L41.2032 91.2651Z" fill="white"/>
<path d="M46.873 91.2651H50.641L50.2117 93.9389H46.3763L46.873 91.2651Z" fill="white"/>
<path d="M52.525 91.2651H56.293L55.9631 93.9389H52.1276L52.525 91.2651Z" fill="white"/>
<path d="M58.177 91.2651H61.945L61.7144 93.9389H57.879L58.177 91.2651Z" fill="white"/>
<path d="M63.829 91.2651H67.597L67.4658 93.9389H63.6303L63.829 91.2651Z" fill="white"/>
<path d="M69.481 91.2651H73.249L73.2171 93.9389H69.3817L69.481 91.2651Z" fill="white"/>
<path d="M75.1331 91.2651H78.9011L78.9685 93.9389H75.1331V91.2651Z" fill="white"/>
<path d="M80.7851 91.2651H84.5566L84.7198 93.9389H80.8844L80.7851 91.2651Z" fill="white"/>
<path d="M86.4406 91.2651H90.2228L90.4712 93.9389H86.6393L86.4406 91.2651Z" fill="white"/>
<path d="M92.1068 91.2651H95.8784L96.2403 93.9389H92.4049L92.1068 91.2651Z" fill="white"/>
<path d="M97.7624 91.2651H101.53L101.992 93.9389H98.1562L97.7624 91.2651Z" fill="white"/>
<path d="M103.414 91.2651H107.182L107.743 93.9389H103.908L103.414 91.2651Z" fill="white"/>
<path d="M109.066 91.2651H112.834L113.494 93.9389H109.659L109.066 91.2651Z" fill="white"/>
<path d="M123.493 128.663H26.9402C26.5906 128.664 26.2444 128.591 25.9213 128.449C25.5983 128.306 25.3047 128.098 25.0575 127.835C24.8103 127.572 24.6143 127.259 24.4808 126.915C24.3472 126.571 24.2787 126.203 24.2792 125.831H126.154C126.154 126.203 126.086 126.571 125.952 126.915C125.819 127.259 125.623 127.572 125.375 127.835C125.128 128.098 124.835 128.306 124.512 128.449C124.189 128.591 123.842 128.664 123.493 128.663V128.663Z" fill="#8FC7F9"/>
<path d="M87.0651 114.048C87.0154 113.741 86.8662 113.461 86.6433 113.258C86.4203 113.056 86.1378 112.942 85.8446 112.938H64.6061C64.3115 112.938 64.0266 113.05 63.8024 113.254C63.5781 113.457 63.4291 113.739 63.382 114.048L62.0586 122.579C62.0288 122.769 62.0381 122.963 62.0858 123.149C62.1334 123.335 62.2184 123.507 62.3348 123.654C62.4512 123.801 62.5962 123.92 62.7599 124.002C62.9235 124.083 63.1019 124.126 63.2826 124.128H87.1502C87.3315 124.128 87.5107 124.087 87.6751 124.006C87.8395 123.925 87.9852 123.806 88.1017 123.658C88.2182 123.51 88.3027 123.337 88.3492 123.151C88.3957 122.964 88.403 122.769 88.3707 122.579L87.0651 114.048Z" fill="#8FC7F9"/>
<path d="M50.2259 40.5667H41.5829V41.5183H50.2259V40.5667Z" fill="#F7F7F7"/>
<path d="M58.8866 47.6548H52.6563V48.6064H58.8866V47.6548Z" fill="#F7F7F7"/>
<path d="M63.9958 47.6548H59.8623V48.6064H63.9958V47.6548Z" fill="#F7F7F7"/>
<path d="M45.8157 65.491H41.6822V66.4426H45.8157V65.491Z" fill="#F7F7F7"/>
<path d="M74.8208 47.6548H64.8225V48.6064H74.8208V47.6548Z" fill="#F7F7F7"/>
<path d="M48.1113 61.9224H41.6822V62.874H48.1113V61.9224Z" fill="#F7F7F7"/>
<path d="M54.558 69.0293H50.641V69.981H54.558V69.0293Z" fill="#F7F7F7"/>
<path d="M49.4489 69.0293H41.6822V69.981H49.4489V69.0293Z" fill="#F7F7F7"/>
<path d="M45.9612 72.583H41.6822V73.5347H45.9612V72.583Z" fill="#F7F7F7"/>
<path d="M58.0458 40.5667H51.9148V41.5183H58.0458V40.5667Z" fill="#F7F7F7"/>
<path d="M58.0458 51.2085H51.9148V52.1601H58.0458V51.2085Z" fill="#F7F7F7"/>
<path d="M51.4677 54.7432H48.8386V55.6948H51.4677V54.7432Z" fill="#F7F7F7"/>
<path d="M52.1099 58.3496H46.2273V59.3013H52.1099V58.3496Z" fill="#F7F7F7"/>
<path d="M61.1361 58.3496H53.004V59.3013H61.1361V58.3496Z" fill="#F7F7F7"/>
<path d="M47.8132 54.7771H41.6822V55.7288H47.8132V54.7771Z" fill="#F7F7F7"/>
<path d="M45.319 58.3496H41.6822V59.3013H45.319V58.3496Z" fill="#F7F7F7"/>
<path d="M56.144 54.7771H52.706V55.7288H56.144V54.7771Z" fill="#F7F7F7"/>
<path d="M45.2374 76.1177H41.7993V77.0693H45.2374V76.1177Z" fill="#F7F7F7"/>
<path d="M47.7955 47.6548H41.6645V48.6064H47.7955V47.6548Z" fill="#F7F7F7"/>
<path d="M53.2169 65.491H47.0859V66.4426H53.2169V65.491Z" fill="#F7F7F7"/>
<path d="M53.302 72.583H47.171V73.5347H53.302V72.583Z" fill="#F7F7F7"/>
<path d="M64.1909 72.583H58.0599V73.5347H64.1909V72.583Z" fill="#F7F7F7"/>
<path d="M50.4068 51.2085H41.6645V52.1601H50.4068V51.2085Z" fill="#F7F7F7"/>
<path d="M88.7681 40.5667H82.6371V41.5183H88.7681V40.5667Z" fill="#F7F7F7"/>
<path d="M66.9193 76.1177H60.7884V77.0693H66.9193V76.1177Z" fill="#F7F7F7"/>
<path d="M94.7678 40.5667H90.6699V41.5183H94.7678V40.5667Z" fill="#F7F7F7"/>
<path d="M108.669 44.1201H104.571V45.0718H108.669V44.1201Z" fill="#F7F7F7"/>
<path d="M67.5154 40.5667H59.6991V41.5183H67.5154V40.5667Z" fill="#F7F7F7"/>
<path d="M97.9575 44.1201H90.1412V45.0718H97.9575V44.1201Z" fill="#F7F7F7"/>
<path d="M88.3708 47.6548H80.5544V48.6064H88.3708V47.6548Z" fill="#F7F7F7"/>
<path d="M78.2056 51.2085H70.3893V52.1601H78.2056V51.2085Z" fill="#F7F7F7"/>
<path d="M94.8991 47.6548H89.3465V48.6064H94.8991V47.6548Z" fill="#F7F7F7"/>
<path d="M81.1008 40.5667H73.2845V41.5183H81.1008V40.5667Z" fill="#F7F7F7"/>
<path d="M68.9524 51.2085H64.3754V52.1601H68.9524V51.2085Z" fill="#F7F7F7"/>
<path d="M65.3653 65.5437H60.7884V66.4954H65.3653V65.5437Z" fill="#F7F7F7"/>
<path d="M71.8121 40.5667H68.9524V41.5183H71.8121V40.5667Z" fill="#F7F7F7"/>
<path d="M62.5588 51.2085H59.6991V52.1601H62.5588V51.2085Z" fill="#F7F7F7"/>
<path d="M102.701 44.1201H99.8415V45.0718H102.701V44.1201Z" fill="#F7F7F7"/>
<path d="M46.0605 44.1201H41.5829V45.0718H46.0605V44.1201Z" fill="#F7F7F7"/>
<path d="M57.07 61.9373H53.5327V62.8889H57.07V61.9373Z" fill="#F7F7F7"/>
<path d="M48.608 44.1201H47.171V45.0718H48.608V44.1201Z" fill="#F7F7F7"/>
<path d="M88.7717 44.1201H76.8219V45.0718H88.7717V44.1201Z" fill="#F7F7F7"/>
<path d="M77.3151 72.583H65.3653V73.5347H77.3151V72.583Z" fill="#F7F7F7"/>
<path d="M51.1377 44.1201H49.6653V45.0718H51.1377V44.1201Z" fill="#F7F7F7"/>
<path d="M75.7114 44.1201H71.8121V45.0718H75.7114V44.1201Z" fill="#F7F7F7"/>
<path d="M79.6284 47.6548H75.7291V48.6064H79.6284V47.6548Z" fill="#F7F7F7"/>
<path d="M59.5324 76.1177H55.6331V77.0693H59.5324V76.1177Z" fill="#F7F7F7"/>
<path d="M70.7867 44.1201H62.4737V45.0718H70.7867V44.1201Z" fill="#F7F7F7"/>
<path d="M59.5821 65.5437H54.7213V66.4954H59.5821V65.5437Z" fill="#F7F7F7"/>
<path d="M56.8572 72.583H54.4268V73.5347H56.8572V72.583Z" fill="#F7F7F7"/>
<path d="M61.2851 44.1201H58.4254V45.0718H61.2851V44.1201Z" fill="#F7F7F7"/>
<path d="M51.6664 47.6548H48.8067V48.6064H51.6664V47.6548Z" fill="#F7F7F7"/>
<path d="M52.227 61.9373H49.3673V62.8889H52.227V61.9373Z" fill="#F7F7F7"/>
<path d="M57.3503 44.1201H52.3583V45.0718H57.3503V44.1201Z" fill="#F7F7F7"/>
<path d="M132.398 29.3505C130.482 29.3513 128.609 28.7473 127.016 27.6149C125.423 26.4825 124.181 24.8726 123.447 22.9888C122.713 21.105 122.521 19.032 122.894 17.0319C123.268 15.0317 124.19 13.1944 125.544 11.7522C126.899 10.31 128.625 9.32769 130.504 8.92958C132.383 8.53147 134.33 8.73542 136.101 9.51562C137.871 10.2958 139.384 11.6172 140.448 13.3127C141.513 15.0082 142.081 17.0017 142.081 19.0409C142.077 21.7733 141.056 24.3927 139.241 26.3252C137.426 28.2576 134.965 29.3455 132.398 29.3505V29.3505Z" fill="#08779D"/>
<path fill-rule="evenodd" clip-rule="evenodd" d="M130.873 19.0898V25.0641C130.873 25.1052 130.888 25.1446 130.915 25.1736C130.942 25.2027 130.979 25.219 131.018 25.219H133.108C133.146 25.219 133.183 25.2027 133.211 25.1736C133.238 25.1446 133.253 25.1052 133.253 25.0641V18.9954H134.765C134.802 18.9955 134.837 18.9808 134.864 18.9541C134.891 18.9275 134.908 18.891 134.91 18.8519L135.056 17.0203C135.057 16.9991 135.054 16.9777 135.048 16.9576C135.041 16.9375 135.031 16.9191 135.017 16.9035C135.003 16.8879 134.987 16.8754 134.968 16.8669C134.95 16.8585 134.93 16.8541 134.91 16.8542H133.253V15.5551C133.254 15.4092 133.309 15.2695 133.406 15.1663C133.503 15.0631 133.634 15.0047 133.771 15.0037H134.935C134.954 15.0042 134.974 15.0006 134.992 14.993C135.01 14.9855 135.026 14.9742 135.04 14.9597C135.054 14.9453 135.065 14.9281 135.073 14.909C135.08 14.89 135.084 14.8695 135.084 14.8489V13.0211C135.084 13.0004 135.08 12.98 135.073 12.961C135.065 12.9419 135.054 12.9247 135.04 12.9102C135.026 12.8958 135.01 12.8845 134.992 12.8769C134.974 12.8694 134.954 12.8658 134.935 12.8663H132.969C132.693 12.8647 132.419 12.9217 132.164 13.0338C131.908 13.1459 131.676 13.3109 131.481 13.5193C131.286 13.7276 131.132 13.9751 131.027 14.2475C130.923 14.5198 130.87 14.8115 130.873 15.1057V16.8693H129.829C129.791 16.8693 129.754 16.8856 129.727 16.9146C129.699 16.9437 129.684 16.983 129.684 17.0241V18.8519C129.684 18.8726 129.687 18.8931 129.694 18.9123C129.701 18.9315 129.712 18.9491 129.725 18.9638C129.739 18.9786 129.755 18.9904 129.773 18.9984C129.791 19.0064 129.81 19.0105 129.829 19.0105H130.873V19.0898Z" fill="white"/>
<path d="M132.427 54.3354C130.512 54.3354 128.64 53.731 127.047 52.5986C125.455 51.4662 124.214 49.8566 123.481 47.9734C122.748 46.0903 122.557 44.0181 122.93 42.019C123.304 40.0198 124.226 38.1835 125.58 36.7422C126.934 35.3009 128.659 34.3193 130.538 33.9217C132.416 33.524 134.363 33.7281 136.132 34.5081C137.901 35.2882 139.413 36.6091 140.477 38.3039C141.541 39.9987 142.109 41.9912 142.109 44.0295C142.105 46.7616 141.084 49.3806 139.269 51.3125C137.454 53.2444 134.993 54.3314 132.427 54.3354V54.3354Z" fill="#00AEF0"/>
<path d="M137.99 40.268C137.626 40.4345 137.243 40.5512 136.851 40.6155C137.036 40.5815 137.305 40.2378 137.412 40.083C137.583 39.8681 137.712 39.619 137.791 39.3504C137.791 39.3277 137.809 39.3013 137.791 39.2862C137.782 39.2805 137.772 39.2776 137.761 39.2776C137.75 39.2776 137.74 39.2805 137.731 39.2862C137.303 39.5295 136.847 39.7147 136.376 39.8375C136.359 39.8429 136.342 39.8433 136.326 39.8387C136.309 39.834 136.295 39.8244 136.283 39.8111C136.246 39.7655 136.206 39.7226 136.163 39.6827C135.968 39.5039 135.748 39.3598 135.51 39.2559C135.191 39.1179 134.846 39.0585 134.502 39.0822C134.169 39.1067 133.844 39.2045 133.548 39.3692C133.251 39.5349 132.989 39.7637 132.778 40.0414C132.558 40.3271 132.4 40.6612 132.317 41.0195C132.246 41.3596 132.238 41.7109 132.292 42.0543C132.292 42.1147 132.292 42.1223 132.246 42.1147C130.386 41.8202 128.843 41.1102 127.594 39.5921C127.537 39.5241 127.509 39.5241 127.463 39.5921C126.917 40.4682 127.183 41.8579 127.867 42.5603C127.956 42.651 128.052 42.7454 128.151 42.8285C127.838 42.8021 127.534 42.711 127.254 42.5603C127.2 42.5226 127.172 42.5603 127.168 42.6094C127.162 42.7037 127.162 42.7984 127.168 42.8927C127.223 43.3391 127.389 43.762 127.647 44.1183C127.906 44.4745 128.249 44.7514 128.641 44.9206C128.737 44.9639 128.837 44.9956 128.939 45.015C128.648 45.0764 128.349 45.0866 128.055 45.0452C127.992 45.0452 127.967 45.0679 127.992 45.1321C128.143 45.5522 128.392 45.9242 128.716 46.213C129.041 46.5018 129.428 46.6978 129.844 46.7824C129.929 46.7824 130.01 46.7824 130.096 46.8164C129.886 47.1525 129.166 47.4017 128.832 47.5263C128.218 47.7605 127.563 47.8506 126.913 47.7907C126.81 47.7718 126.785 47.7907 126.76 47.7907C126.736 47.7907 126.76 47.8322 126.789 47.8625C126.92 47.9531 127.051 48.0362 127.19 48.1155C127.596 48.3473 128.026 48.5297 128.471 48.6593C130.777 49.339 133.374 48.8405 135.105 47.009C136.464 45.5739 136.94 43.5913 136.94 41.6049C136.94 41.5256 137.028 41.4841 137.078 41.4425C137.423 41.1587 137.725 40.8214 137.976 40.4418C138.016 40.3883 138.036 40.3211 138.033 40.2529V40.2529C138.033 40.2378 138.036 40.2454 137.99 40.268Z" fill="white"/>
<path fill-rule="evenodd" clip-rule="evenodd" d="M130.479 48.9466C130.479 48.9239 130.679 48.9466 130.479 48.9466C130.479 48.9353 130.504 48.9466 130.479 48.9466Z" fill="white"/>
<path fill-rule="evenodd" clip-rule="evenodd" d="M134.471 39.0974C134.465 39.1033 134.456 39.1065 134.448 39.1065C134.439 39.1065 134.431 39.1033 134.424 39.0974H134.471Z" fill="white"/>
<path d="M132.576 78.784C137.23 78.784 141.002 74.7684 141.002 69.815C141.002 64.8615 137.23 60.8459 132.576 60.8459C127.922 60.8459 124.149 64.8615 124.149 69.815C124.149 74.7684 127.922 78.784 132.576 78.784Z" fill="white"/>
<path d="M132.583 80.1396C130.679 80.1404 128.818 79.5402 127.236 78.4152C125.653 77.2901 124.419 75.6906 123.69 73.819C122.961 71.9474 122.77 69.8879 123.142 67.9008C123.513 65.9138 124.429 64.0885 125.775 62.656C127.121 61.2234 128.836 60.2479 130.703 59.8529C132.57 59.4578 134.505 59.6609 136.263 60.4366C138.021 61.2122 139.524 62.5255 140.581 64.2103C141.638 65.8951 142.202 67.8758 142.201 69.9017C142.198 72.6158 141.183 75.2175 139.38 77.1366C137.577 79.0557 135.133 80.1356 132.583 80.1396ZM135.826 65.7439C135.685 65.7439 135.548 65.7882 135.431 65.8712C135.315 65.9541 135.224 66.0721 135.17 66.2101C135.116 66.3481 135.102 66.5 135.13 66.6465C135.157 66.793 135.225 66.9276 135.324 67.0332C135.423 67.1388 135.55 67.2108 135.687 67.2399C135.825 67.2691 135.968 67.2541 136.097 67.1969C136.227 67.1398 136.338 67.043 136.416 66.9188C136.494 66.7946 136.535 66.6485 136.535 66.4991C136.535 66.2988 136.46 66.1067 136.327 65.9651C136.194 65.8234 136.014 65.7439 135.826 65.7439V65.7439ZM132.661 66.7182C132.069 66.7182 131.491 66.9049 130.999 67.2547C130.507 67.6045 130.124 68.1017 129.897 68.6834C129.671 69.2652 129.612 69.9052 129.727 70.5228C129.843 71.1403 130.128 71.7076 130.546 72.1528C130.964 72.598 131.497 72.9012 132.077 73.0241C132.657 73.1469 133.259 73.0839 133.805 72.8429C134.352 72.602 134.819 72.1939 135.148 71.6704C135.476 71.1469 135.652 70.5314 135.652 69.9017C135.651 69.0577 135.335 68.2485 134.775 67.6517C134.214 67.0549 133.454 66.7192 132.661 66.7182V66.7182ZM132.661 71.9372C132.282 71.9372 131.911 71.8175 131.596 71.5933C131.281 71.369 131.035 71.0503 130.89 70.6775C130.745 70.3046 130.708 69.8944 130.782 69.4987C130.856 69.103 131.039 68.7397 131.307 68.4546C131.576 68.1696 131.917 67.9756 132.289 67.8974C132.661 67.8191 133.046 67.8601 133.396 68.015C133.746 68.1699 134.045 68.4319 134.256 68.7677C134.466 69.1036 134.577 69.4982 134.577 69.9017C134.576 70.4419 134.374 70.9596 134.014 71.3413C133.655 71.7229 133.168 71.9372 132.661 71.9372V71.9372ZM138.692 67.2544C138.692 66.2248 138.308 65.2374 137.624 64.5093C136.94 63.7813 136.012 63.3723 135.045 63.3723H130.234C129.267 63.3723 128.339 63.7813 127.655 64.5093C126.971 65.2374 126.587 66.2248 126.587 67.2544V72.3791C126.587 73.4087 126.971 74.3961 127.655 75.1242C128.339 75.8522 129.267 76.2612 130.234 76.2612H135.049C136.016 76.2612 136.944 75.8522 137.628 75.1242C138.312 74.3961 138.696 73.4087 138.696 72.3791L138.692 67.2544ZM137.55 72.3791C137.55 73.0862 137.286 73.7643 136.816 74.2643C136.347 74.7643 135.709 75.0452 135.045 75.0452H130.234C129.57 75.0452 128.932 74.7643 128.463 74.2643C127.993 73.7643 127.729 73.0862 127.729 72.3791V67.2544C127.728 66.9034 127.791 66.5554 127.917 66.2307C128.042 65.9059 128.226 65.6106 128.459 65.3619C128.692 65.1131 128.968 64.9157 129.273 64.781C129.577 64.6463 129.904 64.5769 130.234 64.5769H135.049C135.713 64.5769 136.35 64.8579 136.82 65.3579C137.29 65.8579 137.554 66.536 137.554 67.2431L137.55 72.3791Z" fill="url(#paint0_linear)"/>
<path d="M93.8666 16.2386C93.8666 17.852 93.4172 19.4291 92.5751 20.7705C91.733 22.1119 90.536 23.1574 89.1357 23.7748C87.7353 24.3922 86.1944 24.5538 84.7078 24.239C83.2212 23.9243 81.8556 23.1474 80.7838 22.0066C79.712 20.8658 78.9821 19.4123 78.6864 17.83C78.3907 16.2477 78.5425 14.6076 79.1225 13.1171C79.7026 11.6265 80.6849 10.3526 81.9451 9.45626C83.2054 8.55995 84.6871 8.08154 86.2029 8.08154C86.6191 8.08175 87.0345 8.11965 87.4447 8.19483L86.2029 16.2386L93.299 13.1042C93.6741 14.101 93.8668 15.1649 93.8666 16.2386V16.2386Z" fill="#03B836"/>
<path d="M95.8536 10.3852L88.7575 13.5196L89.9993 5.47583C91.2905 5.68587 92.5085 6.24855 93.5346 7.10896C94.5606 7.96938 95.3596 9.09816 95.8536 10.3852Z" fill="#03B836"/>
<path d="M140.257 98.5649H124.593C124.42 98.561 124.255 98.4862 124.132 98.356C124.01 98.2258 123.94 98.0503 123.936 97.8662V87.5566C123.94 87.3725 124.01 87.197 124.132 87.0668C124.255 86.9366 124.42 86.8618 124.593 86.8579H140.271C140.445 86.8608 140.61 86.9354 140.732 87.0658C140.855 87.1962 140.925 87.3722 140.928 87.5566V97.8662C140.915 98.0496 140.84 98.2217 140.716 98.3504C140.593 98.479 140.43 98.5553 140.257 98.5649V98.5649Z" fill="#03B836"/>
<path d="M125.143 88.3534L132.444 94.2295L139.931 87.9531" fill="#03B836"/>
<path d="M125.143 88.3534L132.444 94.2295L139.931 87.9531" stroke="white" stroke-width="1.06" stroke-miterlimit="10"/>
<path d="M124.908 97.5189L129.262 91.79" stroke="white" stroke-width="1.06" stroke-miterlimit="10"/>
<path d="M139.65 97.5189L135.297 91.79" stroke="white" stroke-width="1.06" stroke-miterlimit="10"/>
<path d="M58.1522 0H36.6937C34.4873 0 32.6986 1.9038 32.6986 4.25227V25.5816C32.6986 27.93 34.4873 29.8338 36.6937 29.8338H58.1522C60.3586 29.8338 62.1473 27.93 62.1473 25.5816V4.25227C62.1473 1.9038 60.3586 0 58.1522 0Z" fill="#8FC7F9"/>
<path d="M37.6765 20.7702L44.6874 14.0255L48.4093 18.9311L55.995 10.0376" stroke="white" stroke-width="4" stroke-linecap="round" stroke-linejoin="round"/>
<path d="M53.671 9.83008H56.0163V12.7115" stroke="white" stroke-width="4" stroke-miterlimit="10" stroke-linecap="round"/>
<path d="M114.807 113.093C114.807 113.093 114.747 113.769 111.784 113.769C108.822 113.769 104.511 112.95 104.511 112.95L111.39 112.24C111.39 112.24 114.034 112.096 114.807 113.093Z" fill="#0E538C"/>
<path d="M107.264 113.335C105.586 113.335 104.876 114.252 104.209 114.543C103.542 114.834 102.879 115.264 102.879 115.249C103.258 114.46 103.787 114.445 104.06 114.188C104.333 113.931 104.255 114.06 103.666 114.011C103.333 113.98 102.73 114.637 102.304 115.008C102.13 115.169 101.924 115.285 101.701 115.347C101.993 114.919 102.322 114.519 102.684 114.154C103.2 113.663 103.767 113.237 104.376 112.885C104.731 112.723 105.859 112.693 106.643 112.806C107.562 112.934 108.474 113.335 107.264 113.335Z" fill="#0E538C"/>
<path d="M104.482 112.916C103.964 113.047 103.458 113.231 102.971 113.463C102.818 113.592 102.155 114.351 102.155 114.351C102.434 114.298 102.694 114.167 102.911 113.973C103.41 113.58 103.935 113.227 104.482 112.916V112.916Z" fill="#0E538C"/>
<path d="M112.373 111.711C112.373 111.711 115.605 111.937 115.378 114.06C115.258 115.264 114.52 115.684 113.537 115.589C111.72 115.427 109.666 115.136 109.666 115.136L108.744 111.839L112.373 111.711Z" fill="#0E538C"/>
<path d="M113.051 112.002L116.226 101.107C116.226 101.107 116.695 99.5167 117.465 99.8037C118.568 100.238 118.025 101.541 117.933 102.315C117.738 103.89 117.873 104.581 116.847 108.38C116.212 110.729 115.666 113.433 115.123 114.977C114.747 116.039 114.094 114.509 113.111 114.09C111.27 113.293 113.051 112.002 113.051 112.002Z" fill="#0E538C"/>
<path d="M113.296 95.1889C113.438 95.6377 113.663 96.0516 113.959 96.406C114.254 96.7604 114.613 97.0481 115.015 97.252C115.416 97.4559 115.852 97.5719 116.297 97.5931C116.742 97.6143 117.186 97.5403 117.603 97.3754C118.454 97.0318 119.145 96.3493 119.531 95.4724C119.917 94.5956 119.968 93.5932 119.671 92.6775C119.529 92.2291 119.304 91.8157 119.009 91.4616C118.714 91.1075 118.355 90.82 117.954 90.6161C117.552 90.4123 117.117 90.2961 116.673 90.2746C116.228 90.2532 115.785 90.3267 115.368 90.491C114.516 90.8339 113.824 91.5161 113.437 92.393C113.051 93.27 113 94.2727 113.296 95.1889V95.1889Z" fill="#0E538C"/>
<path d="M109.819 95.3663C110.042 95.7311 110.333 96.0441 110.673 96.2864C111.014 96.5288 111.396 96.6955 111.798 96.7766C112.201 96.8577 112.614 96.8516 113.014 96.7585C113.414 96.6654 113.792 96.4873 114.126 96.2349L113.927 94.4146C114.606 93.8826 115.067 93.0927 115.214 92.2089C115.36 91.3251 115.182 90.4151 114.715 89.6676L114.051 88.6253C113.827 88.2604 113.536 87.9473 113.196 87.705C112.855 87.4626 112.472 87.2958 112.07 87.2147C111.667 87.1336 111.253 87.1398 110.853 87.233C110.453 87.3261 110.075 87.5043 109.741 87.7568L109.105 88.2364C108.428 88.7696 107.968 89.5596 107.822 90.4431C107.676 91.3267 107.855 92.2361 108.321 92.9834L109.819 95.3663Z" fill="#0E538C"/>
<path d="M108.548 90.2983C108.717 90.564 108.903 90.8164 109.105 91.0536C110.496 92.6624 112.355 93.2704 113.537 92.6133C114.033 93.3177 114.611 93.9521 115.258 94.5015C115.911 95.0642 117.571 95.287 117.571 95.287C118.54 96.42 114.91 102.995 114.655 102.961C114.126 102.915 113.445 99.2787 113.945 97.957C114.172 97.3641 114.534 96.6541 114.427 96.3331C114.051 95.2228 113.519 95.4154 113.519 95.4154C113.519 95.4154 112.81 96.284 112.281 96.2538C111.752 96.2236 110.755 95.2719 110.709 95.2568C110.536 95.1022 110.383 94.923 110.255 94.7243L108.804 92.4094C108.619 92.0988 108.5 91.7488 108.456 91.384C108.412 91.0193 108.443 90.6487 108.548 90.2983V90.2983Z" fill="#FFC76D"/>
<path d="M119.643 118.017C119.643 118.017 118.465 119.528 118.1 119.69C117.617 119.917 116.134 119.433 116.134 119.433C116.134 119.433 115.744 112.5 115.29 109.796C114.835 107.092 114.172 106.397 114.14 105.532C114.094 104.165 113.022 103.618 113.203 102.557C113.384 101.495 113.704 97.6963 113.807 98.1947C114.729 102.507 115.864 98.9198 116.12 98.3571C116.258 98.0513 119.643 118.017 119.643 118.017Z" fill="white"/>
<path d="M114.275 96.9109C114.275 96.9109 112.856 98.5839 112.948 99.241C113.04 99.8981 112.327 101.96 113.037 104.826C113.838 108.089 114.261 110.31 114.413 112.451C114.566 114.592 113.885 116.552 114.154 119.177C114.367 121.235 114.807 121.348 114.807 121.348C115.078 121.403 115.358 121.378 115.616 121.275C115.875 121.173 116.101 120.997 116.272 120.767C116.876 119.981 115.971 112.965 115.666 111.227C115.361 109.49 114.399 105.389 114.14 104.181C113.925 103.054 113.844 101.903 113.899 100.755C113.929 99.7229 114.066 98.697 114.307 97.6964C114.321 97.6171 114.399 96.7146 114.275 96.9109Z" fill="#0E538C"/>
<path d="M116.787 98.8707C116.968 99.4407 117.254 99.9662 117.629 100.416C118.004 100.866 118.461 101.231 118.971 101.489C119.482 101.747 120.036 101.893 120.6 101.919C121.165 101.945 121.729 101.85 122.258 101.639C123.339 101.203 124.218 100.337 124.709 99.2227C125.2 98.1088 125.264 96.8353 124.887 95.6721C124.707 95.1015 124.421 94.5752 124.046 94.1248C123.671 93.6743 123.215 93.3088 122.704 93.0501C122.194 92.7915 121.639 92.6449 121.074 92.6191C120.51 92.5933 119.945 92.6889 119.416 92.9002C118.333 93.3342 117.452 94.2012 116.961 95.3165C116.47 96.4318 116.407 97.7071 116.787 98.8707V98.8707Z" fill="#0E538C"/>
<path d="M109.095 140.347L109.893 147.153L106.42 148.905L104.497 149.358L107.913 146.541L106.796 140.396L109.095 140.347Z" fill="#FFC76D"/>
<path d="M110.12 148.184L109.364 148.391L108.85 147.893L106.068 149.373L103.606 150C103.588 149.891 103.604 149.778 103.652 149.679C103.954 149.245 105.692 148.293 105.692 148.293C105.692 148.293 105.721 148.924 105.962 148.939C106.203 148.954 108.336 147.764 108.836 147.428C109.68 146.866 109.847 146.496 109.9 146.541C110.088 146.654 110.12 148.184 110.12 148.184Z" fill="#0E538C"/>
<path d="M100.704 130.887L97.9398 136.68L94.1292 136.488L92.2239 135.891L96.4425 135.136L98.7381 130.177L100.704 130.887Z" fill="#FFC76D"/>
<path d="M97.7092 137.708L96.9534 137.515L96.7122 136.809L93.2812 136.76L91.2411 136.246C91.3555 136.102 91.488 135.975 91.6349 135.869C92.0891 135.657 93.7034 135.563 93.7034 135.563C93.7034 135.563 93.5402 136.061 93.7496 136.19C93.9589 136.318 96.3183 136.412 96.8931 136.367C97.8901 136.284 98.1775 136.061 98.2094 136.125C98.3159 136.356 97.7092 137.708 97.7092 137.708Z" fill="#0E538C"/>
<path d="M120.881 113.561L118.827 114.543V117.564L104.663 115.102C104.663 115.102 103.319 114.638 102.456 116.99C101.232 120.336 98.1208 130.748 98.1208 130.748L100.083 133.014L106.267 121.254C106.267 121.254 118.933 127.802 123.106 126.386C124.706 125.838 125.944 122.719 125.703 119.566C125.584 117.967 125.376 116.377 125.082 114.804L120.881 113.561Z" fill="#47423C"/>
<path d="M119.082 126.318L108.942 125.514L109.819 142.749L106.824 142.862L104.617 122.655C104.617 122.655 105.206 119.634 107.143 120.098C109.081 120.563 113.778 124.532 119.082 126.318Z" fill="#47423C"/>
<path d="M125.916 130.665C125.916 130.665 120.594 124.309 119.221 120.721C117.571 116.427 117.709 111.038 117.404 109.252C116.847 105.97 116.166 99.5996 116.045 98.8103C115.998 98.2298 116.114 97.6474 116.379 97.1374C116.379 97.1374 116.024 94.7545 117.028 95.015C118.194 95.37 119.319 95.8601 120.385 96.4765C121.321 96.9297 123.241 108.939 123.347 109.509C123.737 111.601 125.174 113.497 126.203 115.446C128.62 120.064 129.24 125.517 129.24 125.517C129.24 125.517 128.939 129.486 125.916 130.665Z" fill="#8FC7F9"/>
<path d="M120.427 114.026C120.427 114.026 120.385 114.8 116.996 114.622C113.608 114.445 108.655 113.221 108.655 113.221L116.5 112.844C116.5 112.844 119.505 112.851 120.427 114.026Z" fill="#FFE3CA"/>
<path d="M111.312 113.641C109.698 113.61 109.003 114.494 108.367 114.773C107.927 114.972 107.498 115.197 107.083 115.449C107.438 114.694 107.959 114.694 108.229 114.437C108.499 114.181 108.428 114.324 107.853 114.26C107.519 114.226 106.945 114.857 106.537 115.208C106.372 115.371 106.168 115.483 105.948 115.533C106.229 115.114 106.549 114.725 106.902 114.373C107.398 113.902 107.946 113.496 108.534 113.165C109.256 113.013 109.998 113.002 110.723 113.135C111.585 113.255 112.48 113.671 111.312 113.641Z" fill="#FFE3CA"/>
<path d="M108.626 113.176C108.129 113.294 107.643 113.461 107.175 113.675C107.023 113.803 106.388 114.524 106.388 114.524C106.654 114.474 106.904 114.353 107.115 114.173C107.602 113.813 108.106 113.48 108.626 113.176V113.176Z" fill="#FFE3CA"/>
<path d="M117.724 113.176L122.74 110.359C122.74 110.359 122.74 113.758 122.787 115.072C122.833 116.386 123.329 118.21 122.364 118.471C121.399 118.731 120.896 118.599 121.896 119.226C122.897 119.853 122.666 120.48 122.286 121.008C121.907 121.537 123.557 126.96 123.173 127.266C121.619 125.178 119.941 122.587 119.214 120.703C118.281 118.259 117.919 115.457 117.724 113.176Z" fill="#0E538C"/>
<path d="M119.342 111.805L119.143 100.933C119.143 100.933 119.143 97.5338 119.221 96.5406C119.299 95.5474 120.927 96.7143 120.927 96.7143C120.927 96.7143 123.241 100.045 123.287 108.074C123.315 113.448 123.042 116.246 120.715 116.023C118.554 115.812 116.102 115.457 116.102 115.457L115.038 112.481L119.342 111.805Z" fill="#8FC7F9"/>
<path d="M118.827 117.549L101.552 115.249L101.598 114.864L118.873 117.164L118.827 117.549Z" fill="#D3D3D3"/>
<path d="M111.252 116.133C111.251 116.201 111.237 116.267 111.211 116.329C111.185 116.391 111.148 116.447 111.102 116.493C111.055 116.539 111.001 116.575 110.942 116.599C110.882 116.623 110.819 116.634 110.755 116.631L101.885 115.457C101.644 115.427 101.342 115.185 101.129 114.381L97.7269 104.985C97.7695 104.607 98.0569 104.403 98.2982 104.502L107.353 106.012C107.489 106.078 107.607 106.18 107.695 106.309C107.783 106.439 107.837 106.59 107.853 106.749L111.252 116.133Z" fill="#D3D3D3"/>
<path d="M110.134 116.394H110.227L118.873 117.553C118.405 117.713 117.907 117.751 117.422 117.662L110.18 116.699H110.088L102.85 115.733C102.36 115.678 101.886 115.513 101.459 115.249L110.134 116.394Z" fill="#D3D3D3"/>
<path d="M119.342 111.805L119.143 100.933C119.247 100.34 119.399 99.7574 119.597 99.1919C119.671 100.385 120.186 108.958 120.246 110.087C120.324 111.307 121.261 111.435 121.456 111.839C121.651 112.243 121.488 112.304 120.793 112.16C120.097 112.017 120.353 112.13 120.505 112.515C120.658 112.9 120.278 112.806 118.948 112.289C117.979 111.911 116.109 112.289 115.183 112.515L119.342 111.805Z" fill="#0E538C"/>
<path d="M23.8073 24.6601C26.0392 24.6601 27.8485 22.7343 27.8485 20.3587C27.8485 17.9832 26.0392 16.0574 23.8073 16.0574C21.5754 16.0574 19.7661 17.9832 19.7661 20.3587C19.7661 22.7343 21.5754 24.6601 23.8073 24.6601Z" fill="#0E538C"/>
<path d="M18.0346 24.6601C20.2665 24.6601 22.0758 22.7343 22.0758 20.3587C22.0758 17.9832 20.2665 16.0574 18.0346 16.0574C15.8027 16.0574 13.9934 17.9832 13.9934 20.3587C13.9934 22.7343 15.8027 24.6601 18.0346 24.6601Z" fill="#0E538C"/>
<path d="M16.4948 27.1186C18.5131 27.1186 20.1493 25.3771 20.1493 23.2288C20.1493 21.0806 18.5131 19.3391 16.4948 19.3391C14.4765 19.3391 12.8403 21.0806 12.8403 23.2288C12.8403 25.3771 14.4765 27.1186 16.4948 27.1186Z" fill="#0E538C"/>
<path d="M17.0731 29.1655C18.5604 29.1655 19.7661 27.8822 19.7661 26.2992C19.7661 24.7162 18.5604 23.4329 17.0731 23.4329C15.5858 23.4329 14.3802 24.7162 14.3802 26.2992C14.3802 27.8822 15.5858 29.1655 17.0731 29.1655Z" fill="#0E538C"/>
<path d="M20.7276 23.0212C22.7459 23.0212 24.3821 21.2797 24.3821 19.1314C24.3821 16.9832 22.7459 15.2417 20.7276 15.2417C18.7093 15.2417 17.0731 16.9832 17.0731 19.1314C17.0731 21.2797 18.7093 23.0212 20.7276 23.0212Z" fill="#0E538C"/>
<path d="M21.6926 31.216C24.4556 31.216 26.6954 28.832 26.6954 25.8912C26.6954 22.9504 24.4556 20.5664 21.6926 20.5664C18.9297 20.5664 16.6899 22.9504 16.6899 25.8912C16.6899 28.832 18.9297 31.216 21.6926 31.216Z" fill="#0E538C"/>
<path d="M19.3935 79.3654L18.3007 81.9032C18.0635 82.4694 17.967 83.091 18.0204 83.7084V83.7084C18.0465 84.0931 18.1632 84.4647 18.3598 84.7887C18.5563 85.1128 18.8264 85.379 19.1452 85.5626C19.7945 85.9138 20.277 86.6653 20.1705 87.0732C20.1138 87.2884 17.0554 86.3179 15.9129 83.5309C15.877 83.4547 15.8583 83.3706 15.8583 83.2854C15.8583 83.2002 15.877 83.1161 15.9129 83.0399C16.0014 82.8535 16.115 82.6817 16.25 82.5301C16.648 82.263 16.9743 81.891 17.1973 81.45C17.4208 80.8873 18.4994 77.5037 18.4994 77.5037L19.3935 79.3654Z" fill="#FA968C"/>
<path d="M23.2963 81.0875L24.9107 80.5513C25.1555 83.4931 25.748 87.3111 26.8231 88.0739C28.4126 89.2069 30.5414 90.2454 29.7963 90.9969C29.6473 91.1442 26.1419 90.0679 24.3324 89.4863C24.2007 89.4447 24.079 89.3733 23.9757 89.277C23.8723 89.1808 23.7897 89.0619 23.7334 88.9285C23.6771 88.7952 23.6486 88.6505 23.6497 88.5043C23.6508 88.3581 23.6816 88.2139 23.7399 88.0815C24.18 87.0743 24.2644 85.932 23.9776 84.864L23.048 81.3708C23.0635 81.305 23.0944 81.2446 23.1378 81.195C23.1813 81.1455 23.2358 81.1085 23.2963 81.0875V81.0875Z" fill="#FA968C"/>
<path d="M23.8285 87.9041L23.5589 88.5196C23.5238 88.5989 23.5052 88.6854 23.5045 88.773C23.5037 88.8607 23.5207 88.9475 23.5544 89.0275C23.5881 89.1075 23.6377 89.1788 23.6997 89.2365C23.7617 89.2942 23.8347 89.3369 23.9137 89.3618C25.521 89.8716 29.6438 91.1593 29.8034 90.997C30.1973 90.6193 29.8034 90.034 29.0725 89.4864C29.0013 89.437 28.9196 89.4071 28.8348 89.3995C28.06 89.3769 27.2889 89.2758 26.5321 89.0974C25.5878 88.8209 24.6796 88.42 23.8285 87.9041Z" fill="#0B4870"/>
<path d="M24.7688 29.9849C24.7688 29.9849 29.3812 32.8512 31.3114 33.6707C33.2415 34.4902 37.4672 28.3459 38.2371 27.5265C38.4181 27.3376 38.9183 27.787 38.6203 28.3459C37.6517 30.1851 34.1178 34.8754 33.2344 36.1292C32.0777 37.7644 25.152 32.855 25.152 32.855L24.7688 29.9849Z" fill="#FA968C"/>
<path d="M26.8586 46.6162C27.3056 49.0823 28.2778 61.5558 26.7876 63.8859C26.5186 64.6957 26.2071 65.4887 25.8545 66.2613C25.2655 67.5868 21.6607 75.2076 19.4184 79.3957C18.9678 79.1465 18.5775 78.3761 18.432 77.7605C19.5816 72.9116 21.5827 65.6344 22.1361 64.3882C22.2522 64.1379 22.3887 63.8991 22.5442 63.6744C23.0223 62.9599 23.3172 62.1251 23.4 61.2523C23.4827 60.3795 23.3504 59.4989 23.0161 58.6971C21.313 54.4335 19.6809 49.003 19.4042 47.4773C18.9216 44.8338 20.4686 42.3262 22.4022 41.9259C24.3359 41.5256 26.376 43.9614 26.8586 46.6162Z" fill="#0B4870"/>
<path d="M18.3291 38.92C17.7756 36.7825 16.7751 32.6964 16.729 30.8762C16.7163 30.3755 16.8881 29.8894 17.2077 29.5218C17.5272 29.1541 17.9692 28.9341 18.4391 28.9086L22.0758 28.7576C22.9841 28.7047 25.0278 29.4373 25.152 30.3966C25.3471 31.9071 25.2265 36.3369 24.6624 38.5499L18.3291 38.92Z" fill="#FFFAF2"/>
<path d="M23.2502 81.6767C23.1968 81.6674 23.1468 81.6428 23.1056 81.6055C23.0643 81.5683 23.0334 81.5198 23.0161 81.4652C21.721 77.6623 20.3196 73.2175 20.1776 72.1148C20.0754 71.2275 20.0636 70.331 20.1422 69.441C20.2708 68.0653 20.117 66.6763 19.6916 65.37C17.616 59.1805 15.5546 50.5929 15.8845 48.935C16.3919 46.4274 18.4143 44.1314 20.3905 44.1163C22.3668 44.1012 24.0521 47.0543 24.0698 49.7809C24.0698 51.8391 24.5488 63.5649 23.9031 69.0709C23.9279 69.1956 23.9492 69.324 23.9669 69.4486C24.1195 70.5815 24.6765 76.4312 25.0526 81.0347C25.0585 81.092 25.0497 81.15 25.0272 81.2025C25.0048 81.255 24.9694 81.3001 24.9249 81.333C24.4308 81.6775 23.8292 81.801 23.2502 81.6767V81.6767Z" fill="#0B4870"/>
<path d="M16.4132 46.7069C16.4132 46.7069 20.8695 49.7659 26.9686 47.534C27.0821 46.2991 26.3264 43.2515 25.4748 41.3708C24.9781 40.2794 24.5878 38.9652 24.7652 37.7681C24.9001 36.8807 24.9214 35.5778 25.1484 34.4902C23.5341 33.0174 23.5944 32.4773 24.3785 30.3965H23.2254C22.9345 31.2349 22.4626 30.1322 21.3662 30.1964C20.9138 30.2425 20.4589 30.1394 20.0635 29.9009C19.668 29.6624 19.3511 29.3001 19.1558 28.8633L18.283 28.9162C17.4528 29.1654 16.697 29.7621 16.7219 30.7137C16.768 32.4962 17.5024 36.6503 17.914 38.8557C18.0925 39.8049 18.0511 40.7861 17.7934 41.7145L16.4132 46.7069Z" fill="#FFFAF2"/>
<path d="M22.0084 25.9366L20.2699 25.812L19.5851 28.9729L22.2745 29.1164L22.0084 25.9366Z" fill="#FA968C"/>
<path d="M22.1787 27.9757C22.0219 28.0957 21.8359 28.1651 21.643 28.1758C21.015 28.2136 20.465 27.2393 20.0535 26.7974L20.2699 25.8118L22.0084 25.9364L22.1787 27.9757Z" fill="#BB7169"/>
<path d="M23.4418 24.5732C23.5718 23.4983 23.5116 22.407 23.2644 21.3557L18.8649 21.6125L19.0245 24.6563C19.1247 25.3582 19.4707 25.9936 19.9931 26.435C20.9085 27.1903 21.5614 27.4735 22.1468 27.4395C22.608 27.4131 23.2644 25.7892 23.4418 24.5732Z" fill="#FA968C"/>
<path d="M19.0884 22.9986C18.9922 22.997 18.8969 23.0181 18.8093 23.0603C18.7216 23.1025 18.6438 23.1649 18.5815 23.2428C18.5191 23.3207 18.4737 23.4124 18.4484 23.5112C18.4232 23.61 18.4188 23.7135 18.4356 23.8143C18.4675 24.411 18.8684 25.1663 19.1984 25.1474C19.5284 25.1285 19.7696 24.63 19.7377 24.0371C19.7058 23.4442 19.4184 22.9797 19.0884 22.9986Z" fill="#FA968C"/>
<path d="M38.4571 25.2378C38.6877 25.5097 38.3471 26.6199 38.5955 26.7483C38.8438 26.8767 39.0531 26.2498 39.188 25.6607C39.3228 25.0716 39.5428 23.8405 39.8976 24.2936C40.0584 24.9565 40.0669 25.6508 39.9224 26.3178C39.6758 27.1307 39.257 27.8723 38.6983 28.4855C38.1626 29.0104 37.861 28.8254 37.5098 28.4477C37.1585 28.0701 37.8646 26.5973 37.8646 26.5973C37.8646 26.5973 38.2265 24.9696 38.4571 25.2378Z" fill="#FA968C"/>
<path d="M29.218 42.8097C29.0619 43.1383 27.9691 43.1874 27.9265 43.4933C27.884 43.7991 28.5297 43.7689 29.0938 43.6934C29.658 43.6179 30.8182 43.4026 30.545 43.9124C30.0187 44.3111 29.4104 44.5701 28.771 44.6677C27.9687 44.7105 27.1679 44.5581 26.4293 44.2221C25.78 43.8747 25.8367 43.5084 26.0425 43.025C26.2483 42.5416 27.7917 42.7191 27.7917 42.7191C27.7917 42.7191 29.3741 42.4849 29.218 42.8097Z" fill="#FA968C"/>
<path d="M18.5065 29.981C18.6303 30.068 18.7368 30.18 18.8199 30.3108C18.9029 30.4416 18.9609 30.5886 18.9906 30.7433C19.0203 30.8979 19.021 31.0573 18.9927 31.2123C18.9644 31.3673 18.9077 31.5148 18.8258 31.6464V31.6691C18.6023 32.0467 18.3575 32.4621 18.1162 32.87C17.875 33.2778 17.6798 33.7121 17.4776 34.1389C17.0716 34.9789 16.7311 35.8529 16.4593 36.7522C16.1838 37.6035 16.0353 38.4955 16.0193 39.3957C15.9961 40.1953 16.2232 40.9804 16.6651 41.6275C17.1749 42.2751 17.8503 42.7513 18.6094 42.9984C19.4549 43.2888 20.3307 43.4677 21.2172 43.5309C23.0771 43.6488 24.9433 43.5805 26.7912 43.3269V43.3269C26.8729 43.3173 26.955 43.3412 27.0208 43.3937C27.0865 43.4463 27.1309 43.5236 27.145 43.6098C27.159 43.6961 27.1416 43.7848 27.0963 43.8578C27.051 43.9309 26.9812 43.9828 26.9012 44.0029C25.0285 44.5267 23.1063 44.8244 21.1711 44.8904C20.6738 44.9009 20.1764 44.8833 19.6809 44.8375C19.1703 44.7827 18.6641 44.6893 18.1659 44.5581C17.6459 44.4159 17.1434 44.2093 16.6686 43.9425C16.1633 43.6581 15.7073 43.2839 15.3204 42.836C14.9232 42.3748 14.6157 41.8345 14.4156 41.2461C14.219 40.6793 14.0995 40.0854 14.0608 39.4825C14.0112 38.3567 14.131 37.2297 14.4156 36.1442C14.6905 35.1072 15.0466 34.0966 15.48 33.123C15.6894 32.6396 15.92 32.1714 16.1577 31.7106C16.3954 31.2499 16.6438 30.8043 16.9454 30.3285C17.1092 30.0622 17.3657 29.876 17.6584 29.8108C17.9511 29.7457 18.2562 29.8069 18.5065 29.981V29.981Z" fill="#FA968C"/>
<path d="M18.9181 86.9374C19.6277 87.315 20.2912 87.2735 20.3125 87.1979C20.3976 86.8883 20.0499 86.1217 19.5497 85.8044C18.0488 85.6723 16.8461 84.5544 16.0868 83.0741C16.0718 83.0442 16.05 83.0188 16.0235 83.0001C15.997 82.9815 15.9665 82.9701 15.9348 82.9671C15.9031 82.9641 15.8712 82.9696 15.842 82.983C15.8128 82.9964 15.7872 83.0173 15.7675 83.0439C15.5759 83.3233 15.3239 83.6934 15.2282 83.8256C15.1717 83.9054 15.1439 84.0041 15.1498 84.1038C15.1556 84.2035 15.1948 84.2977 15.2601 84.3694C15.2601 84.3694 15.7391 85.2417 18.9181 86.9374Z" fill="#0B4870"/>
<path d="M25.2478 31.8806C25.2478 31.8806 26.3122 33.6216 25.9325 34.5959C25.5529 35.5702 24.3927 36.537 24.3927 36.537L24.7794 32.0052L25.2478 31.8806Z" fill="#FFFAF2"/>
<path d="M18.2262 23.4328C19.2883 23.4328 20.1493 22.5164 20.1493 21.3859C20.1493 20.2555 19.2883 19.3391 18.2262 19.3391C17.1642 19.3391 16.3032 20.2555 16.3032 21.3859C16.3032 22.5164 17.1642 23.4328 18.2262 23.4328Z" fill="#0E538C"/>
<path d="M20.1528 22.2018C21.2149 22.2018 22.0758 21.2854 22.0758 20.155C22.0758 19.0245 21.2149 18.1082 20.1528 18.1082C19.0907 18.1082 18.2298 19.0245 18.2298 20.155C18.2298 21.2854 19.0907 22.2018 20.1528 22.2018Z" fill="#0E538C"/>
<path d="M22.6542 22.2017C23.6104 22.2017 24.3856 21.3766 24.3856 20.3588C24.3856 19.341 23.6104 18.5159 22.6542 18.5159C21.6979 18.5159 20.9227 19.341 20.9227 20.3588C20.9227 21.3766 21.6979 22.2017 22.6542 22.2017Z" fill="#0E538C"/>
<path d="M17.9069 18.667L18.613 17.7229L19.3652 19.3354L18.0346 19.1315L17.3676 20.3589L16.4948 18.5953L17.9069 18.667Z" fill="#FFFAF2"/>
<path d="M18.9961 20.1588C19.3587 20.1588 19.6525 19.846 19.6525 19.4601C19.6525 19.0743 19.3587 18.7615 18.9961 18.7615C18.6336 18.7615 18.3398 19.0743 18.3398 19.4601C18.3398 19.846 18.6336 20.1588 18.9961 20.1588Z" fill="#0E538C"/>
<path d="M17.6869 20.9666C18.0494 20.9666 18.3433 20.6538 18.3433 20.268C18.3433 19.8821 18.0494 19.5693 17.6869 19.5693C17.3244 19.5693 17.0305 19.8821 17.0305 20.268C17.0305 20.6538 17.3244 20.9666 17.6869 20.9666Z" fill="#0E538C"/>
</g>
<defs>
<linearGradient id="paint0_linear" x1="139.407" y1="63.3446" x2="124.877" y2="78.531" gradientUnits="userSpaceOnUse">
<stop stop-color="#DC108A" stop-opacity="0.99"/>
<stop offset="0.531082" stop-color="#E91E1E" stop-opacity="0.89"/>
<stop offset="0.9998" stop-color="#E4750E"/>
<stop offset="0.9999" stop-color="#751C5F" stop-opacity="0.102703"/>
<stop offset="0.9999" stop-color="#741D5F" stop-opacity="0.0735609"/>
<stop offset="1" stop-color="#814072" stop-opacity="0"/>
</linearGradient>
<clipPath id="clip0">
<rect width="150" height="150" fill="white"/>
</clipPath>
</defs>
</svg>
