<?xml version="1.0" encoding="UTF-8" standalone="no"?>
<svg
   xmlns:dc="http://purl.org/dc/elements/1.1/"
   xmlns:cc="http://creativecommons.org/ns#"
   xmlns:rdf="http://www.w3.org/1999/02/22-rdf-syntax-ns#"
   xmlns:svg="http://www.w3.org/2000/svg"
   xmlns="http://www.w3.org/2000/svg"
   xmlns:xlink="http://www.w3.org/1999/xlink"
   xmlns:sodipodi="http://sodipodi.sourceforge.net/DTD/sodipodi-0.dtd"
   xmlns:inkscape="http://www.inkscape.org/namespaces/inkscape"
   viewBox="0 0 64 64"
   width="64px"
   height="64px"
   version="1.1"
   id="svg8443"
   sodipodi:docname="whatsapp.svg"
   inkscape:version="0.92.5 (2060ec1f9f, 2020-04-08)">
  <metadata
     id="metadata8449">
    <rdf:RDF>
      <cc:Work
         rdf:about="">
        <dc:format>image/svg+xml</dc:format>
        <dc:type
           rdf:resource="http://purl.org/dc/dcmitype/StillImage" />
      </cc:Work>
    </rdf:RDF>
  </metadata>
  <defs
     id="defs8447">
    <linearGradient
       inkscape:collect="always"
       id="linearGradient8455">
      <stop
         style="stop-color:#23003d;stop-opacity:1"
         offset="0"
         id="stop8451" />
      <stop
         style="stop-color:#9537e2;stop-opacity:0.91764706"
         offset="1"
         id="stop8453" />
    </linearGradient>
    <linearGradient
       inkscape:collect="always"
       xlink:href="#linearGradient8455"
       id="linearGradient8457"
       x1="0.38480127"
       y1="0.49999952"
       x2="63.999809"
       y2="63.761536"
       gradientUnits="userSpaceOnUse" />
  </defs>
  <sodipodi:namedview
     pagecolor="#ffffff"
     bordercolor="#666666"
     borderopacity="1"
     objecttolerance="10"
     gridtolerance="10"
     guidetolerance="10"
     inkscape:pageopacity="0"
     inkscape:pageshadow="2"
     inkscape:window-width="1366"
     inkscape:window-height="704"
     id="namedview8445"
     showgrid="false"
     inkscape:zoom="8.125"
     inkscape:cx="31.260664"
     inkscape:cy="32"
     inkscape:window-x="0"
     inkscape:window-y="27"
     inkscape:window-maximized="1"
     inkscape:current-layer="svg8443" />
  <radialGradient
     id="AhngXQ8Zf2VLA52L6fLwQa"
     cx="32.5"
     cy="32.5"
     r="30.516001"
     gradientUnits="userSpaceOnUse"
     xlink:href="#AhngXQ8Zf2VLA52L6fLwQb">
    <stop
       offset="0"
       stop-color="#eed7a2"
       id="stop8399" />
    <stop
       offset=".106"
       stop-color="#f1dcab"
       id="stop8401" />
    <stop
       offset=".437"
       stop-color="#f8e8c3"
       id="stop8403" />
    <stop
       offset=".744"
       stop-color="#fcefd2"
       id="stop8405" />
    <stop
       offset="1"
       stop-color="#fef2d7"
       id="stop8407" />
  </radialGradient>
  <path
     fill="url(#AhngXQ8Zf2VLA52L6fLwQa)"
     d="M59,21h1.5c2.168,0,3.892-1.998,3.422-4.243C63.58,15.122,62.056,14,60.385,14L53,14 c-1.105,0-2-0.895-2-2c0-1.105,0.895-2,2-2h3.385c1.67,0,3.195-1.122,3.537-2.757C60.392,4.998,58.668,3,56.5,3H34.006H32.5h-24 C6.575,3,5,4.575,5,6.5S6.575,10,8.5,10H10c1.105,0,2,0.895,2,2c0,1.105-0.895,2-2,2l-5.385,0c-1.67,0-3.195,1.122-3.537,2.757 C0.608,19.002,2.332,21,4.5,21H18v12L4.615,33c-1.67,0-3.195,1.122-3.537,2.757C0.608,38.002,2.332,40,4.5,40H5 c1.105,0,2,0.895,2,2c0,1.105-0.895,2-2,2H4.5c-2.168,0-3.892,1.998-3.422,4.243C1.42,49.878,2.945,51,4.615,51H10 c1.105,0,2,0.895,2,2c0,1.105-0.895,2-2,2l-1.385,0c-1.67,0-3.195,1.122-3.537,2.757C4.608,60.002,6.332,62,8.5,62h22.494H32.5h23 c1.925,0,3.5-1.575,3.5-3.5S57.425,55,55.5,55H55c-1.105,0-2-0.895-2-2c0-1.105,0.895-2,2-2h4.385c1.67,0,3.195-1.122,3.537-2.757 C63.392,45.998,61.668,44,59.5,44H47V32h12.385c1.67,0,3.195-1.122,3.537-2.757C63.392,26.998,61.668,25,59.5,25H59 c-1.105,0-2-0.895-2-2C57,21.895,57.895,21,59,21z"
     id="path8410"
     style="fill-opacity:1;fill:url(#linearGradient8457)" />
  <path
     fill="#fff"
     d="M29.947,7.082C17.733,8.057,7.89,18.032,7.059,30.256c-0.309,4.552,0.603,8.865,2.44,12.647 L6.134,55.69c-0.507,1.926,1.25,3.683,3.176,3.176l13.598-3.579c3.66,1.43,7.733,2.034,11.999,1.546 c11.801-1.349,21.144-11.084,22.021-22.93C58.067,18.55,45.318,5.855,29.947,7.082z"
     id="path8412" />
  <linearGradient
     id="AhngXQ8Zf2VLA52L6fLwQb"
     x1="32.001"
     x2="32.001"
     y1="11"
     y2="53.984"
     gradientUnits="userSpaceOnUse">
    <stop
       offset="0"
       stop-color="#00d772"
       id="stop8414" />
    <stop
       offset=".996"
       stop-color="#00b26e"
       id="stop8416" />
    <stop
       offset="1"
       stop-color="#00b26e"
       id="stop8418" />
  </linearGradient>
  <path
     fill="url(#AhngXQ8Zf2VLA52L6fLwQb)"
     d="M13.556,43.205c0.122-0.462,0.074-0.952-0.135-1.382l-0.323-0.666 c-1.59-3.274-2.298-6.95-2.047-10.629c0.698-10.274,8.959-18.64,19.215-19.458C30.843,11.023,31.426,11,32,11 c5.817,0,11.428,2.447,15.391,6.715c4.018,4.326,5.988,9.97,5.55,15.894c-0.73,9.854-8.678,18.129-18.486,19.251 C33.638,52.953,32.812,53,32,53l0,0c-2.624,0-5.192-0.484-7.635-1.438l-0.607-0.237c-0.394-0.154-0.827-0.179-1.237-0.071 l-10.25,2.697c-0.741,0.195-1.416-0.481-1.222-1.222L13.556,43.205z"
     id="path8421" />
  <path
     fill="#fff"
     fill-rule="evenodd"
     d="M25.611,21.115c-0.479-1.06-0.983-1.082-1.44-1.101 C23.798,19.999,23.372,20,22.946,20c-0.426,0-1.119,0.16-1.706,0.797S19,22.974,19,26.107s2.292,6.16,2.612,6.584 c0.32,0.424,4.426,7.058,10.928,9.611c5.403,2.121,6.503,1.699,7.677,1.593c1.173-0.106,3.785-1.539,4.318-3.026 s0.533-2.761,0.374-3.026c-0.16-0.266-0.587-0.424-1.226-0.744c-0.295-0.147-1.928-0.949-3.717-1.813 c-0.826-0.399-1.818-0.186-2.405,0.519c-0.242,0.29-0.708,0.848-1.229,1.469c-0.592,0.706-1.587,0.917-2.415,0.513 c-1.27-0.62-3.141-1.649-4.601-2.945c-1.046-0.928-2.253-2.566-3.04-3.711c-0.529-0.77-0.462-1.8,0.169-2.489 c0.279-0.305,0.561-0.613,0.765-0.851c0.487-0.569,0.617-1.36,0.334-2.054C26.964,24.321,25.998,21.971,25.611,21.115z"
     clip-rule="evenodd"
     id="path8423" />
  <linearGradient
     id="AhngXQ8Zf2VLA52L6fLwQc"
     x1="43.455"
     x2="43.455"
     y1="11.14"
     y2="39.238"
     gradientUnits="userSpaceOnUse">
    <stop
       offset="0"
       stop-color="#00e67a"
       id="stop8425" />
    <stop
       offset=".996"
       stop-color="#00c177"
       id="stop8427" />
    <stop
       offset="1"
       stop-color="#00c177"
       id="stop8429" />
  </linearGradient>
  <path
     fill="url(#AhngXQ8Zf2VLA52L6fLwQc)"
     d="M52.91,30H44c-1.11,0-2-0.89-2-2.01v-0.05c0-1.07,0.87-1.94,1.94-1.94h0.56 c0.83,0,1.5-0.67,1.5-1.5S45.33,23,44.5,23h-8c-0.69,0-1.32-0.28-1.77-0.73C34.28,21.82,34,21.19,34,20.5c0-1.38,1.12-2.5,2.5-2.5 h1c0.83,0,1.5-0.67,1.5-1.5S38.33,15,37.5,15h-1c-0.69,0-1.32-0.28-1.77-0.73C34.28,13.82,34,13.19,34,12.5 c0-0.5,0.15-0.97,0.4-1.36c4.94,0.57,9.58,2.9,12.99,6.57C50.58,21.15,52.48,25.42,52.91,30z"
     id="path8432" />
  <linearGradient
     id="AhngXQ8Zf2VLA52L6fLwQd"
     x1="8.646"
     x2="41.95"
     y1="42.071"
     y2="54.192"
     gradientUnits="userSpaceOnUse">
    <stop
       offset="0"
       stop-color="#00c267"
       id="stop8434" />
    <stop
       offset=".996"
       stop-color="#009d61"
       id="stop8436" />
    <stop
       offset="1"
       stop-color="#009d61"
       id="stop8438" />
  </linearGradient>
  <path
     fill="url(#AhngXQ8Zf2VLA52L6fLwQd)"
     d="M29.998,50.402c0.038,1.011-0.521,1.894-1.358,2.328c-1.46-0.23-2.88-0.63-4.27-1.17 l-0.61-0.24c-0.4-0.15-0.83-0.17-1.24-0.07l-10.251,2.703c-0.741,0.195-1.417-0.481-1.222-1.222L13.56,43.2 c0.12-0.46,0.07-0.95-0.14-1.38l-0.32-0.66c-0.94-1.94-1.57-4.02-1.88-6.16h7.28c0.83,0,1.5,0.67,1.5,1.5S19.33,38,18.5,38 S17,38.67,17,39.5s0.67,1.5,1.5,1.5H23c1.206,0,2.163,1.062,1.972,2.316C24.821,44.308,23.893,45,22.89,45l-1.39,0 c-0.83,0-1.5,0.67-1.5,1.5c0,0.83,0.67,1.5,1.5,1.5h5.857C28.725,48,29.946,49.035,29.998,50.402z"
     id="path8441" />
</svg>
