<svg width="150" height="150" viewBox="0 0 150 150" fill="none" xmlns="http://www.w3.org/2000/svg">
<path opacity="0.5" d="M75 148.021C116.421 148.021 150 144.09 150 139.242C150 134.394 116.421 130.463 75 130.463C33.5786 130.463 0 134.394 0 139.242C0 144.09 33.5786 148.021 75 148.021Z" fill="#F7F7F7"/>
<path opacity="0.3" d="M19.1771 133.003C25.4088 133.003 30.4607 132.227 30.4607 131.271C30.4607 130.314 25.4088 129.538 19.1771 129.538C12.9453 129.538 7.89346 130.314 7.89346 131.271C7.89346 132.227 12.9453 133.003 19.1771 133.003Z" fill="#F7F7F7"/>
<path opacity="0.3" d="M81.7642 97.9292L14.2439 104.199V7.2002L81.7642 13.4703V97.9292Z" fill="#F7F7F7"/>
<path opacity="0.6" d="M35.2902 31.5076C35.593 34.4655 37.7451 36.9045 37.8628 39.8797C38.0035 43.4316 35.2927 46.1616 32.8996 48.4318C30.5417 50.6687 28.1936 53.1089 26.9334 56.3019C25.6733 59.4951 25.7686 63.6351 27.9347 66.1125C30.5094 69.0576 34.8917 68.7023 37.7979 71.2118C40.015 73.1265 40.9774 76.3394 42.4587 79.0272C45.64 84.8014 51.7214 88.3118 57.6734 87.81C59.316 87.6714 61.1021 87.1307 62.0211 85.5677C63.1301 83.6815 62.5269 81.0988 61.534 79.13C60.5412 77.1612 59.1768 75.3625 58.7442 73.1443C57.8252 68.4325 61.3728 64.2023 64.8306 61.4323C68.2884 58.6624 72.3336 55.7651 73.146 51.0279C74.0115 45.9806 70.7147 41.2298 67.1199 38.138C64.9822 36.2992 62.5552 34.607 61.3911 31.853C60.436 29.5934 60.4854 26.9435 59.7285 24.588C58.6811 21.3283 56.0019 18.8306 52.9964 18.3139C47.4745 17.3664 46.483 22.4994 42.5131 24.6988C39.5805 26.3231 34.6657 25.4092 35.2902 31.5076Z" fill="url(#paint0_linear)"/>
<path d="M91.5698 129.211C91.5213 130.107 91.4516 131.069 90.9533 131.762C90.3659 132.581 89.3625 132.789 88.4465 132.942C87.1116 133.167 85.7767 133.391 84.4418 133.615C84.3737 133.841 84.6044 134.03 84.8024 134.107C85.7893 134.489 86.8644 134.322 87.9007 134.199C89.1016 134.056 90.3085 133.977 91.5161 133.963C92.0534 133.957 92.6909 133.902 92.9637 133.373C93.1672 132.978 93.0741 132.482 93.0263 132.027C92.8809 130.639 93.2223 129.226 93.0488 127.843C93.0289 127.684 92.9838 127.499 92.8521 127.442C92.7851 127.413 92.7103 127.425 92.6401 127.442C91.6187 127.678 91.6265 128.162 91.5698 129.211Z" fill="#FFE3CA"/>
<path d="M91.9345 132.805C90.9398 133.5 89.9289 133.688 88.7724 133.523C88.7017 133.514 88.3135 133.416 88.2428 133.407C88.2017 133.153 88.2243 132.905 88.0421 132.913C87.2056 132.95 86.3708 133.03 85.5408 133.152C85.2771 133.191 84.2758 133.218 84.1702 133.453C84.076 133.662 84.1363 133.929 84.2692 134.108C84.402 134.287 84.5941 134.395 84.7864 134.479C85.7344 134.892 86.7819 134.843 87.7953 134.788C89.0417 134.721 90.2882 134.654 91.5346 134.586C91.9599 134.563 92.4076 134.532 92.7648 134.268C93.2902 133.878 93.4711 133.092 93.4837 132.376C93.5065 131.074 92.2937 132.555 91.9345 132.805Z" fill="#0F2736"/>
<path d="M87.9234 64.586C87.9234 64.586 90.7268 64.3996 90.721 64.3193C90.6561 63.3856 89.9182 62.0014 90.3015 61.1736C90.6845 60.3456 90.9776 59.877 91.3647 59.0516C91.4219 58.9295 91.4719 58.7629 91.3848 58.667C91.3133 58.588 91.1969 58.6142 91.1015 58.6466C90.5891 58.8207 90.0835 59.0218 89.5871 59.2493C88.7466 59.6341 87.9518 59.6245 87.9232 60.6408C87.8921 61.7575 87.9234 64.586 87.9234 64.586Z" fill="#FFE3CA"/>
<path d="M72.0431 131.604C71.8919 132.485 71.7122 133.428 71.1385 134.041C70.4621 134.764 69.4435 134.819 68.5179 134.834C67.1688 134.855 65.8197 134.877 64.4706 134.899C64.3771 135.112 64.584 135.335 64.7715 135.44C65.7058 135.967 66.7908 135.964 67.8323 135.997C69.0394 136.036 70.2449 136.139 71.4433 136.307C71.9765 136.382 72.6149 136.423 72.9463 135.939C73.1934 135.578 73.158 135.073 73.163 134.614C73.1784 133.217 73.6793 131.868 73.6661 130.471C73.6645 130.31 73.6414 130.12 73.5172 130.043C73.4541 130.005 73.3787 130.006 73.3071 130.011C72.2678 130.091 72.2198 130.572 72.0431 131.604Z" fill="#FFE3CA"/>
<path d="M59.6505 61.2628C59.6823 61.6074 59.2483 61.7036 59.1676 61.3697C58.0807 56.8828 55.568 45.5133 55.6035 43.9498C55.6256 42.9633 56.2419 42.2463 56.2419 42.2463H57.0223C57.0223 42.2463 57.6607 42.9763 57.7318 43.9498C57.781 44.6283 59.2366 56.7625 59.6505 61.2628Z" fill="#0F2736"/>
<path d="M87.9834 54.8031C87.6761 55.462 87.2972 56.2213 86.6499 56.3193C86.5465 56.335 86.4361 56.3334 86.3469 56.3951C86.1809 56.5099 86.1685 56.775 86.1756 56.9968C86.2024 57.8413 86.2291 58.6858 86.2559 59.5301C86.2803 60.3019 86.3675 61.2029 86.9453 61.6032C87.3596 61.8903 87.8855 61.8087 88.3611 61.7041C88.7418 61.6205 89.1237 61.5271 89.4806 61.354C90.5912 60.816 91.3328 59.5575 91.6774 58.2358C91.9485 57.195 92.0025 56.0341 91.5989 55.0507C90.8144 53.1399 88.8493 52.9464 87.9834 54.8031Z" fill="#FFE3CA"/>
<path d="M93.0248 88.8344C92.5188 88.918 92.0155 89.0205 91.514 89.1345C91.4253 89.0595 91.3059 89.0276 91.1944 89.0035C87.7046 88.2497 84.0952 88.4571 80.7739 89.8954C79.0583 95.8732 74.4634 117.45 73.5044 120.358C72.3707 123.796 72.237 127.704 71.5181 131.285C72.6415 131.568 72.5169 131.481 73.6663 131.529C77.68 120.671 79.9142 121.228 80.5057 113.996C80.6258 112.529 82.3153 110.054 83.0596 108.851C86.5864 103.149 92.5796 95.1785 93.51 93.4897C94.3416 91.9811 95.9966 88.3433 93.0248 88.8344Z" fill="#0F2736"/>
<path d="M59.8601 51.4411C59.8007 51.1799 59.7214 50.9035 59.5327 50.7409C59.2913 50.533 58.9469 50.5798 58.667 50.7101C58.3871 50.8403 58.1322 51.0429 57.84 51.1308C57.315 51.2889 56.6921 51.0745 56.2576 51.4463C56.0043 51.6634 55.8833 52.0637 55.9659 52.413C56.0084 52.5936 56.0983 52.7544 56.1648 52.9257C56.3916 53.5093 56.3507 54.2207 56.6809 54.7361C56.9315 55.1275 57.3467 55.3252 57.7407 55.5045C58.6958 55.9396 59.6509 56.3747 60.606 56.8098C60.6673 56.8377 60.738 56.8654 60.7972 56.8322C60.8473 56.804 60.8731 56.7407 60.8939 56.6816C61.2938 55.5437 61.1223 54.9936 60.6211 54.0725C60.1867 53.2742 60.0641 52.3369 59.8601 51.4411Z" fill="#FFE3CA"/>
<path d="M71.9914 135.222C70.9254 135.761 69.9017 135.796 68.7742 135.459C68.7054 135.438 68.3315 135.283 68.2625 135.264C68.2511 135.006 68.3018 134.763 68.1205 134.744C67.2873 134.654 66.4504 134.608 65.6132 134.605C65.3473 134.604 64.3517 134.48 64.22 134.696C64.1027 134.89 64.1318 135.163 64.2429 135.361C64.354 135.559 64.5322 135.694 64.713 135.806C65.6055 136.358 66.6493 136.467 67.6604 136.565C68.9036 136.686 70.1471 136.807 71.3903 136.928C71.8145 136.969 72.2619 137.005 72.6465 136.797C73.2123 136.489 73.4818 135.737 73.5767 135.03C73.7489 133.741 72.3763 135.027 71.9914 135.222Z" fill="#0F2736"/>
<path d="M95.6985 67.3279C94.3814 65.9837 92.8855 64.559 91.1203 64.588C90.532 64.5977 81.5235 62.2827 80.4774 62.1896C73.4873 61.5676 67.7885 55.1803 60.8366 54.1394C60.146 54.3915 59.918 55.4611 60.2 56.2248C60.4819 56.9886 61.1038 57.5052 61.7025 57.9727C67.9572 62.8582 74.5691 64.3597 81.3696 68.1745C79.8031 72.8074 83.0434 78.4092 82.7763 79.5581C82.4907 80.7872 79.9224 88.8908 80.2042 90.121C82.7384 91.0126 84.7572 91.1313 87.3998 91.3825C90.0424 91.6338 92.8723 91.0889 95.1136 89.4689C94.8678 87.9689 93.6923 86.5849 94.5911 86.0314C97.1644 84.1601 99.6625 82.7487 101.361 79.8522C101.689 79.2935 101.983 78.6879 102.071 78.0228C102.314 76.1897 97.5758 69.2439 95.6985 67.3279ZM94.1795 82.7717C94.5097 81.0822 95.4701 72.7901 95.4701 72.7901C96.2308 73.2424 99.7384 77.9794 99.7384 77.9794C99.7384 77.9794 94.9259 82.2023 94.1795 82.7717Z" fill="#369134"/>
<path d="M57.125 42.2087C56.6258 42.5206 55.9869 42.3828 55.5973 41.909C55.3716 41.6347 55.2093 41.2609 55.3631 40.808C55.7059 39.8001 56.3425 38.6245 56.0487 37.9526C55.7548 37.2806 55.7548 37.3368 55.7548 37.2806C55.7548 37.2247 57.3747 38.3223 57.6154 39.2403C58.1052 41.1071 57.6415 41.8858 57.125 42.2087Z" fill="#F7F7F7"/>
<path d="M59.222 48.5075C59.1515 48.3036 59.0551 48.0816 58.873 48.012C58.6554 47.9286 58.416 48.1203 58.3272 48.3624C58.2383 48.6045 58.26 48.8785 58.2833 49.1397C58.3476 49.8634 58.4118 50.5874 58.4761 51.3112C58.5127 51.7227 58.5927 52.2072 58.9227 52.3771C59.1685 52.5037 59.4762 52.3829 59.6464 52.1436C59.974 51.6835 59.757 51.1451 59.6912 50.6337C59.5974 49.9037 59.4598 49.1964 59.222 48.5075Z" fill="#FFE3CA"/>
<path d="M57.7798 40.1016C57.7476 39.8409 57.7 39.5617 57.6154 39.2393C57.3746 38.3213 55.7548 37.2237 55.7548 37.2796C55.7548 37.2985 55.7557 37.3063 55.7669 37.3317C55.7708 37.34 55.7747 37.3489 55.7788 37.3578C55.8095 37.4227 55.8799 37.5657 56.0484 37.9513C56.3281 38.5911 55.7669 39.6859 55.4166 40.6593C55.5191 40.7223 55.6311 40.7432 55.7448 40.6862C55.9823 40.567 56.1104 40.1615 56.3672 40.2028C56.7296 40.2611 56.5903 41.046 56.931 41.1984C57.1419 41.2928 57.3552 41.0528 57.4403 40.8128C57.5253 40.5728 57.5637 40.2912 57.7382 40.1262C57.7512 40.1147 57.7661 40.1102 57.7798 40.1016Z" fill="#FFBE55"/>
<path d="M93.6248 54.8735C93.0582 54.2224 92.3219 53.802 91.5778 53.4556C91.0009 53.187 90.3952 52.9533 89.7726 52.9677C89.15 52.9821 88.5019 53.2861 88.1724 53.8904C87.9209 54.3513 87.882 54.9315 87.9685 55.466C88.0247 55.8137 88.158 56.5691 88.3929 56.8266C88.5909 57.0434 88.9055 56.8956 89.0729 57.2138C89.1884 57.4335 89.1744 57.7124 89.1159 57.9598C89.0551 58.216 88.9437 58.4681 88.7546 58.6223C88.7015 58.6655 88.6419 58.6989 88.579 58.7212C88.2746 58.8292 88.0748 59.1581 88.1187 59.5189C88.1871 60.0813 88.3693 60.6259 88.6517 61.0929C88.7187 61.2035 88.7932 61.3091 88.8765 61.4038C88.8568 61.5648 88.8191 61.7272 88.7996 61.888C88.7418 62.366 88.9199 62.9404 89.3274 63.0656C89.1824 62.8813 89.0402 62.668 89.0326 62.4201C89.0251 62.1722 89.2217 61.9079 89.4317 61.9704C89.5995 62.0203 89.6823 62.2373 89.7086 62.4332C89.7689 62.8824 89.65 63.359 89.3912 63.7039C89.6665 63.5269 89.9503 63.3412 90.1371 63.0502C90.3383 62.7367 90.4071 62.3307 90.6143 62.0224C90.6589 61.9563 90.7096 61.8969 90.7627 61.8399C90.7867 61.8773 90.8114 61.9144 90.834 61.9523C91.0002 62.2297 91.0165 62.413 90.8868 62.8583C90.8651 62.9331 90.73 63.1925 90.73 63.1925C90.759 63.1624 91.4397 62.578 90.9664 61.6718C91.083 61.6475 91.1987 61.619 91.3117 61.5782C92.1582 61.2725 92.7739 60.4557 93.3426 59.6763C93.8459 58.9866 94.3697 58.2443 94.4687 57.3535C94.5703 56.4417 94.1914 55.5243 93.6248 54.8735Z" fill="#1A1917"/>
<path d="M93.1675 54.4233C92.2609 54.4568 91.5138 55.0184 91.5731 56.4277C91.5886 56.7964 91.6945 57.1528 91.7279 57.5198C91.8628 59.0008 90.8484 60.2435 90.2409 61.5602C90.0426 61.9901 89.8981 62.5609 90.1789 62.9253C90.1835 62.9314 90.1897 62.9347 90.1945 62.9405C90.3506 62.6453 90.43 62.2965 90.6145 62.0222C90.6591 61.9561 90.7099 61.8967 90.7629 61.8397C90.7869 61.8771 90.8116 61.9143 90.8343 61.9522C91.0005 62.2296 91.0167 62.4129 90.8871 62.8581C90.8654 62.9329 90.7302 63.1923 90.7302 63.1923C90.7593 63.1622 91.44 62.5779 90.9667 61.6716C91.0833 61.6473 91.199 61.6188 91.3119 61.578C92.1584 61.2724 92.7742 60.4556 93.3429 59.6761C93.8462 58.9864 94.37 58.2441 94.469 57.3533C94.5703 56.4421 94.1912 55.5246 93.6246 54.8736C93.4821 54.7094 93.3289 54.5603 93.1675 54.4233Z" fill="#1A1917"/>
<path d="M96.2037 56.6483C96.4615 55.275 95.6969 53.9227 94.496 53.6279C93.295 53.3331 92.1124 54.2073 91.8545 55.5806C91.5967 56.9539 92.3613 58.3061 93.5623 58.601C94.7632 58.8958 95.9458 58.0215 96.2037 56.6483Z" fill="#1A1917"/>
<path d="M89.3885 21.3856L77.9051 20.7552V0L89.3885 1.06389V21.3856Z" fill="#FF5555"/>
<path d="M18.1882 55.6949L10.1161 55.2517V40.6621L18.1882 41.4099V55.6949Z" fill="#2DE4D9"/>
<path d="M20.3004 63.7429L13.8204 63.387V51.675L20.3004 52.2754V63.7429Z" fill="#2A94F4"/>
<path d="M74.0688 20.4675L63.9521 20.8963V6.35352L74.0688 6.78206V20.4675Z" fill="#2A94F4"/>
<path d="M43.3271 108.077L33.2106 108.506V93.9631L43.3271 94.3919V108.077Z" fill="#FF557E"/>
<path opacity="0.5" d="M17.9742 101.261C17.7259 99.8707 17.4762 98.452 17.6221 97.0432C17.8105 95.2266 18.6412 93.5814 19.5679 92.09C20.13 91.1856 21.0602 90.2127 21.9378 90.6857C22.2817 90.8711 22.5151 91.2466 22.7017 91.6257C24.0293 94.3235 23.6744 97.6349 23.51 100.725C23.3971 102.848 23.3859 105.02 22.7648 107.025C22.557 107.696 22.2725 108.355 21.8163 108.84C21.3602 109.324 20.706 109.607 20.1023 109.433C18.7393 109.041 18.4041 106.915 18.3744 105.567C18.3412 104.06 18.2433 102.766 17.9742 101.261Z" fill="#F7F7F7"/>
<path d="M21.9759 116.607C22.7067 116.847 23.4874 117.199 23.8361 117.938C23.3792 118.715 22.8483 119.44 22.2544 120.097C21.3743 121.072 20.2196 121.942 18.9711 121.801C17.7103 121.658 16.7607 120.549 15.8134 119.632C14.9909 118.835 13.7687 118.324 13.0246 117.502C11.9906 116.359 13.3699 116.156 14.3234 116.003C16.8736 115.593 19.5073 115.794 21.9759 116.607Z" fill="#0F2736"/>
<path opacity="0.6" d="M18.3233 119.518C17.157 117.851 11.1746 115.256 9.83759 113.766C7.51328 111.174 6.15527 107.484 6.15962 103.771C6.16488 99.2995 8.03919 95.045 8.09293 90.5737C8.11762 88.5186 7.7552 86.4713 7.84346 84.4186C7.93195 82.3658 8.5882 80.1756 10.1177 79.096C12.3213 77.5405 15.405 79.0918 16.728 81.6371C18.051 84.1825 18.0446 87.3331 17.8089 90.2819C17.5731 93.2307 17.1508 96.2433 17.77 99.1183C18.7729 103.775 22.3283 107.262 23.4437 111.885C23.8717 113.659 19.8137 117.387 19.7691 119.227C19.7186 121.316 19.6363 124.06 18.8335 125.938C17.7071 128.572 20.6204 129.659 18.4082 126.716C16.9146 124.728 19.9989 121.914 18.3233 119.518Z" fill="#90C105"/>
<path d="M18.7612 121.928L18.579 121.891C19.337 117.011 18.4775 111.785 16.2206 107.553C15.9689 107.081 15.6943 106.609 15.4288 106.152C14.6813 104.866 13.908 103.537 13.5355 102.029C12.9808 99.7824 13.3681 97.4219 13.7427 95.1388C13.8408 94.5416 13.942 93.9241 14.0239 93.3217C14.6548 88.6859 14.0022 84.5399 12.1862 81.6473L12.3366 81.5239C14.181 84.4617 14.8453 88.6632 14.2068 93.3538C14.1243 93.9599 14.023 94.579 13.9244 95.178C13.5538 97.4371 13.1706 99.773 13.7136 101.971C14.0781 103.447 14.843 104.762 15.5827 106.035C15.8491 106.493 16.1248 106.967 16.3784 107.442C18.6588 111.718 19.5275 116.998 18.7612 121.928Z" fill="#0F2736"/>
<path d="M14.1418 92.2472C12.991 90.6795 11.9216 89.4812 10.6749 88.3614L10.7893 88.1951C12.0464 89.3241 13.1243 90.5317 14.2838 92.1107L14.1418 92.2472Z" fill="#0F2736"/>
<path d="M14.5204 104.134L14.3626 104.023C14.6539 103.482 15.0017 102.815 15.3492 102.147C15.6975 101.479 16.0455 100.81 16.3373 100.268L16.4951 100.379C16.2037 100.92 15.8559 101.588 15.5084 102.255C15.1604 102.924 14.8124 103.593 14.5204 104.134Z" fill="#0F2736"/>
<path d="M18.3515 113.63C17.8207 112.676 16.7687 112.383 15.7512 112.1L15.4763 112.023C13.9647 111.592 12.5273 110.895 11.2043 109.953L11.3024 109.773C12.6089 110.704 14.0284 111.392 15.5214 111.817L15.7953 111.894C16.7993 112.173 17.9371 112.49 18.5081 113.516L18.3515 113.63Z" fill="#0F2736"/>
<path d="M13.3765 97.7068C12.3567 96.5875 11.3929 95.3772 10.5117 94.1088L10.6567 93.9773C11.5326 95.2378 12.491 96.4411 13.5048 97.5538L13.3765 97.7068Z" fill="#0F2736"/>
<path d="M15.5592 84.2244L14.108 87.6389L14.2748 87.7316L15.726 84.317L15.5592 84.2244Z" fill="#0F2736"/>
<path d="M17.1972 109.108L17.0255 109.028C17.4414 107.855 17.9204 106.697 18.4493 105.586L18.6121 105.687C18.0865 106.792 17.6104 107.942 17.1972 109.108Z" fill="#0F2736"/>
<path d="M23.8807 117.972C20.1862 119.184 16.1065 118.787 12.644 116.879L14.6287 131.07H20.7691L23.8807 117.972Z" fill="#2A94F4"/>
<path d="M22.0409 125.716L22.302 124.617C22.1468 124.674 21.9906 124.726 21.8321 124.771C20.8919 125.034 19.9144 125.073 18.9469 125.037C17.3918 124.979 15.8239 124.715 14.3603 124.094C14.0973 123.982 13.8467 123.852 13.6 123.715L13.7646 124.893C13.8602 124.94 13.9558 124.986 14.0521 125.031C16.5893 126.193 19.4893 126.801 22.0409 125.716Z" fill="#F7F7F7"/>
<path d="M117.083 33.0672L116.344 32.9237C116.267 32.6392 116.168 32.3652 116.047 32.1035L116.483 31.4064C116.668 31.1094 116.639 30.7044 116.412 30.4476L115.757 29.6977C115.633 29.5568 115.47 29.4789 115.296 29.4789C115.16 29.4789 115.03 29.5267 114.92 29.6175L114.308 30.1155C114.071 29.972 113.822 29.8538 113.565 29.7657L113.441 28.9303C113.389 28.5703 113.118 28.3088 112.799 28.3088H111.872C111.553 28.3088 111.283 28.5706 111.23 28.9303L111.102 29.7858C110.855 29.874 110.616 29.9898 110.387 30.1307L109.781 29.6324C109.671 29.5419 109.539 29.494 109.403 29.494C109.229 29.494 109.064 29.572 108.943 29.7129L108.285 30.4628C108.06 30.7195 108.029 31.1245 108.214 31.4216L108.655 32.1286C108.533 32.3926 108.437 32.6669 108.362 32.9514L107.631 33.092C107.317 33.1524 107.088 33.462 107.088 33.827V34.8865C107.088 35.2512 107.317 35.5608 107.631 35.6212L108.38 35.7671C108.457 36.0487 108.558 36.3232 108.681 36.5849L108.248 37.2744C108.063 37.5714 108.091 37.9764 108.318 38.2332L108.974 38.9831C109.097 39.124 109.26 39.2022 109.434 39.2022C109.57 39.2022 109.7 39.1543 109.81 39.0639L110.429 38.5606C110.651 38.6939 110.884 38.8021 111.124 38.8876L111.247 39.7329C111.3 40.093 111.571 40.3547 111.89 40.3547H112.819C113.138 40.3547 113.408 40.093 113.461 39.7329L113.586 38.8876C113.835 38.7995 114.075 38.6863 114.304 38.548L114.913 39.0461C115.023 39.1366 115.156 39.1847 115.292 39.1847C115.466 39.1847 115.629 39.1067 115.752 38.9658L116.408 38.2159C116.632 37.9592 116.663 37.5542 116.478 37.2572L116.043 36.5575C116.164 36.2934 116.265 36.0191 116.34 35.7373L117.079 35.5963C117.394 35.5359 117.623 35.2264 117.623 34.8616V33.8022C117.627 33.4372 117.398 33.1276 117.083 33.0672ZM112.355 36.8511C111.139 36.8511 110.152 35.7232 110.152 34.3319C110.152 32.9407 111.139 31.8127 112.355 31.8127C113.572 31.8127 114.559 32.9407 114.559 34.3319C114.559 35.7232 113.572 36.8511 112.355 36.8511Z" fill="#64BFB4"/>
<path opacity="0.4" d="M109.506 18.2717L108.901 18.1543C108.838 17.9216 108.757 17.6972 108.658 17.4831L109.015 16.9126C109.166 16.6697 109.143 16.3381 108.957 16.1279L108.42 15.5143C108.32 15.399 108.186 15.3352 108.044 15.3352C107.932 15.3352 107.826 15.3744 107.736 15.4484L107.236 15.856C107.041 15.7386 106.838 15.6419 106.627 15.5697L106.526 14.8862C106.483 14.5916 106.261 14.3777 106 14.3777H105.242C104.981 14.3777 104.759 14.5918 104.716 14.8862L104.612 15.5864C104.41 15.6586 104.214 15.7532 104.027 15.8685L103.531 15.4607C103.441 15.3867 103.333 15.3475 103.221 15.3475C103.079 15.3475 102.944 15.4113 102.845 15.5266L102.307 16.1402C102.123 16.3502 102.098 16.6817 102.249 16.9249L102.609 17.5035C102.51 17.7197 102.431 17.944 102.37 18.1767L101.772 18.2921C101.515 18.3415 101.327 18.5948 101.327 18.8934V19.7604C101.327 20.059 101.514 20.3121 101.772 20.3618L102.384 20.4813C102.447 20.7119 102.53 20.9362 102.631 21.1506L102.276 21.7149C102.125 21.9578 102.148 22.2893 102.334 22.4995L102.87 23.1132C102.971 23.2285 103.105 23.2923 103.247 23.2923C103.358 23.2923 103.465 23.2531 103.555 23.1791L104.061 22.7673C104.243 22.8763 104.434 22.9649 104.63 23.035L104.731 23.7268C104.774 24.0212 104.996 24.2354 105.257 24.2354H106.017C106.278 24.2354 106.5 24.0212 106.543 23.7268L106.645 23.035C106.849 22.9628 107.045 22.8703 107.233 22.7571L107.731 23.1647C107.821 23.2387 107.93 23.2779 108.041 23.2779C108.183 23.2779 108.317 23.2141 108.417 23.0988L108.954 22.4851C109.138 22.2752 109.163 21.9436 109.012 21.7005L108.655 21.1279C108.754 20.9117 108.837 20.6873 108.898 20.4567L109.503 20.3414C109.761 20.292 109.948 20.0386 109.948 19.74V18.873C109.951 18.5742 109.764 18.3208 109.506 18.2717ZM105.637 21.3679C104.641 21.3679 103.834 20.4449 103.834 19.3063C103.834 18.1676 104.641 17.2446 105.637 17.2446C106.633 17.2446 107.44 18.1676 107.44 19.3063C107.44 20.4449 106.633 21.3679 105.637 21.3679Z" fill="#2A94F4"/>
<path opacity="0.4" d="M104.941 27.9548H88.7095V40.8978H97.3605L96.4409 44.2108L100.201 40.8978H104.941V27.9548Z" fill="#2A94F4"/>
<path d="M94.1705 34.6459C94.1705 35.0441 93.8883 35.3667 93.5401 35.3667C93.1918 35.3667 92.9097 35.0441 92.9097 34.6459C92.9097 34.2477 93.1918 33.925 93.5401 33.925C93.8881 33.925 94.1705 34.2477 94.1705 34.6459Z" fill="#F7F7F7"/>
<path d="M97.3225 34.6459C97.3225 35.0441 97.0403 35.3667 96.6921 35.3667C96.3438 35.3667 96.0616 35.0441 96.0616 34.6459C96.0616 34.2477 96.3438 33.925 96.6921 33.925C97.0401 33.925 97.3225 34.2477 97.3225 34.6459Z" fill="#F7F7F7"/>
<path d="M100.475 34.6459C100.475 35.0441 100.192 35.3667 99.8441 35.3667C99.4959 35.3667 99.2137 35.0441 99.2137 34.6459C99.2137 34.2477 99.4959 33.925 99.8441 33.925C100.192 33.925 100.475 34.2477 100.475 34.6459Z" fill="#F7F7F7"/>
<path d="M55.6767 150C55.5933 150 55.5217 149.971 55.4622 149.912C55.403 149.854 55.3733 149.771 55.3733 149.663C55.3733 149.566 55.4037 149.486 55.4645 149.423C55.5254 149.36 55.5962 149.328 55.6767 149.328C55.7545 149.328 55.8233 149.357 55.8834 149.414C55.9436 149.471 55.9737 149.554 55.9737 149.663C55.9737 149.768 55.9443 149.851 55.8855 149.91C55.827 149.97 55.7574 150 55.6767 150Z" fill="#F7F7F7"/>
<path d="M90.2866 149.998C90.2027 149.998 90.1318 149.968 90.0731 149.909C90.0129 149.85 89.9832 149.768 89.9832 149.661C89.9832 149.564 90.0136 149.484 90.0749 149.421C90.1355 149.359 90.2062 149.326 90.2866 149.326C90.3653 149.326 90.4339 149.355 90.4936 149.411C90.5537 149.469 90.5839 149.552 90.5839 149.661C90.5839 149.767 90.5544 149.85 90.4963 149.909C90.4378 149.968 90.3681 149.998 90.2866 149.998Z" fill="#F7F7F7"/>
<path d="M76.0699 148.918C76.1858 148.918 76.2715 148.928 76.3696 148.947L76.3973 148.745C76.3973 148.745 76.1261 148.65 75.7699 148.683L75.742 148.574C75.8526 148.547 75.9359 148.434 75.9359 148.3C75.9359 148.146 75.8261 148.021 75.6912 148.021C75.5563 148.021 75.4468 148.146 75.4468 148.3C75.4468 148.434 75.5298 148.547 75.6402 148.574L75.6711 148.696C75.2927 148.755 74.9915 148.924 74.9915 148.924L75.0448 149.111C75.2737 149.024 75.4722 148.971 75.6523 148.949C75.8289 148.927 75.9617 148.918 76.0699 148.918Z" fill="#F7F7F7"/>
<path d="M119.411 75.6923C119.321 75.601 119.226 75.5113 119.113 75.4627C118.979 75.4054 118.833 75.4094 118.691 75.4154C118.492 75.424 118.293 75.4355 118.095 75.4499C118.002 75.4567 117.89 75.4779 117.853 75.5762C117.813 75.6821 117.89 75.7966 117.97 75.8674C118.215 76.086 118.53 76.1799 118.778 76.3946C119.027 76.6095 119.194 76.9348 119.457 77.1246C119.534 77.1795 119.62 77.2229 119.71 77.2192C119.799 77.2156 119.882 77.1667 119.96 77.1188C120.306 76.9089 120.285 76.7852 120.048 76.4508C119.856 76.1809 119.646 75.9153 119.411 75.6923Z" fill="#F7F7F7"/>
<path d="M108.56 87.2097L111.811 61.0883L120.582 59.7117L125.144 87.0209L108.56 87.2097Z" fill="#FCD2B1"/>
<path d="M115.339 127.686L115.33 130.63C115.328 131.229 115.399 131.825 115.542 132.402L115.765 133.308C115.949 134.053 115.46 134.792 114.783 134.789C113.03 134.782 110.032 134.787 109.26 134.789C109.133 134.789 109.009 134.691 108.999 134.547C108.933 133.688 111.105 133.112 112.74 132.388C113.986 131.837 113.919 129.277 113.766 127.781C113.708 127.217 114.12 126.736 114.616 126.783C115.026 126.822 115.341 127.215 115.339 127.686Z" fill="#FCD2B1"/>
<path d="M127.393 126.86L128.28 130.228C128.319 130.377 128.378 130.518 128.454 130.647L129.083 131.715C129.482 132.393 129.194 133.319 128.511 133.558C128.511 133.558 127.243 134.068 125.935 134.559C124.597 135.062 122.914 134.641 122.914 134.238C122.914 133.341 123.646 134.053 124.871 133.116C125.282 132.802 125.705 132.473 126.083 132.134C127.138 131.188 126.217 128.791 125.571 127.442C125.339 126.956 125.586 126.354 126.059 126.239L126.364 126.164C126.813 126.055 127.26 126.357 127.393 126.86Z" fill="#FCD2B1"/>
<path d="M118.331 87.4629L108.611 86.5303C108.611 86.5303 107.633 94.6192 110.089 109.262C111.241 116.128 113.642 129.25 113.642 129.25C114.237 129.548 114.842 129.622 115.458 129.447C115.458 129.447 115.64 123.659 115.752 117.426C115.859 111.448 115.888 105.06 116.22 102.97C116.901 98.7009 118.331 87.4629 118.331 87.4629Z" fill="#222F37"/>
<path d="M116.324 87.6037C115.321 93.7617 113.079 102.97 117.397 111.621C121.715 120.271 126.25 129.265 126.25 129.265C126.835 129.292 127.365 129.05 127.857 128.622C127.857 128.622 127.1 124.701 126.006 120.121C124.754 114.883 123.168 108.721 123.619 105.508C124.466 99.487 125.439 91.4682 125.144 87.5739C124.849 83.6797 116.852 84.3655 116.324 87.6037Z" fill="#222F37"/>
<path d="M108.224 86.5446L111.811 61.0883L120.582 59.7117L125.296 86.5919C125.384 87.097 125.098 87.5875 124.656 87.6835C123.023 88.0373 119.084 88.7767 114.675 88.7767C111.385 88.7767 109.535 88.0451 108.694 87.5818C108.353 87.3938 108.164 86.9718 108.224 86.5446Z" fill="#F7F7F7"/>
<path d="M115.415 49.064C117.373 49.064 118.103 50.6573 118.14 53.6048C118.154 54.7087 117.72 55.8024 117.37 56.5007C117.111 57.0195 117.04 57.6339 117.188 58.2073L117.618 59.8707C117.91 61.4139 117.269 62.2602 116.323 62.5677C115.854 62.7199 115.292 62.602 114.883 62.2994C114.396 61.9399 114.356 61.1665 114.447 60.5121L114.558 60.0378C114.707 59.3988 114.384 58.7101 113.818 58.5686C112.311 58.1916 112.095 56.3951 111.691 53.6048C111.271 50.6965 113.458 49.064 115.415 49.064Z" fill="#FCD2B1"/>
<path d="M117.061 53.6591C117.061 54.3426 117.284 54.8966 117.859 54.8966C118.435 54.8966 118.804 53.9567 118.804 53.2735C118.804 52.59 118.435 52.4219 117.859 52.4219C117.284 52.4219 117.061 52.9757 117.061 53.6591Z" fill="#FCD2B1"/>
<path d="M117.299 56.6589C117.299 56.6589 115.837 58.9572 114.018 58.6458C114.018 58.6458 114.396 58.8524 114.488 59.1881C114.488 59.1878 116.216 59.0419 117.299 56.6589Z" fill="#FCD2B1"/>
<path d="M109.858 62.2632C109.886 62.31 109.914 62.3568 109.942 62.4036C110.578 61.562 111.171 60.6783 111.719 59.7584C111.86 59.521 112.002 59.2684 112.025 58.9827C112.055 58.6213 111.889 58.2806 111.73 57.9669C111.546 57.6063 111.373 57.1336 111.19 56.773C111.486 56.373 111.783 55.973 112.08 55.5732C112.201 55.4106 112.324 55.243 112.387 55.0419C112.449 54.8408 112.438 54.5958 112.312 54.4392C112.185 54.2826 112.003 54.2368 111.863 54.3783C111.215 55.0335 108.369 60.5313 108.296 61.3055C108.252 61.7756 108.229 62.315 108.52 62.6505C108.873 63.057 109.49 62.6523 109.858 62.2632Z" fill="#FCD2B1"/>
<path d="M112.521 50.4C112.521 50.4 114.88 50.976 115.795 50.2243C115.795 50.2243 116.249 51.8652 116.802 52.2979C117.355 52.7306 117.534 52.1952 118.08 52.4326C118.08 52.4326 118.509 49.636 116.566 48.7862C114.622 47.9365 113.45 46.8906 113.45 46.8906L114.308 47.9038L112.907 47.4462L113.593 48.1979L110.907 48.0345L111.639 48.4267L110.335 49.5053L112.094 49.4072L110.192 50.6492L112.094 50.2243L111.335 50.8126L112.521 50.4Z" fill="#161616"/>
<path d="M102.735 73.5046C102.652 73.4405 102.55 73.3764 102.457 73.4196C102.392 73.4499 102.353 73.5247 102.311 73.5882C101.843 74.2777 100.688 73.8173 100.248 74.5303C100.068 74.8226 100.086 75.2294 100.218 75.5534C100.35 75.8773 100.58 76.1349 100.811 76.3746C101.408 76.9912 102.984 77.2116 102.984 77.2116L104.969 77.8862L105.061 76.9059L104.106 76.0585C104.106 76.0585 104.352 75.4681 104.286 75.3575C103.803 74.5423 103.13 73.8113 102.735 73.5046Z" fill="#FCD2B1"/>
<path d="M102.837 73.4763C102.757 73.3733 102.671 73.2713 102.564 73.2075C102.438 73.1324 102.292 73.1162 102.15 73.1029C101.952 73.0843 101.753 73.0687 101.555 73.0561C101.461 73.0501 101.349 73.0561 101.302 73.1487C101.251 73.2483 101.316 73.3725 101.387 73.4538C101.608 73.704 101.911 73.8405 102.135 74.0873C102.359 74.3347 102.491 74.6801 102.733 74.9047C102.803 74.9698 102.885 75.0247 102.975 75.0333C103.063 75.0417 103.15 75.0043 103.233 74.9677C103.599 74.8064 103.59 74.6806 103.39 74.3164C103.228 74.022 103.046 73.7294 102.837 73.4763Z" fill="#FCD2B1"/>
<path d="M117.842 61.2973C117.842 63.1312 118.134 64.9473 118.681 66.6709C119.753 70.0427 121.361 76.4187 120.405 82.036C119.03 90.1249 117.261 93.395 119.554 95.2802C121.846 97.1653 126.243 94.0196 126.37 92.9712C126.497 91.9227 125.514 79.0417 124.401 73.461C123.287 67.8804 120.168 59.8579 120.168 59.8579L118.847 60.0192C118.276 60.0888 117.842 60.6402 117.842 61.2973Z" fill="#74A60A"/>
<path d="M114.191 60.7148C114.191 60.7148 112.669 64.4742 113.2 69.8752C113.731 75.2762 114.96 91.723 110.662 94.2066C109.301 94.9931 106.193 91.5104 106.193 90.2183C106.193 88.9261 107.23 84.601 108.213 80.6689C109.196 76.7367 111.565 61.1269 111.565 61.1269L114.191 60.7148Z" fill="#74A60A"/>
<path d="M112.094 61.0454C112.094 61.0454 110.033 61.4551 104.657 69.1398C102.327 74.7751 102.165 72.6442 102.165 72.6442C102.165 72.6442 102.692 76.2317 104.215 75.412C105.738 74.5923 110.481 68.8326 110.481 68.8326L112.094 61.0454Z" fill="#74A60A"/>
<path d="M103.362 69.0427C102.731 70.1976 101.956 71.2335 101.91 72.5947C101.864 73.9559 102.686 75.4572 103.877 75.4962C104.863 75.5283 105.763 73.0468 105.763 73.0468L110.033 62.3255L108.199 61.533C108.199 61.5324 104.358 67.2214 103.362 69.0427Z" fill="#74A60A"/>
<path d="M120.168 59.8577C122.448 60.6831 125.525 63.874 125.287 66.5948C124.895 71.0613 124.071 77.5349 122.452 80.6032C121.723 81.986 119.722 81.4798 118.32 81.2851C114.206 80.714 106.067 79.4838 102.469 77.1328C102.609 76.4524 102.613 75.8652 102.933 75.2698C106.642 75.0853 115.291 75.524 118.843 76.7597L119.771 70.6979" fill="#74A60A"/>
<path d="M130.293 131.713C130.293 131.713 128.36 133.201 127.037 133.468C125.714 133.735 125.247 133.468 125.247 133.468C125.247 133.468 124.001 133.395 123.709 134.197C123.417 134.998 125.506 135.815 127.001 135.465C128.497 135.115 130.598 133.631 130.598 133.631C130.598 133.631 131.156 131.649 130.293 131.713Z" fill="#0F2736"/>
<path d="M116.576 132.982C116.576 132.982 114.422 133.998 113.078 133.956C111.735 133.915 111.324 133.546 111.324 133.546C111.324 133.546 110.117 133.19 109.69 133.907C109.264 134.625 111.167 135.905 112.693 135.904C114.219 135.904 116.539 134.931 116.539 134.931C116.539 134.931 117.433 133.117 116.576 132.982Z" fill="#0F2736"/>
<path d="M94.5129 90.1484C94.5129 90.1484 93.609 97.7701 93.2702 103.583C92.9313 109.396 94.6259 121.927 94.5129 125.285C94.4 128.644 93.7222 130.582 93.7222 130.582H91.1237C91.1237 130.582 87.9605 114.951 87.8475 111.592C87.7345 108.234 85.814 91.0528 85.814 91.0528L94.5129 90.1484Z" fill="#0F2736"/>
<defs>
<linearGradient id="paint0_linear" x1="53.3957" y1="18.652" x2="47.5429" y2="87.6745" gradientUnits="userSpaceOnUse">
<stop stop-color="#F2DA00"/>
<stop offset="0.241921" stop-color="#DFF74A" stop-opacity="0.995983"/>
<stop offset="0.463818" stop-color="#47F11C" stop-opacity="0.993287"/>
<stop offset="0.58093" stop-color="#23E683" stop-opacity="0.992886"/>
<stop offset="0.901964" stop-color="#5599FF" stop-opacity="0.99"/>
</linearGradient>
</defs>
</svg>
