<svg width="100" height="100" viewBox="0 0 100 100" fill="none" xmlns="http://www.w3.org/2000/svg">
<path d="M86.649 28.192C84.9794 28.0235 83.7959 29.5199 82.0949 29.7477C81.402 29.8396 80.6831 29.7967 80.0358 30.1246C79.0322 30.6353 78.4387 31.9019 78.1674 33.1307C77.9767 33.9929 77.8747 34.9428 77.3411 35.5975C76.8585 36.189 76.1397 36.3902 75.5506 36.8233C73.9033 38.0409 73.59 40.6159 73.3214 42.6088C73.1907 43.573 73.1155 44.5649 73.333 45.4974C73.3465 45.5536 73.6365 46.3667 73.6365 46.3667L78.0376 40.2196C80.9078 36.2104 83.7386 32.1502 86.6544 28.189L86.649 28.192Z" fill="#0E538C"/>
<path d="M86.6491 28.192C86.5989 28.2625 86.8075 29.4719 86.7896 29.7242C86.7467 30.411 86.5219 31.0668 86.145 31.6047C85.7368 32.2073 85.2498 32.857 85.2793 33.6006C85.3053 34.2267 85.7001 34.7242 85.8227 35.3279C85.9946 36.1757 85.6052 37.0786 85.1477 37.8151C84.2919 39.1951 83.1737 40.2584 81.9033 41.0633C80.7198 41.812 80.3644 42.7589 79.6491 44.0613C78.8021 45.6037 77.5748 45.8131 76.2193 46.2155C75.6007 46.3994 75.0609 46.6139 74.4109 46.5526C74.3626 46.5526 73.6338 46.3718 73.6338 46.3718L86.6491 28.192Z" fill="#0B4870"/>
<path d="M73.5685 46.4576C73.5491 46.4371 73.5374 46.4089 73.5359 46.3788C73.5344 46.3487 73.5432 46.3191 73.5604 46.2962L86.5757 28.1144C86.5836 28.1026 86.5934 28.0927 86.6047 28.0853C86.616 28.0779 86.6284 28.0731 86.6413 28.0712C86.6542 28.0693 86.6673 28.0703 86.6799 28.0742C86.6924 28.0781 86.7042 28.0848 86.7144 28.094C86.7338 28.1144 86.7455 28.1427 86.747 28.1728C86.7485 28.2029 86.7397 28.2325 86.7225 28.2554L73.7072 46.4372C73.6993 46.449 73.6895 46.4589 73.6782 46.4663C73.6669 46.4737 73.6545 46.4785 73.6416 46.4804C73.6287 46.4823 73.6156 46.4813 73.603 46.4773C73.5905 46.4734 73.5787 46.4667 73.5685 46.4576Z" fill="#F5FAFA"/>
<path d="M76.9203 41.7773C76.9143 41.7709 76.9089 41.7637 76.9042 41.7559C76.89 41.7301 76.8848 41.6991 76.8898 41.6692C76.8948 41.6392 76.9095 41.6125 76.9311 41.5945C77.1003 41.4505 81.1101 38.0797 83.5676 38.6609C83.5805 38.6633 83.5928 38.669 83.6036 38.6774C83.6144 38.6858 83.6234 38.6969 83.6301 38.7097C83.6367 38.7226 83.6408 38.7369 83.6421 38.7518C83.6434 38.7666 83.6418 38.7816 83.6374 38.7957C83.6314 38.8255 83.6156 38.8515 83.5933 38.8684C83.571 38.8853 83.5438 38.8919 83.5175 38.8866C81.145 38.3248 77.0806 41.7467 77.0403 41.7773C77.0232 41.7927 77.0021 41.8011 76.9803 41.8011C76.9585 41.8011 76.9374 41.7927 76.9203 41.7773V41.7773Z" fill="#F5FAFA"/>
<path d="M80.8245 36.3228C80.8093 36.3077 80.7986 36.2876 80.7938 36.2653C80.789 36.243 80.7903 36.2196 80.7977 36.1982C80.8093 36.1614 81.9544 32.5209 80.5443 31.1737C80.5249 31.1532 80.5132 31.1249 80.5117 31.0948C80.5102 31.0647 80.519 31.0351 80.5363 31.0123C80.5441 31.0005 80.5539 30.9906 80.5651 30.9832C80.5763 30.9758 80.5886 30.971 80.6014 30.9691C80.6143 30.9672 80.6273 30.9683 80.6398 30.9722C80.6523 30.9761 80.6639 30.9827 80.6741 30.9918C82.1871 32.4402 81.0322 36.1113 80.9812 36.2666C80.9726 36.2954 80.9546 36.3194 80.9309 36.3334C80.9072 36.3475 80.8797 36.3506 80.8541 36.3422C80.8433 36.3377 80.8333 36.3312 80.8245 36.3228V36.3228Z" fill="#F5FAFA"/>
<path d="M98.4431 38.2298C97.9776 39.906 97.1898 42.2646 95.829 43.1563C95.1799 43.5822 94.4234 43.8897 93.8541 44.4964C93.1978 45.1961 93.1011 46.1205 92.5604 46.8774C90.367 49.9499 87.4064 46.7855 85.2659 48.9152C84.7413 49.4362 84.3876 50.1767 83.8693 50.7079C83.205 51.3892 82.3294 51.6578 81.5174 51.6445C80.0313 51.62 78.5425 51.0398 77.2811 50.2921C76.427 49.7814 75.5094 49.6343 74.7896 48.8284C74.7538 48.7875 74.2525 48.0674 74.2525 48.0684L98.4431 38.2298Z" fill="#2A94F4"/>
<path d="M98.4423 38.2298C97.9723 38.4137 96.9266 37.1451 96.5703 36.8958C95.7117 36.2932 94.6697 35.8325 93.6231 35.762C92.9239 35.715 92.1531 35.9367 91.5882 36.5434C91.3778 36.7702 91.1925 37.0541 90.94 37.191C90.5676 37.3953 90.1585 37.2298 89.8657 36.9622C88.7914 35.9877 87.8407 35.2707 86.3348 36.284C85.2005 37.047 83.7064 38.4903 82.8514 39.6496C82.5479 40.0582 82.2561 40.5281 81.8478 40.7538C81.4781 40.9581 81.077 40.9336 80.684 40.9683C78.4154 41.1726 75.5971 43.5414 74.7538 46.1879C74.7252 46.2788 74.2167 48.0797 74.2471 48.0684L98.4423 38.2298Z" fill="#2A94F4"/>
<path d="M74.1271 48.1175C74.1298 48.1355 74.1361 48.1526 74.1453 48.1675C74.1546 48.1824 74.1666 48.1948 74.1806 48.2037C74.1946 48.2126 74.2102 48.2178 74.2262 48.219C74.2422 48.2202 74.2582 48.2172 74.273 48.2104L98.4682 38.3708C98.5009 38.3567 98.5283 38.33 98.5456 38.2953C98.5629 38.2606 98.5691 38.2201 98.5631 38.1808C98.5604 38.1628 98.5541 38.1457 98.5449 38.1308C98.5356 38.1158 98.5236 38.1035 98.5096 38.0946C98.4956 38.0856 98.48 38.0804 98.464 38.0793C98.448 38.0781 98.432 38.081 98.4171 38.0878L74.2229 47.9275C74.1899 47.9413 74.1622 47.9679 74.1447 48.0026C74.1272 48.0373 74.121 48.078 74.1271 48.1175V48.1175Z" fill="#F5FAFA"/>
<path d="M80.3581 45.5843C80.3601 45.5964 80.3637 45.6082 80.3688 45.619C80.3765 45.6352 80.3871 45.6492 80.4001 45.6602C80.413 45.6712 80.4278 45.6789 80.4436 45.6827C80.4593 45.6865 80.4756 45.6863 80.4913 45.6822C80.507 45.6781 80.5217 45.6701 80.5344 45.6589C80.7627 45.4842 86.1298 41.3534 86.9418 37.5138C86.9468 37.4961 86.9484 37.4774 86.9464 37.4589C86.9445 37.4404 86.9391 37.4226 86.9306 37.4067C86.9221 37.3908 86.9107 37.3772 86.8972 37.3668C86.8837 37.3564 86.8684 37.3494 86.8523 37.3463C86.8177 37.3433 86.7833 37.3548 86.7556 37.3787C86.7279 37.4026 86.7088 37.4372 86.7019 37.476C85.9176 41.1829 80.4763 45.3688 80.4216 45.4106C80.3975 45.4295 80.3786 45.4559 80.3673 45.4867C80.356 45.5175 80.3528 45.5514 80.3581 45.5843Z" fill="#F5FAFA"/>
<path d="M87.615 42.6323C87.6192 42.6603 87.6317 42.6858 87.6505 42.7044C87.6692 42.723 87.6931 42.7336 87.718 42.7344C87.7583 42.7344 91.795 42.8754 92.2838 45.5802C92.2865 45.5982 92.2927 45.6153 92.3019 45.6302C92.3112 45.6451 92.3233 45.6575 92.3373 45.6663C92.3514 45.6751 92.3669 45.6802 92.3829 45.6813C92.3989 45.6823 92.4149 45.6791 92.4297 45.6721C92.4626 45.6582 92.4902 45.6316 92.5077 45.5969C92.5252 45.5622 92.5315 45.5216 92.5255 45.4821C92.0045 42.5812 87.9311 42.4392 87.7574 42.4352C87.7226 42.4363 87.6894 42.4518 87.6638 42.4786C87.6381 42.5054 87.6218 42.5418 87.6177 42.5812C87.6142 42.5979 87.6133 42.6152 87.615 42.6323V42.6323Z" fill="#F5FAFA"/>
<path d="M77.7189 46.9101C77.723 46.9381 77.7355 46.9636 77.7543 46.9822C77.7731 47.0009 77.797 47.0115 77.8218 47.0123C77.8621 47.0123 81.8988 47.1532 82.3877 49.858C82.3903 49.8761 82.3965 49.8932 82.4058 49.9081C82.4151 49.923 82.4272 49.9353 82.4412 49.9441C82.4552 49.953 82.4708 49.9581 82.4868 49.9591C82.5028 49.9601 82.5188 49.957 82.5336 49.95C82.5666 49.9362 82.5942 49.9096 82.6118 49.8748C82.6293 49.8401 82.6355 49.7994 82.6294 49.76C82.1083 46.859 78.0349 46.7171 77.8621 46.713C77.8273 46.7141 77.7939 46.7295 77.7681 46.7563C77.7424 46.7831 77.7258 46.8196 77.7216 46.859C77.7181 46.8758 77.7172 46.893 77.7189 46.9101V46.9101Z" fill="#F5FAFA"/>
<path d="M95.821 55.1757C95.0994 53.4495 93.3662 53.046 92.3375 51.4903C91.9168 50.854 91.5855 50.1257 91.0072 49.6517C90.1164 48.9204 88.8586 48.9806 87.7896 49.3361C87.0421 49.5853 86.2677 49.9663 85.5067 49.7723C84.8156 49.5976 84.299 48.9919 83.6723 48.6333C81.9185 47.6282 79.8129 48.6221 78.171 49.3678C77.376 49.7283 76.5882 50.1563 75.9937 50.8427C75.9579 50.8836 75.4915 51.5813 75.4906 51.5813L82.3635 52.7968C86.8478 53.5894 91.3492 54.3177 95.8201 55.1788L95.821 55.1757Z" fill="#FFB750"/>
<path d="M95.8219 55.1757C95.7431 55.1614 94.9347 55.9796 94.7359 56.095C94.1948 56.4006 93.5851 56.5117 92.9875 56.4137C92.325 56.3177 91.5873 56.1665 91.0412 56.573C90.581 56.9152 90.4056 57.5557 90.0116 57.9816C89.4575 58.5802 88.5792 58.6548 87.7896 58.5782C86.3133 58.4352 84.9427 57.8744 83.692 57.0327C82.5282 56.2472 81.633 56.3769 80.2838 56.333C78.6894 56.2819 77.9096 55.1808 76.9185 54.0511C76.4709 53.5352 76.0304 53.1134 75.7475 52.4423C75.7261 52.3933 75.4915 51.5863 75.4906 51.5863L95.8219 55.1757Z" fill="#FFB750"/>
<path d="M75.3894 51.5638C75.3947 51.5342 75.4099 51.508 75.4318 51.491C75.4537 51.474 75.4806 51.4675 75.5067 51.4729L95.8371 55.0674C95.8504 55.0687 95.8633 55.073 95.8751 55.0801C95.8869 55.0872 95.8973 55.097 95.9056 55.1089C95.914 55.1207 95.9202 55.1344 95.9238 55.149C95.9274 55.1637 95.9283 55.179 95.9266 55.1941C95.9212 55.2236 95.9059 55.2495 95.884 55.2663C95.8621 55.2831 95.8353 55.2894 95.8093 55.284L75.4745 51.6854C75.4492 51.6818 75.4262 51.6671 75.4103 51.6444C75.3944 51.6217 75.3869 51.5928 75.3894 51.5638Z" fill="#F5FAFA"/>
<path d="M80.6249 52.4893C80.6269 52.48 80.6292 52.4708 80.632 52.4617C80.6443 52.4345 80.6653 52.4138 80.6906 52.4037C80.7159 52.3936 80.7437 52.395 80.7681 52.4076C80.9624 52.5015 85.5416 54.7375 86.3474 57.4494C86.3513 57.4634 86.3527 57.4782 86.3514 57.4929C86.3501 57.5075 86.3462 57.5217 86.3399 57.5345C86.3336 57.5474 86.325 57.5586 86.3148 57.5675C86.3045 57.5764 86.2927 57.5828 86.2802 57.5863C86.2547 57.5953 86.2271 57.5927 86.2031 57.5793C86.1792 57.5658 86.1606 57.5424 86.1513 57.5138C85.3733 54.8958 80.7314 52.6302 80.6849 52.6108C80.6639 52.6019 80.6464 52.5848 80.6354 52.5626C80.6245 52.5403 80.6207 52.5144 80.6249 52.4893V52.4893Z" fill="#F5FAFA"/>
<path d="M86.7234 53.5669C86.7271 53.5443 86.7369 53.5236 86.7513 53.5075C86.7657 53.4915 86.784 53.4808 86.8039 53.477C86.8379 53.4709 90.1674 52.7538 90.4745 50.6833C90.4799 50.6538 90.4951 50.6278 90.517 50.6109C90.5389 50.5939 90.5657 50.5873 90.5918 50.5924C90.605 50.5937 90.618 50.598 90.6298 50.6051C90.6415 50.6123 90.6519 50.622 90.6603 50.6339C90.6687 50.6457 90.6749 50.6594 90.6785 50.674C90.6821 50.6887 90.683 50.704 90.6813 50.7191C90.3527 52.9408 86.9928 53.6629 86.8505 53.6926C86.8244 53.699 86.7971 53.6935 86.7745 53.6773C86.7519 53.6611 86.7358 53.6354 86.7296 53.6057C86.7253 53.5934 86.7232 53.5802 86.7234 53.5669Z" fill="#F5FAFA"/>
<path d="M78.3348 46.2206C78.3348 54.4852 75.5694 61.1849 72.1576 61.1849C68.7457 61.1849 65.9803 54.4852 65.9803 46.2206C65.9803 37.9561 69.462 29.2135 72.8738 29.2135C76.2856 29.2135 78.3348 37.9561 78.3348 46.2206Z" fill="white"/>
<path d="M79.738 51.8672C79.6956 50.369 79.6159 48.8655 79.4989 47.3564C78.8418 38.9805 76.952 30.5883 73.2805 23.4953C73.009 22.9717 72.7281 22.4562 72.4381 21.9489C69.96 17.6322 66.362 14.1113 62.1874 13.1848C58.7147 12.4146 55.1722 13.527 52.071 15.5066C48.9537 17.4984 46.5831 20.5188 43.7451 22.9948C35.9573 29.7956 25.2823 29.9141 17.8007 37.239C10.4596 44.429 7.87049 57.8927 10.9403 68.9223C12.3978 74.1889 14.6109 78.6384 17.4452 82.2012H65.8785V84.2696C73.1453 78.5413 75.9734 71.2594 77.1776 67.7415C78.8759 62.7885 79.8866 57.2124 79.738 51.8672Z" fill="#CCE9FF" fill-opacity="0.61"/>
<path d="M53.0886 53.4606C53.2149 53.9193 53.3805 54.3891 53.7081 54.7078C54.1889 55.1767 54.8935 55.2124 55.5372 55.2185C56.2802 55.2308 57.094 55.2185 57.6607 54.6925C57.9812 54.3963 58.1782 53.9703 58.3214 53.5383C58.5653 52.7908 58.6711 51.9939 58.6319 51.1975C58.5928 50.4012 58.4096 49.6227 58.094 48.9111C57.9877 48.6437 57.8323 48.4054 57.6383 48.2124C57.3697 47.9714 57.0215 47.8764 56.6777 47.8406C55.7999 47.7518 54.9219 48.0077 54.1889 48.5659C53.5013 49.097 52.9418 49.9326 52.7359 50.8335C52.5515 51.6486 52.8765 52.6894 53.0886 53.4606Z" fill="#0B4870"/>
<path d="M57.9409 59.5506C57.5765 59.8304 56.5085 59.6578 56.1558 59.8887C55.803 60.1195 54.6267 60.1879 54.282 60.0807C54.282 58.0919 55.0797 56.0807 55.0949 54.2513C55.7986 55.9336 56.5354 55.0092 57.2507 53.858C57.2363 55.6507 57.923 57.7559 57.9409 59.5506Z" fill="#FACFAA"/>
<path d="M55.0645 55.6772C55.1273 55.8747 55.2115 56.0624 55.3151 56.236C55.5056 56.5628 55.794 56.7993 56.1262 56.9009C56.5201 57.0286 56.9203 56.7988 57.2166 56.5118C57.3133 56.4168 57.4064 56.3156 57.4978 56.2135C57.3599 55.4045 57.2444 54.6057 57.2507 53.8642C56.5345 55.0153 55.7986 55.9397 55.0949 54.2574C55.1388 54.3596 55.0824 54.6323 55.0734 54.7487C55.06 54.9295 55.0322 55.1083 55.0161 55.2891C55.0085 55.4209 55.0249 55.5531 55.0645 55.6772V55.6772Z" fill="#ECC3A2"/>
<path d="M58.8791 48.287C58.8791 48.2104 58.8702 48.1338 58.8612 48.0572C58.8263 47.7508 58.6822 47.5199 58.5864 47.2319C58.4951 46.9544 58.3594 46.6988 58.1862 46.478C58.107 46.3423 58.0196 46.2129 57.9248 46.0909L57.8747 46.0082C57.7278 45.7538 57.6061 45.4791 57.427 45.2554C56.9149 44.6221 56.0707 44.5403 55.316 44.5781C54.8487 44.5996 54.3742 44.6496 53.9427 44.8539C53.5112 45.0582 53.1244 45.4382 52.9785 45.9448C52.9619 46.005 52.949 46.0665 52.94 46.1287C51.9221 46.8662 51.35 48.3841 51.6562 49.7283C51.7601 50.1818 51.9507 50.6476 51.8693 51.0991C51.9024 51.3647 51.9266 51.6323 51.9454 51.8999C52.1146 52.1144 52.3849 52.2237 52.5613 52.0327C52.6893 51.8938 52.7001 51.6701 52.7028 51.4688C52.7111 50.875 52.7189 50.2819 52.726 49.6895C52.7203 49.5789 52.7374 49.4683 52.7762 49.3667C52.8309 49.2737 52.9023 49.1951 52.9857 49.1359C53.3074 48.8591 53.5698 48.5025 53.7529 48.0929C54.0659 48.4277 54.43 48.6943 54.8272 48.8795C55.53 49.1859 56.3044 49.2063 57.0501 49.1073C57.2575 49.0812 57.4632 49.0402 57.6661 48.9847C57.709 49.8086 57.7523 50.6323 57.7959 51.4556C57.8111 51.762 57.8738 52.1338 58.1298 52.2196C58.3035 52.2789 58.4942 52.1583 58.5971 51.9877C58.6891 51.8083 58.7459 51.6083 58.7636 51.4014C58.8209 51.0061 58.8675 50.6078 58.8944 50.2084C58.9087 50.0041 58.9266 49.7998 58.932 49.5884C58.9373 49.3769 58.9114 49.2074 58.9015 49.0123C58.8827 48.7702 58.8899 48.5281 58.8791 48.287Z" fill="#121314"/>
<path d="M58.4852 51.4402C58.4593 51.2983 58.4172 51.144 58.3169 51.0735C58.2573 51.0368 58.1887 51.0235 58.1218 51.0357C57.9662 51.0603 57.8247 51.1516 57.7261 51.2911C57.7104 51.2975 57.6956 51.3064 57.6822 51.3177C57.692 51.5873 57.6894 51.857 57.6894 52.1348C57.6894 52.668 57.7046 52.9847 57.6383 53.5158C57.6312 53.5679 57.5765 53.8488 57.5595 53.8958C57.6195 53.8893 57.6778 53.8699 57.7314 53.8386C58.0842 53.6874 58.3509 53.2901 58.47 52.8417C58.578 52.3834 58.5833 51.9014 58.4852 51.4402Z" fill="#FACFAA"/>
<path d="M51.6956 49.6854C51.6956 49.6854 52.2122 51.0745 52.4351 52.2676C52.658 53.4606 53.2104 56.433 54.9194 55.7957C56.6285 55.1583 57.3626 54.6322 57.5721 53.9867C57.7816 53.3411 58.2095 49.7865 56.9785 48.6098C55.7475 47.4331 52.0421 46.7548 51.6956 49.6854Z" fill="#FACFAA"/>
<path d="M56.7762 46.3565C56.7672 46.2942 56.7543 46.2328 56.7377 46.1726C56.5927 45.6619 56.2005 45.286 55.7735 45.0817C55.3465 44.8774 54.8675 44.8263 54.4011 44.8059C53.6455 44.7712 52.8013 44.8498 52.2892 45.4831C52.1101 45.7068 51.9857 45.9816 51.8415 46.236L51.7914 46.3187C51.6973 46.4411 51.61 46.57 51.53 46.7048C51.4056 46.8733 51.2757 47.0357 51.145 47.1982C51.0349 47.334 50.8881 47.4842 50.7314 47.4321L50.6714 47.1808C50.5658 47.1236 50.4852 47.3044 50.4879 47.4372C50.4942 47.8325 50.6616 48.095 50.8353 48.4157C51.0849 48.8504 51.2784 49.3237 51.41 49.8212C51.4637 50.05 51.4942 50.3013 51.5434 50.5444C51.6088 50.8713 51.7869 51.2268 51.9364 51.5066C51.9481 51.3074 52.1083 49.2268 52.0573 49.2125C52.2598 49.2682 52.4652 49.3088 52.6723 49.334C53.419 49.4362 54.1943 49.4096 54.8953 49.1072C55.2923 48.9217 55.6563 48.6552 55.9696 48.3207C56.1526 48.7303 56.415 49.0869 56.7368 49.3636C56.8203 49.4226 56.8917 49.5013 56.9463 49.5945C56.9816 49.6972 56.9987 49.8069 56.9964 49.9173C57.1549 51.8274 57.6544 52.4086 57.8236 52.193C57.8424 51.9254 57.8236 51.5924 57.8532 51.3269C57.8738 50.7988 57.9991 50.4362 58.103 49.9816C58.4029 48.6384 57.7941 47.094 56.7762 46.3565Z" fill="#151718"/>
<path d="M47.4217 63.5342C47.4217 63.5342 44.2426 70.4331 44.4136 71.2625C44.5846 72.0919 46.2516 72.6925 49.8004 71.856C53.3491 71.0194 53.7395 70.7865 53.7395 70.7865L53.2211 69.5608C53.2211 69.5608 47.7484 70.5822 47.8764 69.7794C48.0045 68.9765 50.4852 65.6578 50.4852 65.6578L47.4217 63.5342Z" fill="#FACFAA"/>
<path d="M62.3697 71.0449C62.1782 69.4106 61.9991 67.7528 61.7905 66.1011C61.7189 65.5475 61.6452 64.9939 61.5694 64.4402C61.4888 63.8733 61.4118 63.2932 61.3277 62.7038C61.0913 61.0695 60.8621 59.0337 60.2596 57.5444C60.2415 57.5002 60.2274 57.454 60.2175 57.4065C60.1871 57.3984 58.1218 56.5434 57.4781 56.4872C57.496 57.0296 57.7833 59.1614 56.1585 59.0756C54.8013 59.0041 54.9114 57.3156 54.8845 56.4872C54.0251 56.5761 52.1477 57.4198 52.1415 57.4219C51.684 57.5332 51.3859 60.6027 51.3357 60.9969C51.1003 62.7232 50.8362 64.4137 50.6401 66.141L50.6347 66.191C50.4852 67.5189 50.3474 68.8468 50.2113 70.1808C49.9654 72.5819 49.7266 74.984 49.4951 77.3871C49.4825 77.5128 49.4709 77.6374 49.4584 77.762L63.1656 77.8039C62.8988 75.5533 62.6335 73.3003 62.3697 71.0449Z" fill="#0E538C"/>
<path d="M62.3697 71.0449C62.1782 69.4106 61.9991 67.7528 61.7905 66.1011C61.7189 65.5475 61.6452 64.9939 61.5694 64.4402C61.4888 63.8733 61.4118 63.2932 61.3277 62.7038C61.0913 61.0695 60.8621 59.0337 60.2596 57.5444C60.2415 57.5002 60.2274 57.454 60.2175 57.4065C60.205 57.4065 59.8675 57.2646 59.4261 57.1001C59.4315 57.1328 59.436 57.1668 59.4396 57.2022C59.4396 57.238 59.4396 57.3381 59.4566 57.3687C59.4512 57.3606 59.4288 57.1583 59.4512 57.3187C59.4628 57.3984 59.4736 57.478 59.4852 57.5567C59.5121 57.7358 59.5419 57.9139 59.5748 58.0909C59.6437 58.4658 59.7207 58.8396 59.7977 59.2145C59.9696 60.0429 60.1441 60.8723 60.2596 61.714C60.4593 63.1563 60.5712 64.8141 59.8774 66.1205C59.2238 67.3463 57.9203 67.9305 56.7726 68.333C56.2784 68.5066 55.7753 68.6456 55.2757 68.7998C54.4843 69.0439 53.7055 69.3401 52.9239 69.6231C52.0116 69.953 51.0976 70.2697 50.1719 70.5281C49.9373 72.8182 49.7094 75.109 49.4879 77.4004C49.4754 77.526 49.4638 77.6507 49.4512 77.7753L63.1585 77.8172C62.8964 75.5577 62.6335 73.3003 62.3697 71.0449Z" fill="#0B4870"/>
<path d="M52.1414 57.426L52.1656 57.4198C51.6589 57.5986 50.7287 58.2707 50.2354 58.5884C49.4234 59.1103 48.7448 59.9479 48.2184 60.954C47.7445 61.8877 47.3763 62.8861 47.1226 63.9255C47.3792 64.4448 47.7355 64.891 48.1647 65.2309C48.7807 65.7171 50.0179 66.2329 50.1405 66.2942C50.4145 65.6967 50.6687 65.334 50.7771 65.0143C50.9427 63.7549 51.1567 62.2738 51.3294 61.0051C51.3876 60.6068 51.684 57.5373 52.1414 57.426Z" fill="#0E538C"/>
<path d="M53.8048 69.3912C53.8048 69.3912 61.1191 69.8825 63.0752 70.0746C64.1432 70.1961 63.5828 69.4934 62.3348 66.4392C61.1862 64.0296 65.1665 63.9428 65.1665 63.9428C65.1665 63.9428 66.7395 68.9816 67.06 70.2646C67.5389 72.1828 66.0859 72.716 65.7493 72.716C59.4011 72.7732 53.9203 70.8468 53.9203 70.8468C53.9203 70.8468 52.8621 69.5608 53.8048 69.3912Z" fill="#FACFAA"/>
<path d="M63.2462 68.6292C63.5746 68.4637 63.8808 68.246 64.1558 67.9827C64.7825 67.3698 65.2301 66.5649 65.6777 65.7692C65.3017 64.5434 64.9875 63.5353 64.9875 63.5353C64.9875 63.5353 61.0072 63.6211 62.1531 66.0307C62.6428 67.2278 63.026 68.0623 63.2462 68.6292Z" fill="#ECC3A2"/>
<path d="M64.197 60.8203C63.6714 59.7988 62.9919 58.951 62.18 58.4219C61.6428 58.0685 60.1871 57.4004 60.2176 57.4117C60.2274 57.4576 61.0913 61.0725 61.3277 62.7089C61.4118 63.2932 61.3205 63.5618 61.4011 64.1287C61.479 64.6793 62.3456 66.8591 62.7547 67.4331C63.3017 67.2574 64.2766 66.5486 64.6482 66.2196C65.0019 65.9214 65.313 65.5623 65.5703 65.1553C65.2999 64.0838 64.6697 61.7365 64.197 60.8203Z" fill="#0B4870"/>
<path d="M64.068 65.7303C64.56 65.4067 65.0131 65.0119 65.4163 64.5557C65.3366 64.2554 65.2453 63.9183 65.1477 63.5669C64.2132 64.5218 63.1341 65.2746 61.9633 65.7886C62.0841 66.0848 62.2122 66.381 62.3348 66.6445C62.9678 66.4627 63.504 66.1154 64.068 65.7303Z" fill="#2A94F4"/>
<path d="M57.2068 71.7753H46.8004C46.7597 71.7717 46.7205 71.7562 46.6865 71.7305C46.6525 71.7048 46.6248 71.6696 46.6061 71.6282L43.5622 64.3258C43.5282 64.2452 43.5622 64.1798 43.6338 64.1798H54.0439C54.0845 64.1831 54.1237 64.1983 54.1577 64.2239C54.1917 64.2495 54.2194 64.2846 54.2381 64.3258L57.282 71.6282C57.3151 71.7058 57.2829 71.7753 57.2068 71.7753Z" fill="#F7F7F7"/>
<path d="M51.3939 68.1951C51.573 68.6302 51.2525 68.9826 50.6723 68.9826C50.0922 68.9826 49.4754 68.6302 49.2936 68.1951C49.1119 67.76 49.436 67.4076 50.0161 67.4076C50.5962 67.4076 51.2131 67.76 51.3939 68.1951Z" fill="#D3D3D3"/>
<path d="M46.6679 71.7753H62.564C62.5781 71.7753 62.5921 71.7785 62.6051 71.7846C62.6181 71.7908 62.63 71.7998 62.64 71.8112C62.6499 71.8226 62.6579 71.8361 62.6633 71.851C62.6687 71.8658 62.6714 71.8818 62.6714 71.8979V72.1256C62.6714 72.1417 62.6687 72.1577 62.6633 72.1725C62.6579 72.1874 62.6499 72.2009 62.64 72.2123C62.63 72.2237 62.6181 72.2327 62.6051 72.2389C62.5921 72.245 62.5781 72.2482 62.564 72.2482H46.9329C46.8616 72.2482 46.7933 72.2159 46.7429 72.1585C46.6926 72.101 46.6643 72.0231 46.6643 71.9418V71.7712L46.6679 71.7753Z" fill="#F2F0F0"/>
<path d="M62.564 71.7753H57.3277V72.2482H62.564C62.5781 72.2482 62.5921 72.245 62.6051 72.2389C62.6182 72.2327 62.63 72.2237 62.64 72.2123C62.65 72.2009 62.6579 72.1874 62.6633 72.1725C62.6687 72.1577 62.6715 72.1417 62.6715 72.1256V71.8978C62.6715 71.8817 62.6687 71.8658 62.6633 71.8509C62.6579 71.8361 62.65 71.8226 62.64 71.8112C62.63 71.7998 62.6182 71.7908 62.6051 71.7846C62.5921 71.7784 62.5781 71.7753 62.564 71.7753V71.7753Z" fill="#F2F0F0"/>
<path d="M56.0931 59.0255C56.0931 59.0255 57.7046 60.0735 57.8997 60.1491C58.0949 60.2247 58.4808 60.1624 58.5336 59.6874C58.5864 59.2125 58.9373 56.9295 58.9373 56.9295L57.4414 55.8396C57.4414 55.8396 57.5649 57.4433 57.222 58.0184C56.8791 58.5934 56.0931 59.0255 56.0931 59.0255Z" fill="#2A94F4"/>
<path d="M56.3116 59.0337C56.3116 59.0337 54.7055 60.0817 54.5058 60.1573C54.3062 60.2329 53.9248 60.1706 53.8711 59.6956C53.8174 59.2206 53.5031 56.8785 53.5031 56.8785L54.8935 56.0245C54.8935 56.0245 54.838 57.4546 55.1835 58.0327C55.5291 58.6108 56.3116 59.0337 56.3116 59.0337Z" fill="#2A94F4"/>
<path d="M77.7834 72.2595H12.7252V73.7232H77.7834V72.2595Z" fill="#492817"/>
<path d="M71.9248 73.7222H15.9355V86.4382H71.9248V73.7222Z" fill="#D3D3D3"/>
<path d="M71.9248 86.4382L17.0269 73.7232H71.9248V86.4382Z" fill="#F2F2F2"/>
<path d="M17.9105 86.4147C17.7583 84.0889 17.5721 81.7497 17.3482 79.2942C17.2587 78.3401 17.1692 77.3728 16.8693 76.478C15.9391 73.7201 12.8979 72.1716 10.453 73.238C8.46016 74.1072 7.08952 76.3238 6.71441 78.4811C6.26678 81.0613 6.06714 83.7222 6.02417 86.4147H17.9105Z" fill="#FF7455"/>
<path d="M11.1907 86.4147C12.3008 83.1062 13.966 80.1399 16.8738 78.8713C17.0096 78.8133 17.1495 78.7682 17.2919 78.7365C17.2149 77.9663 17.1128 77.1992 16.8666 76.478C15.9364 73.7201 12.8953 72.1716 10.4503 73.238C8.46016 74.1072 7.08952 76.3238 6.71441 78.4811C6.26678 81.0613 6.06714 83.7222 6.02417 86.4147H11.1907Z" fill="#FF7455"/>
<path d="M25.4324 68.9857C25.4279 68.9999 25.4279 69.0154 25.4324 69.0296C25.4407 69.0418 25.4524 69.0505 25.4655 69.0541C25.7771 69.1716 26.0573 69.1675 26.3823 69.2186C26.5076 69.239 26.6705 69.2819 26.795 69.3126C26.9194 69.3432 27.0206 69.4801 27.1334 69.524C27.4903 69.6652 27.8581 69.7678 28.2319 69.8304C28.4328 69.8768 28.6402 69.873 28.8397 69.8192C28.9149 69.7947 29.6759 69.3279 29.7019 69.3085C29.8511 69.1892 29.9888 69.0523 30.1128 68.8999C30.1153 68.8915 30.1174 68.883 30.1191 68.8744C30.6625 70.4688 30.9436 70.0868 30.9436 70.0868C30.9436 70.0868 30.5506 67.8212 30.4619 67.7692C30.3733 67.7171 29.906 67.4923 29.906 67.4923L28.8138 67.1859C28.773 67.1648 28.7304 67.1487 28.6867 67.1379C28.6607 67.1379 28.6338 67.1379 28.607 67.1297H28.5927C28.1969 67.0929 27.7592 67.3177 27.3733 67.3544C26.7967 67.4206 26.2384 67.623 25.7341 67.9489C25.6034 68.0378 25.6025 68.2094 25.5676 68.3667C25.5228 68.573 25.4781 68.7794 25.4324 68.9857Z" fill="#FCD2B1"/>
<path d="M26.2901 67.5924C23.9624 68.382 20.0027 69.3769 18.3867 67.3514C17.6759 66.4606 16.6097 63.9663 15.8165 61.5291C15.7153 61.2226 15.5327 60.572 15.2793 59.7783C15.0931 59.6608 14.9069 59.5434 14.7171 59.4341C14.2202 59.1481 13.598 58.8049 13.0233 58.9356C12.1817 59.1277 11.8496 60.0858 11.7422 61.0143C12.7717 63.7181 14.8756 68.9979 15.846 70.1277C16.1616 70.4976 16.5236 70.8119 16.9203 71.0602C17.7592 71.5822 18.7207 71.763 19.6679 71.717C20.6526 71.67 21.6186 71.3994 22.5443 71.0316C23.4261 70.6813 24.2713 70.432 25.0985 69.9418C25.4378 69.7375 26.0018 69.5332 26.3357 69.3238C26.3912 68.5332 26.4342 68.05 26.2901 67.5924Z" fill="#18C39A"/>
<path d="M9.31603 71.3197C9.34915 70.3432 9.24351 69.3688 9.13697 68.3994C8.97762 66.9336 8.80752 65.427 8.17816 64.1379C7.7359 63.2319 6.96061 58.9193 8.38138 56.6997C8.91853 55.8591 12.3402 56.2615 14.2238 56.9806C15.9248 57.6313 15.5765 58.0317 16.641 61.0337C17.034 61.6966 17.5085 62.5659 17.7771 63.3218C18.1987 64.5046 17.0045 66.9704 16.5631 67.8162C16.6159 69.6742 16.8147 71.2809 16.624 73.7722C16.5855 74.2687 17.7126 79.6272 17.4996 80.0613C16.256 82.5945 10.9588 80.6742 10.5013 78.5291C9.27395 80.4505 6.4154 79.3749 6.42435 79.2635C6.70009 75.9735 9.26679 72.763 9.31603 71.3197Z" fill="#18C39A"/>
<path d="M15.0143 59.4831C15.1826 59.3085 15.1218 58.9275 15.1155 58.7048L15.0833 57.5332C15.0752 57.2176 14.4387 57.0623 14.2256 56.9806C12.8371 56.4504 10.6159 56.0929 9.32767 56.2788C9.6607 56.5056 9.95435 56.8376 10.2587 57.0817C10.2704 57.0909 10.2784 57.1011 10.2883 57.1103C10.3238 57.1216 10.3574 57.1395 10.3876 57.1634C10.7816 57.4699 11.0868 57.8509 11.5282 58.0694C12.0967 58.3514 12.6723 58.62 13.2292 58.9244C13.5163 59.0735 13.811 59.2025 14.1119 59.3105C14.3187 59.3892 14.7207 59.6456 14.9338 59.5403C14.9636 59.5274 14.9909 59.5079 15.0143 59.4831V59.4831Z" fill="#FFE3CA"/>
<path d="M25.0833 70.6139C25.0807 70.6214 25.0798 70.6296 25.0807 70.6376C25.0816 70.6457 25.0843 70.6533 25.0885 70.6598C25.0927 70.6663 25.0983 70.6715 25.1047 70.6749C25.1112 70.6783 25.1183 70.6798 25.1253 70.6793C25.4593 70.7559 25.752 70.7099 26.0886 70.715C26.2202 70.715 26.393 70.7375 26.5246 70.7518C26.6562 70.7661 26.7762 70.8907 26.897 70.9203C27.2801 71.0112 27.6697 71.0618 28.0609 71.0715C28.2738 71.0895 28.4876 71.0547 28.6876 70.9694C28.7619 70.9326 29.4933 70.3402 29.5192 70.3218C29.6616 70.1762 29.7898 70.0135 29.9015 69.8366C29.9019 69.8277 29.9019 69.8189 29.9015 69.81C30.6419 71.3739 30.8863 70.9336 30.8863 70.9336C30.8863 70.9336 30.2256 68.6558 30.1289 68.616C30.0322 68.5761 29.5237 68.4117 29.5237 68.4117L28.3644 68.2615C28.3197 68.2461 28.2738 68.2358 28.2274 68.2309C28.2005 68.2309 28.1719 68.2309 28.1441 68.2309H28.1289C27.7171 68.2513 27.291 68.5465 26.8979 68.6394C26.3106 68.792 25.7575 69.0825 25.2739 69.4924C25.1495 69.6037 25.1674 69.7814 25.1495 69.9479L25.0833 70.6139Z" fill="#F2D1B3"/>
<path d="M9.26142 57.1501C11.41 56.8927 13.7914 63.1624 14.3277 64.3381C15.4208 66.7334 16.8021 69.1491 17.6347 69.9632C19.5291 71.8141 23.5004 70.2073 25.8102 69.0521C26.0098 69.5036 26.0206 70.0071 26.0555 70.8304C25.7359 71.1001 25.1773 71.3912 24.8505 71.6476C24.0519 72.2747 23.2095 72.6557 22.3438 73.146C21.4306 73.6568 20.4637 74.0827 19.4548 74.2696C18.4834 74.4555 17.4718 74.4106 16.5479 73.9959C16.1107 73.7977 15.7017 73.5268 15.3339 73.192C13.8863 71.8815 9.7556 63.8161 9.32229 62.9132C7.78872 59.7262 7.86034 57.3187 9.26142 57.1501Z" fill="#18C49A"/>
<path d="M9.93733 49.6915C10.051 49.2482 10.2722 48.8529 10.4996 48.4719C10.7269 48.0909 10.9534 47.7334 11.2614 47.4566C11.6365 47.1185 12.0994 46.9336 12.5604 46.7926C13.4834 46.5117 14.5139 46.3933 15.3527 46.9142C15.5543 47.0272 15.7249 47.201 15.846 47.4168C15.9214 47.5843 15.9736 47.7642 16.0009 47.9499C16.2167 49.0735 16.3688 50.2268 16.3089 51.3769C16.2489 52.5271 15.9669 53.6823 15.3778 54.618C15.2104 54.8825 15.0125 55.1348 14.7511 55.2666C14.5384 55.3593 14.3118 55.4034 14.0842 55.3963C14.0099 55.3963 13.9364 55.3912 13.863 55.3902C13.7914 55.8784 13.7287 56.382 13.6589 56.9224C14.0913 57.05 14.5336 57.2033 14.5739 57.3034C14.6679 57.5373 14.7717 58.665 14.5855 58.9888C13.6562 58.4954 12.1898 57.8325 11.2623 57.4862C11.0645 57.4127 11.0546 57.191 11.0251 56.9561C11.0134 56.8601 11.0251 56.9561 11.4127 56.8539C11.3939 56.3698 11.3295 55.526 11.2766 54.7293C10.923 54.5546 10.5765 54.3299 10.3814 54.0347C10.2093 53.7504 10.091 53.4282 10.034 53.0889C9.89095 52.3639 9.82156 51.6225 9.82721 50.8795C9.8134 50.4795 9.8505 50.0794 9.93733 49.6915Z" fill="#F2D1B3"/>
<path d="M15.9168 46.1941C14.8783 45.3902 13.6786 44.808 12.4253 44.7283C11.1719 44.6486 9.86393 45.1164 8.99464 46.1502C8.171 47.1297 7.81738 48.6425 8.21755 49.9122C8.06172 49.8858 7.90406 49.8762 7.74665 49.8836C7.33127 49.8897 6.92325 50.0095 6.55686 50.2329C5.65354 50.8131 5.46912 52.3779 5.97136 53.4178C5.97136 53.428 5.97136 53.4382 5.96509 53.4484C5.56939 53.6272 5.25963 54.0276 5.15936 54.7201C5.0582 55.4525 5.38049 56.2646 5.97046 56.5751C6.16548 56.6699 6.37584 56.7167 6.58779 56.7125C6.79975 56.7083 7.00854 56.6531 7.20054 56.5506C7.34737 57.2656 7.94987 57.7824 8.58013 57.9683C9.09399 58.1203 9.63526 58.1009 10.1398 57.9125C10.6443 57.7241 11.0908 57.3746 11.4265 56.9054C11.7621 56.4362 11.9728 55.867 12.0335 55.2653C12.0943 54.6636 12.0025 54.0547 11.769 53.5107C11.5622 53.0286 11.2516 52.6139 11.0251 52.143C10.4879 51.0327 10.8075 50.4065 11.5157 50.0848C11.5206 50.0874 11.5254 50.0905 11.53 50.094C11.6321 50.1869 12.1809 51.3289 12.1155 51.3973C12.2623 51.2441 12.2713 50.9888 12.3107 50.7681C12.3841 50.3595 12.5792 50.0163 12.8272 49.7028C13.4655 49.4903 13.9445 49.1757 14.6312 48.5792C15.3178 47.9826 16.043 47.1634 15.9168 46.1941Z" fill="#0C0B0A"/>
<path d="M37.3017 72.0868H32.4396V71.6456H37.3017C37.385 71.6456 39.376 71.5792 39.8738 67.7641C40.3984 63.7355 42.5971 47.7692 42.6195 47.6088L43.0009 47.6772C42.9785 47.8376 40.7807 63.8018 40.2551 67.8284C39.7064 72.0378 37.3993 72.0868 37.3017 72.0868Z" fill="#CCC6C6"/>
<path d="M31.7413 71.6456H26.9203V72.0858H31.7413V71.6456Z" fill="#CCC6C6"/>
<path d="M40.128 66.19C40.8693 60.6466 42.6446 47.7559 42.6643 47.6108L42.2829 47.5424C42.2632 47.6833 40.4736 60.6742 39.7377 66.19H40.128Z" fill="#0B4870"/>
<path d="M41.5184 64.4198C42.1307 59.9254 42.7986 55.0357 43.4047 50.6149C43.4123 50.5601 43.4103 50.5042 43.3988 50.4503C43.3873 50.3964 43.3666 50.3456 43.3377 50.301C43.3089 50.2563 43.2726 50.2186 43.2309 50.1901C43.1892 50.1616 43.143 50.1428 43.0949 50.1348C42.9517 50.1123 42.8084 50.0929 42.6643 50.0776C42.0242 54.7497 41.3107 59.9591 40.6643 64.714C40.795 64.7385 40.9257 64.764 41.0564 64.7916C41.1082 64.8027 41.1614 64.8019 41.213 64.7891C41.2645 64.7763 41.3132 64.7518 41.3563 64.7172C41.3994 64.6825 41.4359 64.6383 41.4638 64.5872C41.4916 64.5361 41.5102 64.4792 41.5184 64.4198Z" fill="white"/>
<path d="M35.983 53.1154H31.5927C30.3566 53.1154 29.3545 54.2587 29.3545 55.669V58.1481C29.3545 59.5584 30.3566 60.7017 31.5927 60.7017H35.983C37.2191 60.7017 38.2211 59.5584 38.2211 58.1481V55.669C38.2211 54.2587 37.2191 53.1154 35.983 53.1154Z" fill="#E04D4D"/>
<path d="M33.1155 54.8641L35.2838 56.573C35.3166 56.5989 35.3436 56.6332 35.3626 56.6732C35.3816 56.7132 35.3921 56.7578 35.3931 56.8033C35.3942 56.8488 35.3858 56.8939 35.3686 56.935C35.3515 56.9761 35.3261 57.012 35.2945 57.0398L33.1244 58.9448C33.087 58.9775 33.0422 58.9977 32.9952 59.0029C32.9482 59.0082 32.9009 58.9984 32.8586 58.9746C32.8162 58.9508 32.7805 58.914 32.7555 58.8683C32.7305 58.8226 32.7172 58.7699 32.7171 58.716V55.1011C32.7171 55.0483 32.7298 54.9964 32.7538 54.9512C32.7778 54.9061 32.8123 54.8692 32.8533 54.8448C32.8944 54.8204 32.9406 54.8093 32.9868 54.8127C33.033 54.8161 33.0775 54.8339 33.1155 54.8641V54.8641Z" fill="#F2F2F2"/>
<path d="M22.0072 34.4689C21.2677 31.5067 21.6428 28.1175 22.9794 25.6844C23.4718 24.7865 24.0976 24.0041 24.8594 23.5669C25.5246 23.1829 26.2623 23.0787 26.9875 22.9827C30.8305 22.4794 34.6852 22.1141 38.5515 21.8866C39.3348 21.8407 40.1674 21.8151 40.8603 22.3555C41.7556 23.0531 42.1746 24.5005 42.4548 25.8458C43 28.4658 43.2372 31.4852 42.0967 33.6394C40.8272 36.0419 38.3679 36.4699 36.179 36.7038L29.3124 37.4321C28.3742 37.5342 27.2632 37.4423 26.9633 38.6834C26.6392 40.0286 28.0098 41.2186 25.5658 40.0112C24 39.238 22.4852 36.381 22.0072 34.4689Z" fill="#FFB750"/>
<path d="M49.9553 35.6854C49.9553 34.2799 49.9445 32.8468 49.5596 31.5107C49.1746 30.1747 48.3438 28.9295 47.171 28.4985C45.9177 28.0419 44.6204 28.523 43.4109 28.9203C42.3116 29.2819 41.222 29.4821 40.0895 29.6435C38.8281 29.8233 37.4933 30.1236 36.4709 31.0378C34.6339 32.6721 34.4709 35.5679 35.4575 37.8263C35.6407 38.2814 35.8994 38.6918 36.2193 39.0347C36.8514 39.667 37.6849 39.5689 38.47 39.6292C39.4626 39.7048 40.456 39.7606 41.4503 39.7967C43.2874 39.8648 45.1248 39.8648 46.9624 39.7967C47.231 40.4178 47.7028 41.1164 48.4602 41.2625C49.624 41.4862 48.4781 40.8989 48.3536 39.5669C49.6509 39.0112 49.9597 37.476 49.9553 35.6854Z" fill="#2A94F4"/>
<path d="M23.2632 44.7191C23.0508 44.7384 22.8465 44.8209 22.6707 44.9584C22.495 45.0959 22.3539 45.2835 22.2616 45.5027C22.1692 45.7218 22.1289 45.9648 22.1446 46.2072C22.1603 46.4497 22.2314 46.6833 22.3509 46.8846L20.7807 48.2002C20.5981 48.0043 20.3671 47.8774 20.1191 47.8366C19.8711 47.7958 19.6181 47.8432 19.3945 47.9724C19.1709 48.1015 18.9877 48.3061 18.8696 48.5583C18.7516 48.8105 18.7046 49.0981 18.7349 49.3819C18.7652 49.6657 18.8714 49.932 19.0391 50.1445C19.2068 50.3569 19.4277 50.5053 19.672 50.5694C19.9162 50.6335 20.1718 50.6102 20.4039 50.5026C20.6361 50.3951 20.8336 50.2085 20.9696 49.9683L22.513 50.6956C22.4881 50.8267 22.4802 50.9613 22.4897 51.095C22.512 51.4253 22.6364 51.7358 22.8408 51.9712C23.0451 52.2066 23.3161 52.3514 23.6054 52.3799C23.8947 52.4084 24.1835 52.3187 24.4202 52.1269C24.6569 51.935 24.8261 51.6534 24.8977 51.3323C24.9693 51.0112 24.9386 50.6716 24.811 50.374C24.6835 50.0763 24.4674 49.8401 24.2013 49.7074C23.9353 49.5747 23.6366 49.5542 23.3585 49.6495C23.0804 49.7448 22.841 49.9498 22.6831 50.2278L21.1388 49.5015C21.1637 49.3701 21.1715 49.2352 21.162 49.1011C21.1496 48.9298 21.1095 48.7625 21.0439 48.6078L22.6661 47.2492C22.8268 47.3766 23.012 47.458 23.206 47.4865C23.4 47.5151 23.5973 47.49 23.781 47.4134C23.9648 47.3367 24.1297 47.2108 24.2619 47.0462C24.394 46.8816 24.4896 46.6832 24.5404 46.4676C24.5913 46.252 24.596 46.0257 24.5541 45.8076C24.5122 45.5896 24.4249 45.3862 24.2997 45.2147C24.1745 45.0432 24.015 44.9085 23.8346 44.8221C23.6542 44.7357 23.4582 44.7 23.2632 44.7181V44.7191Z" fill="#2A94F4"/>
<path d="M63.1415 28.3023C64.8903 28.3023 66.308 26.6455 66.308 24.6016C66.308 22.5578 64.8903 20.9009 63.1415 20.9009C61.3926 20.9009 59.9749 22.5578 59.9749 24.6016C59.9749 26.6455 61.3926 28.3023 63.1415 28.3023Z" fill="white"/>
<path d="M67.197 21.2268C67.197 20.3544 66.6768 19.7559 65.9149 19.7559H60.3644C60.2744 19.7527 60.1845 19.7599 60.0958 19.7773C59.8086 19.8344 59.5489 20.0071 59.3637 20.2641C59.1786 20.521 59.0804 20.8452 59.0868 21.1777C59.0868 22.5924 59.0949 24.0061 59.0967 25.4208C59.0967 26.1195 59.0859 26.8192 59.0859 27.5179C59.0859 28.4055 59.6007 28.9959 60.3769 29C60.9472 29 61.5166 29 62.0868 29C62.1388 28.9922 62.1915 29.0052 62.2359 29.0369C62.2804 29.0686 62.3137 29.1169 62.3303 29.1736C62.5568 29.7477 62.7941 30.3166 63.0278 30.8876C63.0537 30.9499 63.0833 31.0102 63.1352 31.1246C63.1943 31.0092 63.2337 30.9418 63.2632 30.8703C63.4951 30.3054 63.7287 29.7416 63.9534 29.1736C63.9697 29.1169 64.0029 29.0685 64.0472 29.0367C64.0915 29.005 64.1442 28.992 64.1961 29C64.7833 29.0071 65.3706 29.0102 65.957 29C66.6813 28.9898 67.1952 28.3871 67.1952 27.5587C67.1952 26.6721 67.1952 25.7855 67.1952 24.903C67.194 23.6752 67.1946 22.4498 67.197 21.2268ZM63.1414 27.1961C62.6397 27.1959 62.1492 27.026 61.7321 26.7078C61.315 26.3895 60.99 25.9374 60.7981 25.4084C60.6062 24.8794 60.556 24.2974 60.654 23.736C60.752 23.1745 60.9938 22.6588 61.3486 22.254C61.7035 21.8493 62.1556 21.5737 62.6477 21.4621C63.1398 21.3505 63.6499 21.4079 64.1135 21.627C64.577 21.8461 64.9732 22.2171 65.252 22.6932C65.5307 23.1692 65.6795 23.7288 65.6795 24.3013C65.6795 24.6816 65.6138 25.0581 65.4863 25.4093C65.3587 25.7606 65.1718 26.0798 64.9361 26.3486C64.7004 26.6174 64.4206 26.8306 64.1126 26.9761C63.8047 27.1215 63.4747 27.1962 63.1414 27.1961V27.1961Z" fill="#59B79B"/>
<path d="M62.0537 24.0562C62.1406 24.0564 62.2255 24.0272 62.2978 23.9723C62.37 23.9174 62.4264 23.8392 62.4597 23.7477C62.493 23.6562 62.5018 23.5555 62.4849 23.4583C62.468 23.3611 62.4262 23.2718 62.3648 23.2018C62.3034 23.1317 62.2251 23.084 62.14 23.0647C62.0548 23.0455 61.9665 23.0555 61.8863 23.0935C61.8061 23.1315 61.7376 23.1958 61.6895 23.2783C61.6414 23.3607 61.6158 23.4576 61.6159 23.5567C61.6159 23.6892 61.6621 23.8162 61.7442 23.9099C61.8263 24.0036 61.9376 24.0562 62.0537 24.0562V24.0562Z" fill="#0B4870"/>
<path d="M64.2838 23.0562C64.197 23.0562 64.1122 23.0855 64.0401 23.1405C63.9679 23.1955 63.9117 23.2737 63.8785 23.3652C63.8453 23.4566 63.8366 23.5572 63.8536 23.6543C63.8705 23.7514 63.9123 23.8406 63.9736 23.9106C64.035 23.9806 64.1131 24.0283 64.1982 24.0476C64.2833 24.0669 64.3715 24.057 64.4517 24.0191C64.5318 23.9812 64.6003 23.9171 64.6485 23.8348C64.6968 23.7525 64.7225 23.6557 64.7225 23.5567C64.7225 23.4239 64.6763 23.2966 64.594 23.2028C64.5117 23.1089 64.4001 23.0562 64.2838 23.0562V23.0562Z" fill="#0B4870"/>
<path d="M64.5183 24.9448C64.5057 24.9363 64.4917 24.9308 64.4771 24.9285C64.4626 24.9263 64.4478 24.9274 64.4336 24.9317C64.4194 24.9361 64.4061 24.9437 64.3945 24.954C64.383 24.9643 64.3733 24.9772 64.3662 24.9918C64.2402 25.2443 64.0578 25.4542 63.8377 25.6003C63.6175 25.7463 63.3674 25.8232 63.1128 25.8232C62.8582 25.8232 62.6081 25.7463 62.3879 25.6003C62.1678 25.4542 61.9854 25.2443 61.8594 24.9918C61.8444 24.9633 61.8201 24.9426 61.7918 24.9342C61.7635 24.9258 61.7335 24.9304 61.7081 24.9469C61.6827 24.9635 61.664 24.9907 61.656 25.0227C61.648 25.0548 61.6513 25.0892 61.6652 25.1185C61.8107 25.41 62.0214 25.6524 62.2756 25.821C62.5299 25.9896 62.8187 26.0784 63.1128 26.0784C63.4069 26.0784 63.6957 25.9896 63.95 25.821C64.2042 25.6524 64.4149 25.41 64.5604 25.1185C64.575 25.0891 64.5787 25.0543 64.5708 25.0218C64.5629 24.9892 64.5441 24.9616 64.5183 24.9448V24.9448Z" fill="#0B4870"/>
<path d="M72.0125 42.2737C72.3599 41.9612 72.5166 41.5342 72.3706 41.1859C72.3205 41.0782 72.2504 40.9843 72.1652 40.9107C72.08 40.8372 71.9818 40.7857 71.8773 40.76C72.2059 40.4208 72.333 39.9377 72.1602 39.5209C71.9875 39.1042 71.5568 38.8672 71.0913 38.8928C71.1379 38.6885 71.1244 38.4198 70.9328 38.096C69.9928 37.0684 68.1764 38.5291 68.1764 38.5291C68.3894 37.4658 67.5837 35.0419 66.7207 35.4556C65.8576 35.8693 66.5121 37.0593 66.5121 37.0593L65.5148 40.1726C65.4905 40.2493 65.4925 40.3335 65.5201 40.4086L67.513 45.7273C67.5296 45.7733 67.5616 45.8099 67.6019 45.829C67.6422 45.8482 67.6875 45.8483 67.7278 45.8294C68.4637 45.4821 70.7323 44.7385 71.7055 44.1593C72.0358 43.9622 72.547 43.381 72.3098 42.6895C72.2501 42.5196 72.1464 42.3746 72.0125 42.2737V42.2737Z" fill="white"/>
<path d="M67.4002 46.4596L65.9499 47.1553C65.8496 47.2032 65.7368 47.2039 65.6362 47.1572C65.5355 47.1105 65.4552 47.0202 65.4127 46.906L63.1423 40.6537L65.1012 40.2145C65.4073 40.1982 65.5488 40.2278 65.6383 40.4637L67.6213 45.8488C67.6629 45.9633 67.6629 46.0919 67.6214 46.2064C67.58 46.3209 67.5004 46.412 67.4002 46.4596V46.4596Z" fill="#2A94F4"/>
<path d="M60.6783 39.9766C60.8836 38.1907 59.781 36.553 58.2156 36.3188C56.6503 36.0846 55.215 37.3426 55.0097 39.1286C54.8045 40.9146 55.907 42.5523 57.4724 42.7864C59.0377 43.0206 60.4731 41.7626 60.6783 39.9766Z" fill="#0B4870"/>
<path d="M58.3653 38.2952C58.3653 38.2952 57.8397 38.2952 57.7386 39.0899C57.6661 38.2931 57.1119 38.2952 57.1119 38.2952C57.1119 38.2952 56.2346 38.2901 56.2346 39.2901C56.2346 40.2901 57.744 41.0511 57.744 41.0511C57.744 41.0511 59.2435 40.2901 59.2435 39.2901C59.2426 38.2022 58.3653 38.2952 58.3653 38.2952Z" fill="white"/>
<path d="M72.5685 74.8866C72.5685 74.8866 70.5945 74.8345 70.5918 76.8192C70.5891 78.8039 71.8612 80.0878 71.8612 80.0878L72.5685 74.8866Z" fill="#FFC590"/>
<path d="M73.7502 58.2227C73.7502 58.2227 72.3483 59.3238 71.855 66.8029C71.3617 74.282 71.436 80.4393 71.5309 80.4628C71.6258 80.4862 73.5282 80.8662 73.5282 80.8662L75.0304 69.1083L73.7502 58.2227Z" fill="#FFC590"/>
<path d="M75.795 56.6108C75.795 56.6108 72.6052 57.5077 71.9785 62.6262L74.7538 62.7283L75.795 56.6108Z" fill="#FF8855"/>
<path d="M75.7099 86.4147L77.7735 78.7385L77.7252 86.4147H84.0815C84.5193 83.0552 84.8451 80.0184 84.8872 78.1553C85.0349 71.8223 82.6723 69.4944 82.6723 69.4944H74.4852C72.3035 71.4198 70.7968 82.1839 70.7968 82.1839L70.0806 86.4147H75.7099Z" fill="#2A94F4"/>
<path d="M81.4172 69.811C81.4172 69.811 84.5568 70.8325 82.4082 86.3585" stroke="#CCE9FF" stroke-width="0.75" stroke-miterlimit="10"/>
<path d="M77.7735 78.7385V69.5434" stroke="#CCE9FF" stroke-width="0.75" stroke-miterlimit="10"/>
<path d="M76.3196 69.5434V74.9162C76.3196 75.3617 76.4746 75.7889 76.7506 76.104C77.0266 76.4191 77.401 76.5962 77.7914 76.5965H77.803" stroke="#CCE9FF" stroke-width="0.75" stroke-miterlimit="10"/>
<path d="M79.1406 56.1849C79.1406 56.1849 82.4449 56.9459 83.368 59.0878L83.0304 69.3922L74.4602 69.5608L74.1083 58.1205C74.1083 58.1205 75.368 56.6476 77.2068 56.0541L79.1406 56.1849Z" fill="#FF8855"/>
<path d="M81.7762 59.1256C81.4924 56.7518 86.6419 64.0551 83.3483 71.3994C82.274 73.3401 79.4091 69.6506 79.4091 69.6506L81.5748 67.8794L81.7762 59.1256Z" fill="#FFC590"/>
<path d="M78.0895 56.287C78.0895 56.287 84.4226 56.1849 84.6544 62.8243L80.5524 63.1174L78.0895 56.287Z" fill="#FF8855"/>
<path d="M81.9615 67.1543L73.9525 66.0552L73.4279 67.8366L80.9982 71.4351C81.2974 71.5697 81.6212 71.6179 81.9407 71.5752C82.2602 71.5326 82.5655 71.4005 82.8294 71.1907C83.0934 70.981 83.3078 70.7 83.4536 70.3729C83.5994 70.0457 83.6721 69.6826 83.6652 69.3156V69.3156C83.6552 68.7823 83.4778 68.2707 83.1651 67.874C82.8524 67.4773 82.4253 67.2219 81.9615 67.1543V67.1543Z" fill="#FFC590"/>
<path d="M74.3823 66.19L73.6231 65.0337C73.3866 64.6715 73.0442 64.4179 72.658 64.3187L71.6347 64.0552L72.6732 66.6323L74.3823 66.19Z" fill="#FFC590"/>
<path d="M70.884 67.3242L72.9457 66.5161C73.0167 66.4882 73.0546 66.3999 73.0301 66.3188L71.6956 61.8866C71.6712 61.8055 71.5938 61.7624 71.5227 61.7902L69.461 62.5983C69.3899 62.6262 69.3521 62.7145 69.3765 62.7956L70.7111 67.2278C70.7355 67.3089 70.8129 67.352 70.884 67.3242Z" fill="#D3D3D3"/>
<path d="M74.3823 66.19L72.7278 65.3095L70.436 65.5209C70.4104 65.5168 70.3844 65.519 70.3597 65.5275C70.335 65.5359 70.3122 65.5502 70.2928 65.5696C70.2734 65.589 70.258 65.613 70.2474 65.6398C70.2369 65.6667 70.2316 65.6958 70.2319 65.7252C70.2775 66.3493 70.5327 68 71.9516 68.2584C73.7072 68.5781 74.4378 67.9622 74.4378 67.9622L74.3823 66.19Z" fill="#FFC590"/>
<path d="M75.1665 50.8795C75.1667 51.1198 75.1044 51.3547 74.9875 51.5546C74.8706 51.7545 74.7044 51.9103 74.5098 52.0024C74.3153 52.0944 74.1012 52.1185 73.8946 52.0717C73.688 52.0249 73.4983 51.9092 73.3494 51.7393C73.2004 51.5694 73.0991 51.3529 73.058 51.1172C73.017 50.8815 73.0381 50.6372 73.1188 50.4152C73.1995 50.1933 73.336 50.0036 73.5112 49.8702C73.6864 49.7369 73.8923 49.6658 74.103 49.666C74.385 49.666 74.6556 49.7938 74.855 50.0214C75.0545 50.249 75.1665 50.5576 75.1665 50.8795Z" fill="#FFC590"/>
<path d="M73.5694 49.4923C73.9078 52.0797 75.427 54.2278 77.7198 54.2278C78.8205 54.2278 79.8762 53.7289 80.6546 52.8408C81.4329 51.9527 81.8702 50.7483 81.8702 49.4923C81.8702 48.2364 81.4329 47.0319 80.6546 46.1439C79.8762 45.2558 78.8205 44.7569 77.7198 44.7569C75.427 44.7569 73.1952 46.6435 73.5694 49.4923Z" fill="#101112"/>
<path d="M79.2534 56.1022L79.2364 51.2472L76.1862 51.2635L76.2023 56.1175C76.2023 56.3465 76.242 56.5732 76.3191 56.7846C76.3962 56.996 76.5092 57.188 76.6516 57.3494C76.7939 57.5107 76.9629 57.6384 77.1487 57.725C77.3345 57.8116 77.5334 57.8554 77.7341 57.854C77.9349 57.8536 78.1336 57.8079 78.3188 57.7195C78.504 57.631 78.6721 57.5017 78.8133 57.3389C78.9545 57.176 79.0661 56.9829 79.1416 56.7707C79.2172 56.5584 79.2551 56.3312 79.2534 56.1022V56.1022Z" fill="#FFC590"/>
<path d="M79.3456 51.5067C79.3456 51.5067 79.025 55.665 76.2059 55.5986L76.2005 53.5158L79.3456 51.5067Z" fill="#EDB480"/>
<path d="M78.7368 56.2584C78.7368 56.2584 78.8416 56.0674 80.2149 56.5884C80.2149 56.5884 79.8711 57.7814 78.3348 58.1062C77.7019 58.2401 77.0922 58.0153 76.4978 57.7314C76.1021 57.5414 75.5479 56.9397 75.4476 56.7671C75.4476 56.7671 76.3142 56.2278 76.8451 56.1542C77.376 56.0807 78.7368 56.2584 78.7368 56.2584Z" fill="#FFC590"/>
<path d="M76.7386 54.8836C75.1047 54.8836 73.7672 53.76 73.7672 51.8948V48.6885C73.7672 47.3126 75.0841 45.8632 75.795 45.8632L78.4163 46.7018C78.7588 46.7031 79.0869 46.8589 79.3291 47.1353C79.5713 47.4116 79.7078 47.786 79.709 48.1767V51.3708C79.709 53.235 78.1164 54.8836 76.7386 54.8836Z" fill="#FFC591"/>
<path d="M78.6813 46.5322C78.6813 46.5322 77.5962 49.8754 79.3456 50.8795L81.0206 47.8345L78.6813 46.5322Z" fill="#0D0E0F"/>
<path d="M81.0206 50.8795C81.0207 51.1198 80.9584 51.3547 80.8416 51.5546C80.7247 51.7545 80.5584 51.9103 80.3639 52.0024C80.1693 52.0944 79.9552 52.1185 79.7487 52.0717C79.5421 52.0249 79.3524 51.9092 79.2034 51.7393C79.0545 51.5694 78.9531 51.3529 78.9121 51.1172C78.871 50.8815 78.8922 50.6372 78.9729 50.4152C79.0535 50.1933 79.1901 50.0036 79.3653 49.8702C79.5405 49.7369 79.7464 49.6658 79.957 49.666C80.2391 49.666 80.5096 49.7938 80.7091 50.0214C80.9085 50.249 81.0206 50.5576 81.0206 50.8795Z" fill="#FFC590"/>
<path d="M79.6911 43.8294C79.0859 45.1828 79.3671 46.7293 80.3178 47.285C81.2686 47.8406 82.5345 47.194 83.1406 45.8406C83.7466 44.4872 83.4646 42.9407 82.5139 42.3851C81.5631 41.8294 80.2972 42.476 79.6911 43.8294Z" fill="#151616"/>
<path d="M79.6831 47.0889C79.6831 47.0889 75.4754 49.7947 72.8523 47.6251C72.7248 47.5258 72.616 47.3982 72.5327 47.2499C72.4493 47.1016 72.393 46.9357 72.3671 46.762C72.3125 46.3228 72.4763 45.8069 73.5694 45.8611C75.4432 45.953 76.7278 46.3718 77.598 45.8611C78.4682 45.3504 79.6831 47.0889 79.6831 47.0889Z" fill="#131415"/>
<path d="M76.7386 46.0071C76.7386 46.0071 75.0224 44.4269 74.1021 45.1481C73.1817 45.8692 75.2489 46.7007 75.2489 46.7007L76.7386 46.0071Z" fill="#0E0F10"/>
</svg>
