<?xml version="1.0" encoding="UTF-8" standalone="no"?>
<svg
   xmlns:dc="http://purl.org/dc/elements/1.1/"
   xmlns:cc="http://creativecommons.org/ns#"
   xmlns:rdf="http://www.w3.org/1999/02/22-rdf-syntax-ns#"
   xmlns:svg="http://www.w3.org/2000/svg"
   xmlns="http://www.w3.org/2000/svg"
   xmlns:xlink="http://www.w3.org/1999/xlink"
   xmlns:sodipodi="http://sodipodi.sourceforge.net/DTD/sodipodi-0.dtd"
   xmlns:inkscape="http://www.inkscape.org/namespaces/inkscape"
   viewBox="0 0 64 64"
   width="64px"
   height="64px"
   version="1.1"
   id="svg21061"
   sodipodi:docname="instagram.svg"
   inkscape:version="0.92.5 (2060ec1f9f, 2020-04-08)">
  <metadata
     id="metadata21067">
    <rdf:RDF>
      <cc:Work
         rdf:about="">
        <dc:format>image/svg+xml</dc:format>
        <dc:type
           rdf:resource="http://purl.org/dc/dcmitype/StillImage" />
      </cc:Work>
    </rdf:RDF>
  </metadata>
  <defs
     id="defs21065">
    <linearGradient
       inkscape:collect="always"
       id="linearGradient22310">
      <stop
         style="stop-color:#23003d;stop-opacity:1"
         offset="0"
         id="stop22306" />
      <stop
         style="stop-color:#9537e2;stop-opacity:0.91764706"
         offset="1"
         id="stop22308" />
    </linearGradient>
    <linearGradient
       inkscape:collect="always"
       xlink:href="#linearGradient22310"
       id="linearGradient22312"
       x1="1.070271"
       y1="1.1271186"
       x2="64.28566"
       y2="63.5"
       gradientUnits="userSpaceOnUse" />
  </defs>
  <sodipodi:namedview
     pagecolor="#ffffff"
     bordercolor="#666666"
     borderopacity="1"
     objecttolerance="10"
     gridtolerance="10"
     guidetolerance="10"
     inkscape:pageopacity="0"
     inkscape:pageshadow="2"
     inkscape:window-width="1366"
     inkscape:window-height="704"
     id="namedview21063"
     showgrid="false"
     inkscape:zoom="3.6875"
     inkscape:cx="-16.542373"
     inkscape:cy="32"
     inkscape:window-x="0"
     inkscape:window-y="27"
     inkscape:window-maximized="1"
     inkscape:current-layer="svg21061" />
  <radialGradient
     id="TGwjmZMm2W~B4yrgup6jda"
     cx="32"
     cy="32.5"
     r="31.259001"
     gradientTransform="matrix(1,0,0,-1,0,64)"
     gradientUnits="userSpaceOnUse"
     xlink:href="#TGwjmZMm2W~B4yrgup6jdb">
    <stop
       offset="0"
       stop-color="#efdcb1"
       id="stop21015" />
    <stop
       offset="0"
       stop-color="#f2e0bb"
       id="stop21017" />
    <stop
       offset=".011"
       stop-color="#f2e0bc"
       id="stop21019" />
    <stop
       offset=".362"
       stop-color="#f9edd2"
       id="stop21021" />
    <stop
       offset=".699"
       stop-color="#fef4df"
       id="stop21023" />
    <stop
       offset="1"
       stop-color="#fff7e4"
       id="stop21025" />
  </radialGradient>
  <path
     fill="url(#TGwjmZMm2W~B4yrgup6jda)"
     d="M58,54c-1.1,0-2-0.9-2-2s0.9-2,2-2h2.5c1.9,0,3.5-1.6,3.5-3.5S62.4,43,60.5,43H50c-1.4,0-2.5-1.1-2.5-2.5 S48.6,38,50,38h8c1.7,0,3-1.3,3-3s-1.3-3-3-3H42v-6h18c2.3,0,4.2-2,4-4.4c-0.2-2.1-2.1-3.6-4.2-3.6H58c-1.1,0-2-0.9-2-2s0.9-2,2-2 h0.4c1.3,0,2.5-0.9,2.6-2.2c0.2-1.5-1-2.8-2.5-2.8h-14C43.7,9,43,8.3,43,7.5S43.7,6,44.5,6h3.9c1.3,0,2.5-0.9,2.6-2.2 C51.1,2.3,50,1,48.5,1H15.6c-1.3,0-2.5,0.9-2.6,2.2C12.9,4.7,14,6,15.5,6H19c1.1,0,2,0.9,2,2s-0.9,2-2,2H6.2c-2.1,0-4,1.5-4.2,3.6 C1.8,16,3.7,18,6,18h2.5c1.9,0,3.5,1.6,3.5,3.5S10.4,25,8.5,25H5.2c-2.1,0-4,1.5-4.2,3.6C0.8,31,2.7,33,5,33h17v11H6 c-1.7,0-3,1.3-3,3s1.3,3,3,3l0,0c1.1,0,2,0.9,2,2s-0.9,2-2,2H4.2c-2.1,0-4,1.5-4.2,3.6C-0.2,60,1.7,62,4,62h53.8 c2.1,0,4-1.5,4.2-3.6C62.2,56,60.3,54,58,54z"
     id="path21028"
     style="fill-opacity:1;fill:url(#linearGradient22312)" />
  <radialGradient
     id="TGwjmZMm2W~B4yrgup6jdb"
     cx="18.51"
     cy="66.293"
     r="69.648"
     gradientTransform="matrix(.6435 -.7654 .5056 .4251 -26.92 52.282)"
     gradientUnits="userSpaceOnUse">
    <stop
       offset=".073"
       stop-color="#eacc7b"
       id="stop21030" />
    <stop
       offset=".184"
       stop-color="#ecaa59"
       id="stop21032" />
    <stop
       offset=".307"
       stop-color="#ef802e"
       id="stop21034" />
    <stop
       offset=".358"
       stop-color="#ef6d3a"
       id="stop21036" />
    <stop
       offset=".46"
       stop-color="#f04b50"
       id="stop21038" />
    <stop
       offset=".516"
       stop-color="#f03e58"
       id="stop21040" />
    <stop
       offset=".689"
       stop-color="#db359e"
       id="stop21042" />
    <stop
       offset=".724"
       stop-color="#ce37a4"
       id="stop21044" />
    <stop
       offset=".789"
       stop-color="#ac3cb4"
       id="stop21046" />
    <stop
       offset=".877"
       stop-color="#7544cf"
       id="stop21048" />
    <stop
       offset=".98"
       stop-color="#2b4ff2"
       id="stop21050" />
  </radialGradient>
  <path
     fill="url(#TGwjmZMm2W~B4yrgup6jdb)"
     d="M45,57H19c-5.5,0-10-4.5-10-10V21c0-5.5,4.5-10,10-10h26c5.5,0,10,4.5,10,10v26C55,52.5,50.5,57,45,57z"
     id="path21053" />
  <path
     fill="#fff"
     d="M32,20c4.6,0,5.1,0,6.9,0.1c1.7,0.1,2.6,0.4,3.2,0.6c0.8,0.3,1.4,0.7,2,1.3c0.6,0.6,1,1.2,1.3,2 c0.2,0.6,0.5,1.5,0.6,3.2C46,28.9,46,29.4,46,34s0,5.1-0.1,6.9c-0.1,1.7-0.4,2.6-0.6,3.2c-0.3,0.8-0.7,1.4-1.3,2 c-0.6,0.6-1.2,1-2,1.3c-0.6,0.2-1.5,0.5-3.2,0.6C37.1,48,36.6,48,32,48s-5.1,0-6.9-0.1c-1.7-0.1-2.6-0.4-3.2-0.6 c-0.8-0.3-1.4-0.7-2-1.3c-0.6-0.6-1-1.2-1.3-2c-0.2-0.6-0.5-1.5-0.6-3.2C18,39.1,18,38.6,18,34s0-5.1,0.1-6.9 c0.1-1.7,0.4-2.6,0.6-3.2c0.3-0.8,0.7-1.4,1.3-2c0.6-0.6,1.2-1,2-1.3c0.6-0.2,1.5-0.5,3.2-0.6C26.9,20,27.4,20,32,20 M32,17 c-4.6,0-5.2,0-7,0.1c-1.8,0.1-3,0.4-4.1,0.8c-1.1,0.4-2.1,1-3,2s-1.5,1.9-2,3c-0.4,1.1-0.7,2.3-0.8,4.1C15,28.8,15,29.4,15,34 s0,5.2,0.1,7c0.1,1.8,0.4,3,0.8,4.1c0.4,1.1,1,2.1,2,3c0.9,0.9,1.9,1.5,3,2c1.1,0.4,2.3,0.7,4.1,0.8c1.8,0.1,2.4,0.1,7,0.1 s5.2,0,7-0.1c1.8-0.1,3-0.4,4.1-0.8c1.1-0.4,2.1-1,3-2c0.9-0.9,1.5-1.9,2-3c0.4-1.1,0.7-2.3,0.8-4.1c0.1-1.8,0.1-2.4,0.1-7 s0-5.2-0.1-7c-0.1-1.8-0.4-3-0.8-4.1c-0.4-1.1-1-2.1-2-3s-1.9-1.5-3-2c-1.1-0.4-2.3-0.7-4.1-0.8C37.2,17,36.6,17,32,17L32,17z"
     id="path21055" />
  <path
     fill="#fff"
     d="M32,25c-5,0-9,4-9,9s4,9,9,9s9-4,9-9S37,25,32,25z M32,40c-3.3,0-6-2.7-6-6s2.7-6,6-6s6,2.7,6,6S35.3,40,32,40 z"
     id="path21057" />
  <circle
     cx="41"
     cy="25"
     r="2"
     fill="#fff"
     id="circle21059" />
</svg>
