<?xml version="1.0" encoding="UTF-8" standalone="no"?>
<!-- Created with Inkscape (http://www.inkscape.org/) -->

<svg
   xmlns:dc="http://purl.org/dc/elements/1.1/"
   xmlns:cc="http://creativecommons.org/ns#"
   xmlns:rdf="http://www.w3.org/1999/02/22-rdf-syntax-ns#"
   xmlns:svg="http://www.w3.org/2000/svg"
   xmlns="http://www.w3.org/2000/svg"
   xmlns:xlink="http://www.w3.org/1999/xlink"
   xmlns:sodipodi="http://sodipodi.sourceforge.net/DTD/sodipodi-0.dtd"
   xmlns:inkscape="http://www.inkscape.org/namespaces/inkscape"
   width="210mm"
   height="297mm"
   viewBox="0 0 210 297"
   version="1.1"
   id="svg6000"
   inkscape:version="0.92.5 (2060ec1f9f, 2020-04-08)"
   sodipodi:docname="logogizo.svg">
  <defs
     id="defs5994">
    <linearGradient
       inkscape:collect="always"
       xlink:href="#linearGradient6056"
       id="linearGradient2031-3"
       gradientUnits="userSpaceOnUse"
       x1="429.5842"
       y1="208.10297"
       x2="432.02307"
       y2="208.93056"
       gradientTransform="matrix(17.414811,0.17358215,-0.13684384,13.729002,-7407.2253,-2771.3634)" />
    <linearGradient
       inkscape:collect="always"
       id="linearGradient6056">
      <stop
         style="stop-color:#8c5dd0;stop-opacity:1;"
         offset="0"
         id="stop6052" />
      <stop
         style="stop-color:#3a1d65;stop-opacity:0.81632656"
         offset="1"
         id="stop6054" />
    </linearGradient>
    <linearGradient
       inkscape:collect="always"
       xlink:href="#linearGradient6048"
       id="linearGradient2033-3"
       gradientUnits="userSpaceOnUse"
       x1="431.38602"
       y1="205.21968"
       x2="432.81445"
       y2="207.43727"
       gradientTransform="matrix(17.414811,0.17358215,-0.13684384,13.729002,-7417.2809,-2758.6515)" />
    <linearGradient
       inkscape:collect="always"
       id="linearGradient6048">
      <stop
         style="stop-color:#5d71d0;stop-opacity:1;"
         offset="0"
         id="stop6044" />
      <stop
         style="stop-color:#212f71;stop-opacity:0.78431374"
         offset="1"
         id="stop6046" />
    </linearGradient>
    <linearGradient
       inkscape:collect="always"
       xlink:href="#linearGradient6040"
       id="linearGradient2043-5"
       gradientUnits="userSpaceOnUse"
       x1="434.23535"
       y1="204.19577"
       x2="434.19266"
       y2="207.46033"
       gradientTransform="matrix(17.414811,0.17358215,-0.13684384,13.729002,-7431.5238,-2754.5618)" />
    <linearGradient
       inkscape:collect="always"
       id="linearGradient6040">
      <stop
         style="stop-color:#0096be;stop-opacity:1;"
         offset="0"
         id="stop6036" />
      <stop
         style="stop-color:#004f65;stop-opacity:0.75686276"
         offset="1"
         id="stop6038" />
    </linearGradient>
    <linearGradient
       inkscape:collect="always"
       xlink:href="#linearGradient6014"
       id="linearGradient2049-3"
       gradientUnits="userSpaceOnUse"
       x1="437.09442"
       y1="205.08713"
       x2="435.48495"
       y2="207.84172"
       gradientTransform="matrix(17.414811,0.17358215,-0.13684384,13.729002,-7447.5581,-2759.1381)" />
    <linearGradient
       id="linearGradient6014"
       inkscape:collect="always">
      <stop
         id="stop6010"
         offset="0"
         style="stop-color:#da45bc;stop-opacity:1" />
      <stop
         id="stop6012"
         offset="1"
         style="stop-color:#821a73;stop-opacity:0.84313726" />
    </linearGradient>
    <linearGradient
       inkscape:collect="always"
       xlink:href="#linearGradient5974"
       id="linearGradient2051-5"
       gradientUnits="userSpaceOnUse"
       x1="438.93909"
       y1="207.96413"
       x2="436.36426"
       y2="208.94865"
       gradientTransform="matrix(17.414811,0.17358215,-0.13684384,13.729002,-7455.9777,-2772.5846)" />
    <linearGradient
       inkscape:collect="always"
       id="linearGradient5974">
      <stop
         style="stop-color:#d84182;stop-opacity:1;"
         offset="0"
         id="stop5970" />
      <stop
         style="stop-color:#5d1632;stop-opacity:0.75686276"
         offset="1"
         id="stop5972" />
    </linearGradient>
  </defs>
  <sodipodi:namedview
     id="base"
     pagecolor="#ffffff"
     bordercolor="#666666"
     borderopacity="1.0"
     inkscape:pageopacity="0.0"
     inkscape:pageshadow="2"
     inkscape:zoom="0.98994949"
     inkscape:cx="461.83732"
     inkscape:cy="628.76491"
     inkscape:document-units="mm"
     inkscape:current-layer="layer1"
     showgrid="false"
     inkscape:window-width="1366"
     inkscape:window-height="704"
     inkscape:window-x="0"
     inkscape:window-y="27"
     inkscape:window-maximized="1" />
  <metadata
     id="metadata5997">
    <rdf:RDF>
      <cc:Work
         rdf:about="">
        <dc:format>image/svg+xml</dc:format>
        <dc:type
           rdf:resource="http://purl.org/dc/dcmitype/StillImage" />
        <dc:title></dc:title>
      </cc:Work>
    </rdf:RDF>
  </metadata>
  <g
     inkscape:label="Layer 1"
     inkscape:groupmode="layer"
     id="layer1">
    <path
       style="opacity:1;fill:url(#linearGradient2031-3);fill-opacity:1;stroke:none;stroke-width:1.12984252;stroke-miterlimit:4;stroke-dasharray:none;stroke-opacity:0.8627451"
       d="m 27.547446,176.06435 c -1.877949,-0.32353 -3.861865,-1.02022 -4.409175,-1.55086 -0.569249,-0.55076 1.055968,-6.168 3.79768,-13.12338 2.636108,-6.68774 5.120589,-14.35898 5.521122,-17.04711 1.226247,-8.22173 1.691386,-9.63257 3.382887,-10.24923 0.952726,-0.34751 11.187978,6.24432 24.645264,15.87302 28.969533,20.7275 33.134415,24.09299 31.619151,25.54787 -1.215135,1.16732 -58.144491,1.65203 -64.556929,0.54969 z"
       id="path2595-4-9-3-0"
       inkscape:connector-curvature="0" />
    <path
       style="opacity:1;fill:url(#linearGradient2033-3);fill-opacity:1;stroke:none;stroke-width:1.12984252;stroke-miterlimit:4;stroke-dasharray:none;stroke-opacity:0.8627451"
       d="m 76.037167,158.13847 c -32.933735,-22.77659 -37.110581,-26.14702 -35.49854,-28.6462 0.309417,-0.47885 5.142998,-3.44423 10.742569,-6.58923 5.599021,-3.14488 12.96808,-8.16883 16.375709,-11.16406 3.407395,-2.99537 6.963387,-5.30191 7.902101,-5.12586 1.142159,0.21457 4.697799,9.41258 10.734333,27.7627 10.224131,31.07926 12.532743,35.94514 9.977682,35.91967 -0.935195,-0.009 -10.663122,-5.53805 -20.233854,-12.15702 z"
       id="path2607-2-1-8-7"
       inkscape:connector-curvature="0"
       sodipodi:nodetypes="ccccccsc" />
    <path
       style="opacity:1;fill:url(#linearGradient2043-5);fill-opacity:1;stroke:none;stroke-width:1.12984252;stroke-miterlimit:4;stroke-dasharray:none;stroke-opacity:0.8627451"
       d="M 97.544253,159.06015 C 91.251545,142.4327 80.622667,108.03669 81.276456,106.4156 c 0.549871,-1.3648 2.824638,-1.48205 14.022453,-0.72249 8.289251,0.56317 16.359421,0.46649 21.249141,-0.25364 5.41317,-0.79733 8.24847,-0.79653 9.04713,0.008 1.39859,1.39673 0.0126,5.8284 -10.99212,35.12201 -9.29237,24.73833 -10.42925,27.24871 -12.33168,27.22975 -0.7854,-0.008 -2.911948,-3.93805 -4.727179,-8.73377 z"
       id="path2617-0-7-6-6"
       inkscape:connector-curvature="0" />
    <path
       style="opacity:1;fill:url(#linearGradient2049-3);fill-opacity:1;stroke:none;stroke-width:1.12984252;stroke-miterlimit:4;stroke-dasharray:none;stroke-opacity:0.8627451"
       d="m 107.88779,169.91372 c -0.59757,-1.56985 16.86854,-51.88835 20.05705,-57.78383 0.94756,-1.75147 2.35034,-3.17753 3.11783,-3.16879 0.7678,0.009 5.46882,3.0719 10.44737,6.80689 4.9784,3.73513 12.49765,8.45629 16.70916,10.49165 4.41913,2.13559 7.64932,4.40859 7.63797,5.37495 -0.0102,0.92121 -10.9935,9.17133 -24.40607,18.33406 -29.46138,20.12642 -32.751,22.0811 -33.56331,19.94507 z"
       id="path2637-69-7-8-3"
       inkscape:connector-curvature="0" />
    <path
       style="opacity:1;fill:url(#linearGradient2051-5);fill-opacity:1;stroke:none;stroke-width:1.12984252;stroke-miterlimit:4;stroke-dasharray:none;stroke-opacity:0.8627451"
       d="m 124.38305,176.20499 c -5.63511,-0.26898 -10.63401,-0.87626 -11.10862,-1.35057 -1.33126,-1.33002 3.64588,-5.29888 27.86396,-22.22112 24.5942,-17.18487 26.98913,-18.58196 28.78186,-16.79067 0.64992,0.65043 2.416,6.15496 3.92346,12.23373 1.50691,6.07876 4.24368,14.22398 6.08025,18.10038 5.39198,11.37993 6.34695,10.90188 -21.37301,10.69533 -13.15721,-0.10344 -28.53276,-0.39427 -34.1679,-0.66736 z"
       id="path2639-38-0-4-7"
       inkscape:connector-curvature="0" />
  </g>
</svg>
