<svg width="1440" height="963" viewBox="0 0 1440 963" fill="none" xmlns="http://www.w3.org/2000/svg">
<g style="mix-blend-mode:color-burn" opacity="0.7">
<path d="M9.58878 951.272C-8.09644 946.951 -26.7796 937.645 -31.9338 930.558C-37.2946 923.202 -21.9894 848.175 3.83016 755.275C28.6552 665.95 52.0523 563.489 55.8243 527.585C67.3722 417.771 71.7525 398.927 87.6819 390.691C96.6541 386.049 193.043 474.093 319.774 602.699C592.589 879.547 631.811 924.498 617.541 943.93C606.098 959.521 69.9767 965.995 9.58878 951.272Z" fill="url(#paint0_linear)"/>
<path d="M466.232 711.845C156.085 407.629 116.75 362.612 131.931 329.231C134.845 322.836 180.364 283.229 233.097 241.222C285.825 199.218 355.221 132.115 387.312 92.1094C419.401 52.1016 452.889 21.2943 461.729 23.6457C472.485 26.5116 505.969 149.365 562.817 394.459C659.101 809.57 680.842 874.561 656.78 874.221C647.973 874.1 556.362 800.252 466.232 711.845Z" fill="url(#paint1_linear)"/>
<path d="M668.77 724.156C609.51 502.071 509.415 42.6597 515.572 21.0076C520.75 2.77863 542.172 1.2125 647.625 11.3576C725.688 18.8796 801.687 17.5883 847.735 7.96984C898.712 -2.67971 925.413 -2.66899 932.935 8.07674C946.106 26.7322 933.053 85.9238 829.418 477.185C741.909 807.603 731.203 841.133 713.287 840.879C705.891 840.773 685.865 788.281 668.77 724.227L668.77 724.156Z" fill="url(#paint2_linear)"/>
<path d="M766.179 869.123C760.551 848.155 925.035 176.075 955.062 97.3317C963.986 73.9381 977.196 54.8909 984.424 55.0076C991.654 55.1278 1035.93 96.0376 1082.81 145.924C1129.69 195.812 1200.5 258.871 1240.17 286.056C1281.78 314.58 1312.2 344.939 1312.09 357.847C1312 370.151 1208.57 480.344 1082.25 602.726C804.808 871.545 773.829 897.653 766.179 869.123Z" fill="url(#paint3_linear)"/>
<path d="M921.52 953.149C868.453 949.557 821.376 941.445 816.907 935.11C804.37 917.346 851.241 864.336 1079.31 638.313C1310.92 408.783 1333.48 390.123 1350.36 414.049C1356.48 422.736 1373.11 496.257 1387.31 577.449C1401.5 658.64 1427.27 767.432 1444.57 819.207C1495.34 971.203 1504.34 964.818 1243.29 962.059C1119.38 960.678 974.588 956.793 921.52 953.146V953.149Z" fill="url(#paint4_linear)"/>
</g>
<defs>
<linearGradient id="paint0_linear" x1="177.945" y1="740.058" x2="586.236" y2="867.385" gradientUnits="userSpaceOnUse">
<stop stop-color="#8C5DD0"/>
<stop offset="1" stop-color="#3A1D65" stop-opacity="0.816327"/>
</linearGradient>
<linearGradient id="paint1_linear" x1="382.464" y1="385.309" x2="651.765" y2="768.642" gradientUnits="userSpaceOnUse">
<stop stop-color="#5D71D0"/>
<stop offset="1" stop-color="#212F71" stop-opacity="0.784314"/>
</linearGradient>
<linearGradient id="paint2_linear" x1="716.945" y1="258.784" x2="699.736" y2="857.14" gradientUnits="userSpaceOnUse">
<stop stop-color="#0096BE"/>
<stop offset="1" stop-color="#004F65" stop-opacity="0.756863"/>
</linearGradient>
<linearGradient id="paint3_linear" x1="1033.69" y1="367.74" x2="718.803" y2="837.354" gradientUnits="userSpaceOnUse">
<stop stop-color="#DA45BC"/>
<stop offset="1" stop-color="#821A73" stop-opacity="0.843137"/>
</linearGradient>
<linearGradient id="paint4_linear" x1="1253.22" y1="719.976" x2="819.658" y2="864.494" gradientUnits="userSpaceOnUse">
<stop stop-color="#D84182"/>
<stop offset="1" stop-color="#5D1632" stop-opacity="0.756863"/>
</linearGradient>
</defs>
</svg>
