<svg width="100" height="100" viewBox="0 0 100 100" fill="none" xmlns="http://www.w3.org/2000/svg">
<path opacity="0.15" d="M100 2.79522V29.7693C100 31.3147 98.7955 32.5688 97.3132 32.5688H65.3154C63.8339 32.5688 62.6328 31.3147 62.6328 29.7693V2.79522C62.6328 1.25324 63.8339 0 65.3154 0H97.3132C98.7955 0 100 1.25281 100 2.79522Z" fill="#E696D6"/>
<path d="M93.2989 85.3804C93.2989 85.9593 90.6615 86.4278 87.4081 86.4278C84.1548 86.4278 81.5182 85.9588 81.5182 85.3804C81.5182 84.8025 84.2389 84.6416 87.4923 84.6416C90.7448 84.6416 93.2989 84.803 93.2989 85.3804Z" fill="#10232F"/>
<path d="M98.3128 57.3224C98.3128 57.3224 98.3097 57.3808 98.3065 57.488C98.2483 58.8038 97.6897 67.7205 93.2386 75.319C88.416 83.5474 90.974 86.6536 90.974 86.6536H88.162C88.162 86.6536 89.4016 62.5426 98.1908 57.3933C98.2311 57.3684 98.273 57.345 98.3128 57.3224Z" fill="#37982E"/>
<path d="M98.3129 57.3224C98.3129 57.3224 98.3097 57.3808 98.3065 57.488C97.8361 58.3744 94.8949 64.0369 92.2527 71.246C89.2952 79.3052 89.8581 85.7308 89.8645 85.7966C89.8701 85.8384 89.841 85.8807 89.8015 85.8835H89.7935C89.7593 85.8835 89.7282 85.8541 89.7226 85.8122C89.717 85.7469 89.1508 79.279 92.1203 71.1839C94.7773 63.9431 97.7348 58.2613 98.1913 57.3937C98.2312 57.3684 98.273 57.345 98.3129 57.3224Z" fill="#10232F"/>
<g opacity="0.24">
<g opacity="0.24">
<path opacity="0.24" d="M89.1871 77.6835L90.6447 81.3065C90.6447 81.3065 90.1511 83.5074 90.321 84.5271C90.4908 85.5464 90.5662 85.8034 90.5662 85.8034H89.7441L89.1025 78.2109L89.1871 77.6835Z" fill="black"/>
</g>
</g>
<path d="M88.0783 86.654H85.6583C85.6583 86.654 84.3174 78.981 78.7225 73.0431C78.6464 72.9613 78.6268 72.8514 78.6492 72.753C78.6607 72.7015 78.6827 72.6528 78.7138 72.61C78.776 72.5227 78.874 72.4707 78.9873 72.4932C80.3002 72.7686 83.0444 73.8509 85.9629 78.0384C90.022 83.8632 88.0783 86.654 88.0783 86.654Z" fill="#37982E"/>
<path d="M90.6451 87.0444H88.3036C88.3036 87.0444 87.912 85.7542 85.9628 78.0385C84.1452 70.8593 88.1596 59.5288 88.7318 57.9812V57.9785C88.7736 57.8617 88.7963 57.8033 88.7963 57.8033C88.8167 57.79 88.8382 57.7767 88.8585 57.7711C89.8102 57.4327 91.4672 63.2318 90.0973 68.0197C87.4304 77.3631 90.6451 87.0444 90.6451 87.0444Z" fill="#37982E"/>
<path d="M88.9682 86.3653C88.9822 86.4071 88.9626 86.4517 88.9283 86.4692C88.92 86.4724 88.912 86.4752 88.9036 86.4752C88.8749 86.4752 88.8474 86.4559 88.8358 86.4242C87.6952 82.9741 86.45 75.3167 87.6952 68.3614C88.7712 62.3518 88.7541 58.7854 88.7318 57.9817V57.979C88.7736 57.8622 88.7964 57.8038 88.7964 57.8038C88.8167 57.7905 88.8382 57.7772 88.8585 57.7716C88.8641 57.7813 88.8665 57.7905 88.8665 57.8006C88.8697 57.8355 89.0611 61.532 87.8331 68.3945C86.5932 75.3162 87.8331 82.9341 88.9682 86.3653Z" fill="#10232F"/>
<path d="M87.0409 86.1111C87.0441 86.157 87.0154 86.1961 86.9763 86.1984C86.9763 86.1984 86.9739 86.1984 86.9707 86.1984C86.9341 86.1984 86.9029 86.1694 86.8998 86.1276C86.261 77.7847 78.9506 72.9475 78.6487 72.7526C78.6603 72.7011 78.6822 72.6523 78.7133 72.6096C78.945 72.7567 86.3878 77.6422 87.0409 86.1111Z" fill="#10232F"/>
<path d="M92.1231 99.1578C92.1231 99.1578 90.7564 99.7325 87.4081 99.6433C84.8601 99.5761 82.3411 99.1578 82.3411 99.1578L81.5182 85.3349C81.5182 85.3349 83.2198 85.7759 87.4923 85.7759C92.0183 85.7759 93.2989 85.3349 93.2989 85.3349L92.1231 99.1578Z" fill="#FC5353"/>
<path d="M73.3395 29.3086L71.5197 27.3454" stroke="white" stroke-width="4" stroke-miterlimit="10" stroke-linecap="round" stroke-linejoin="round"/>
<path d="M73.3395 27.3454L71.5197 29.3086" stroke="white" stroke-width="4" stroke-miterlimit="10" stroke-linecap="round" stroke-linejoin="round"/>
<path d="M78.1589 29.3086L76.34 27.3454" stroke="white" stroke-width="4" stroke-miterlimit="10" stroke-linecap="round" stroke-linejoin="round"/>
<path d="M87.0108 17.2592C88.1784 17.2592 89.125 16.2374 89.125 14.9769C89.125 13.7164 88.1784 12.6945 87.0108 12.6945C85.8432 12.6945 84.8967 13.7164 84.8967 14.9769C84.8967 16.2374 85.8432 17.2592 87.0108 17.2592Z" fill="#2A94F4"/>
<path d="M77.6131 25.3457C78.7807 25.3457 79.7272 24.3239 79.7272 23.0634C79.7272 21.8029 78.7807 20.7811 77.6131 20.7811C76.4455 20.7811 75.499 21.8029 75.499 23.0634C75.499 24.3239 76.4455 25.3457 77.6131 25.3457Z" fill="#2A94F4"/>
<path d="M68.0776 17.2477C69.2455 17.2477 70.1922 16.2257 70.1922 14.9649C70.1922 13.7042 69.2455 12.6821 68.0776 12.6821C66.9098 12.6821 65.9631 13.7042 65.9631 14.9649C65.9631 16.2257 66.9098 17.2477 68.0776 17.2477Z" fill="#2A94F4"/>
<path d="M67.7508 14.5479V14.305H68.5781V14.4944C68.5097 14.5673 68.4404 14.6712 68.3694 14.8066C68.2992 14.9428 68.2457 15.0869 68.2081 15.2397C68.1713 15.3921 68.1538 15.5284 68.1538 15.6489H67.9206C67.9249 15.4605 67.9608 15.2684 68.0284 15.073C68.0969 14.8772 68.1871 14.7022 68.3009 14.5479H67.7508V14.5479Z" fill="black"/>
<path d="M72.6879 14.9155C72.6254 14.8869 72.5801 14.8481 72.5519 14.7973C72.5236 14.7479 72.5091 14.6929 72.5091 14.6338C72.5091 14.5317 72.5416 14.4491 72.6075 14.3816C72.6734 14.3151 72.7662 14.2823 72.8872 14.2823C73.0074 14.2823 73.1003 14.3151 73.1662 14.3816C73.2329 14.4491 73.2654 14.5317 73.2654 14.6338C73.2654 14.6971 73.2504 14.7534 73.2205 14.8019C73.1905 14.8513 73.1469 14.8887 73.0917 14.9155C73.1619 14.9455 73.2153 14.9899 73.2513 15.0476C73.2881 15.1062 73.3065 15.1732 73.3065 15.2494C73.3065 15.375 73.2688 15.4771 73.1944 15.5565C73.1208 15.635 73.0216 15.6743 72.8988 15.6743C72.7833 15.6743 72.6883 15.6424 72.6122 15.5764C72.5219 15.4997 72.477 15.3944 72.477 15.2605C72.477 15.1871 72.4937 15.1192 72.5279 15.0577C72.5617 14.9959 72.6152 14.9483 72.6879 14.9155ZM72.7153 15.2355C72.7153 15.3071 72.732 15.3635 72.767 15.4032C72.8004 15.4438 72.8432 15.4641 72.8941 15.4641C72.9441 15.4641 72.9852 15.4447 73.0186 15.4055C73.0511 15.3672 73.0669 15.3117 73.0669 15.2378C73.0669 15.1746 73.0502 15.1229 73.0177 15.0845C72.9843 15.0462 72.9416 15.0268 72.8915 15.0268C72.8321 15.0268 72.788 15.0485 72.7585 15.0928C72.7307 15.1363 72.7153 15.1838 72.7153 15.2355ZM72.7379 14.6518C72.7379 14.7035 72.7512 14.7442 72.779 14.7742C72.8055 14.8028 72.8423 14.8176 72.8877 14.8176C72.9334 14.8176 72.9702 14.8028 72.998 14.7733C73.0258 14.7437 73.04 14.7035 73.04 14.6513C73.04 14.6024 73.0258 14.5631 72.9989 14.5331C72.9715 14.504 72.9356 14.4892 72.8902 14.4892C72.8445 14.4892 72.8068 14.5036 72.779 14.534C72.7512 14.5641 72.7379 14.6033 72.7379 14.6518Z" fill="black"/>
<path d="M77.2156 15.3338L77.4496 15.3061C77.4556 15.3569 77.4706 15.3953 77.4945 15.4202C77.5185 15.4451 77.5506 15.4571 77.5899 15.4571C77.64 15.4571 77.6828 15.4322 77.7179 15.3828C77.7529 15.3338 77.7748 15.2309 77.7846 15.0743C77.7234 15.151 77.6477 15.1888 77.5566 15.1888C77.4573 15.1888 77.3718 15.1473 77.2999 15.0641C77.228 14.9815 77.1921 14.8739 77.1921 14.7418C77.1921 14.6032 77.2297 14.4924 77.3059 14.4079C77.382 14.3224 77.4787 14.2809 77.5968 14.2809C77.7247 14.2809 77.8291 14.3345 77.9108 14.4411C77.9934 14.5478 78.0344 14.7238 78.0344 14.9685C78.0344 15.2179 77.9916 15.3971 77.9057 15.5075C77.8205 15.6183 77.7093 15.6728 77.5724 15.6728C77.4731 15.6728 77.3936 15.6442 77.3324 15.5878C77.2717 15.531 77.2332 15.447 77.2156 15.3338ZM77.7628 14.7635C77.7628 14.679 77.7452 14.6148 77.7093 14.5677C77.6734 14.521 77.6314 14.4979 77.5848 14.4979C77.5399 14.4979 77.5031 14.5169 77.4736 14.5552C77.4436 14.5935 77.4291 14.6559 77.4291 14.7422C77.4291 14.83 77.4449 14.8951 77.4766 14.9362C77.5091 14.9769 77.5493 14.9981 77.5976 14.9981C77.6434 14.9981 77.6828 14.9778 77.7144 14.9385C77.7469 14.8988 77.7628 14.8411 77.7628 14.7635Z" fill="black"/>
<path d="M82.0694 15.6503H81.8281V14.6661C81.7395 14.7553 81.636 14.8213 81.5158 14.8647V14.6273C81.5783 14.6047 81.6471 14.5627 81.7211 14.5003C81.7947 14.438 81.8456 14.3659 81.873 14.2823H82.0694V15.6503Z" fill="black"/>
<path d="M82.8394 14.2823C82.9613 14.2823 83.0575 14.3299 83.126 14.4237C83.2077 14.535 83.2488 14.7206 83.2488 14.9788C83.2488 15.236 83.2077 15.4212 83.1251 15.5339C83.0567 15.6267 82.9613 15.6738 82.8394 15.6738C82.7166 15.6738 82.6169 15.6226 82.5421 15.5205C82.4672 15.4184 82.4291 15.2369 82.4291 14.9755C82.4291 14.7192 82.4711 14.5345 82.5536 14.4223C82.6216 14.3285 82.7175 14.2823 82.8394 14.2823ZM82.8394 14.4985C82.8103 14.4985 82.7842 14.5082 82.7607 14.5285C82.738 14.5488 82.7196 14.5848 82.7072 14.6366C82.6905 14.704 82.682 14.8181 82.682 14.9779C82.682 15.1372 82.6897 15.2471 82.7046 15.3071C82.7196 15.3667 82.7389 15.4064 82.7615 15.4263C82.7842 15.4466 82.8099 15.4563 82.8394 15.4563C82.8689 15.4563 82.8946 15.4457 82.9172 15.4263C82.9408 15.406 82.9583 15.3699 82.9716 15.3182C82.9874 15.2508 82.996 15.1372 82.996 14.9783C82.996 14.8181 82.9882 14.7081 82.9733 14.649C82.9592 14.5885 82.9399 14.5488 82.9172 14.5285C82.8946 14.5082 82.8689 14.4985 82.8394 14.4985Z" fill="black"/>
<path d="M86.8478 15.6503H86.6065V14.6661C86.518 14.7553 86.4145 14.8213 86.2943 14.8647V14.6273C86.3576 14.6047 86.4264 14.5627 86.4996 14.5003C86.574 14.438 86.6249 14.3659 86.6523 14.2823H86.8478V15.6503Z" fill="black"/>
<path d="M87.7307 15.6503H87.4895V14.6661C87.4009 14.7553 87.2974 14.8213 87.1772 14.8647V14.6273C87.2396 14.6047 87.3085 14.5627 87.3825 14.5003C87.457 14.438 87.507 14.3659 87.5344 14.2823H87.7307V15.6503Z" fill="black"/>
<path d="M91.5291 15.6503H91.2878V14.6661C91.1993 14.7553 91.0957 14.8213 90.9755 14.8647V14.6273C91.038 14.6047 91.1069 14.5627 91.1809 14.5003C91.2553 14.438 91.3054 14.3659 91.3327 14.2823H91.5291V15.6503Z" fill="black"/>
<path d="M92.7073 15.4059V15.6488H91.8602C91.8688 15.5569 91.8962 15.4696 91.9419 15.3879C91.9877 15.3061 92.0788 15.1971 92.2144 15.0618C92.3231 14.9519 92.3898 14.8776 92.4151 14.8383C92.4485 14.7852 92.4651 14.7321 92.4651 14.679C92.4651 14.6212 92.4502 14.576 92.4215 14.5441C92.3924 14.5136 92.3522 14.4975 92.3013 14.4975C92.2512 14.4975 92.2102 14.5141 92.1811 14.5469C92.1511 14.5792 92.1345 14.6342 92.1293 14.7104L91.8889 14.6841C91.903 14.54 91.9484 14.4374 92.0232 14.3751C92.0994 14.3123 92.1935 14.2809 92.3073 14.2809C92.4318 14.2809 92.5297 14.3169 92.6007 14.3899C92.6726 14.4619 92.7077 14.5524 92.7077 14.66C92.7077 14.7215 92.6979 14.7792 92.6769 14.8351C92.6568 14.8905 92.6251 14.9487 92.5806 15.0096C92.5516 15.0494 92.4989 15.1075 92.4219 15.1833C92.3458 15.2581 92.2974 15.3084 92.2773 15.3334C92.2564 15.3583 92.2397 15.3823 92.2273 15.4054H92.7073V15.4059Z" fill="black"/>
<path d="M96.2592 15.6503H96.0179V14.6661C95.9294 14.7553 95.8258 14.8213 95.7056 14.8647V14.6273C95.7681 14.6047 95.837 14.5627 95.911 14.5003C95.9854 14.438 96.0354 14.3659 96.0628 14.2823H96.2592V15.6503Z" fill="black"/>
<path d="M96.6117 15.2872L96.8457 15.2567C96.8542 15.3214 96.8731 15.3708 96.906 15.4045C96.9394 15.4382 96.9787 15.4558 97.0254 15.4558C97.0754 15.4558 97.1173 15.435 97.1516 15.3939C97.1849 15.3532 97.2025 15.2983 97.2025 15.2285C97.2025 15.163 97.1858 15.1112 97.1533 15.0729C97.1208 15.0346 97.0806 15.0147 97.0339 15.0147C97.0031 15.0147 96.9663 15.0216 96.9227 15.0346L96.9492 14.8217C97.0151 14.824 97.0647 14.8083 97.0989 14.7755C97.134 14.7432 97.1507 14.6998 97.1507 14.6462C97.1507 14.6005 97.1383 14.5635 97.1131 14.5367C97.0878 14.5099 97.0536 14.4961 97.0121 14.4961C96.971 14.4961 96.936 14.5109 96.906 14.5423C96.8769 14.5737 96.8594 14.6189 96.8534 14.6785L96.6305 14.6369C96.6463 14.5547 96.6699 14.4887 96.7007 14.4397C96.7315 14.3903 96.7751 14.352 96.8312 14.3229C96.888 14.2952 96.9505 14.2809 97.0198 14.2809C97.1383 14.2809 97.2328 14.3225 97.3047 14.4037C97.3642 14.4707 97.3941 14.5469 97.3941 14.6305C97.3941 14.7506 97.3329 14.8457 97.2119 14.9163C97.2846 14.9325 97.3424 14.9704 97.3856 15.029C97.4292 15.0868 97.4506 15.1574 97.4506 15.2396C97.4506 15.3592 97.4095 15.4613 97.3287 15.5458C97.2478 15.6299 97.1473 15.6719 97.0271 15.6719C96.9124 15.6719 96.8183 15.6359 96.743 15.5652C96.6677 15.4945 96.6241 15.4022 96.6117 15.2872Z" fill="black"/>
<path d="M67.8796 19.6981H67.6383V18.7139C67.5498 18.803 67.4463 18.8696 67.326 18.9125V18.6756C67.3885 18.653 67.4574 18.6109 67.5314 18.5486C67.605 18.4862 67.6559 18.4142 67.6832 18.3306H67.8796V19.6981Z" fill="black"/>
<path d="M68.7151 19.6981V19.4237H68.1987V19.1951L68.7459 18.3306H68.9491V19.1947H69.1061V19.4237H68.9491V19.6981H68.7151ZM68.7151 19.1947V18.7287L68.425 19.1947H68.7151Z" fill="black"/>
<path d="M72.6093 19.6981H72.368V18.7139C72.2795 18.803 72.1759 18.8696 72.0557 18.9125V18.6756C72.1182 18.653 72.1871 18.6109 72.2611 18.5486C72.3346 18.4862 72.3855 18.4142 72.4129 18.3306H72.6093V19.6981Z" fill="black"/>
<path d="M72.9745 19.348L73.215 19.3207C73.2218 19.3794 73.2423 19.426 73.2761 19.4607C73.3104 19.4949 73.3489 19.5124 73.3929 19.5124C73.4438 19.5124 73.4866 19.4898 73.5217 19.445C73.5568 19.4006 73.5743 19.3346 73.5743 19.245C73.5743 19.1614 73.5568 19.0991 73.5217 19.057C73.4875 19.0146 73.4421 18.9947 73.3865 18.9947C73.3172 18.9947 73.2543 19.0275 73.1991 19.094L73.0036 19.0631L73.1273 18.3542H73.7664V18.5985H73.3104L73.2727 18.8298C73.327 18.8012 73.3814 18.7864 73.4383 18.7864C73.5452 18.7864 73.6363 18.8285 73.7108 18.9125C73.7861 18.9966 73.8229 19.1055 73.8229 19.2404C73.8229 19.3522 73.7929 19.4524 73.7326 19.5401C73.6509 19.6607 73.5371 19.7207 73.3908 19.7207C73.2749 19.7207 73.1794 19.687 73.1059 19.6191C73.0323 19.5512 72.9887 19.4621 72.9745 19.348Z" fill="black"/>
<path d="M77.3393 19.6981H77.0971V18.7139C77.0086 18.803 76.9051 18.8696 76.7849 18.9125V18.6756C76.8482 18.653 76.917 18.6109 76.991 18.5486C77.0646 18.4862 77.1155 18.4142 77.1429 18.3306H77.3393V19.6981V19.6981Z" fill="black"/>
<path d="M78.52 18.6701L78.2852 18.6978C78.28 18.646 78.2651 18.6077 78.2407 18.5828C78.2163 18.5578 78.1855 18.5458 78.147 18.5458C78.0961 18.5458 78.0524 18.5712 78.0165 18.6197C77.9814 18.6691 77.9596 18.7721 77.9506 18.9296C78.011 18.8529 78.0858 18.8146 78.1752 18.8146C78.2762 18.8146 78.3626 18.8562 78.434 18.9388C78.5068 19.0224 78.5427 19.1291 78.5427 19.2603C78.5427 19.3997 78.5042 19.5115 78.4289 19.596C78.3528 19.6805 78.2552 19.7221 78.1363 19.7221C78.0092 19.7221 77.9049 19.669 77.8223 19.5618C77.7406 19.4547 77.6995 19.2801 77.6995 19.0363C77.6995 18.7864 77.7423 18.6068 77.8283 18.496C77.9134 18.3865 78.0246 18.3311 78.1607 18.3311C78.2569 18.3311 78.3361 18.3602 78.399 18.4179C78.4623 18.4761 78.5025 18.5597 78.52 18.6701ZM77.9712 19.239C77.9712 19.324 77.9896 19.3891 78.0264 19.4362C78.0623 19.4819 78.1034 19.505 78.15 19.505C78.1945 19.505 78.2317 19.4861 78.2621 19.4478C78.292 19.4104 78.3066 19.3485 78.3066 19.2626C78.3066 19.1744 78.2907 19.1088 78.2591 19.0682C78.2266 19.027 78.1863 19.0058 78.138 19.0058C78.0922 19.0058 78.0529 19.0261 78.0204 19.0654C77.9879 19.1042 77.9712 19.1624 77.9712 19.239Z" fill="black"/>
<path d="M82.0694 19.6981H81.8273V18.7139C81.7387 18.803 81.6352 18.8696 81.515 18.9125V18.6756C81.5783 18.653 81.6471 18.6109 81.7211 18.5486C81.7947 18.4862 81.8456 18.4142 81.873 18.3306H82.0694V19.6981V19.6981Z" fill="black"/>
<path d="M82.43 18.5976V18.3547H83.2573V18.544C83.1889 18.617 83.1196 18.7209 83.0486 18.8562C82.9784 18.9925 82.9249 19.1365 82.8881 19.2894C82.8505 19.4418 82.833 19.578 82.833 19.6981H82.5998C82.6041 19.5097 82.64 19.318 82.7076 19.1222C82.7761 18.9269 82.8663 18.7514 82.9801 18.5976H82.43V18.5976Z" fill="black"/>
<path d="M86.799 19.6981H86.5569V18.7139C86.4684 18.803 86.3648 18.8696 86.2446 18.9125V18.6756C86.3079 18.653 86.3768 18.6109 86.4508 18.5486C86.5244 18.4862 86.5753 18.4142 86.6027 18.3306H86.799V19.6981V19.6981Z" fill="black"/>
<path d="M87.3671 18.9638C87.3051 18.9351 87.2593 18.8963 87.2311 18.8455C87.2029 18.7961 87.1883 18.7407 87.1883 18.6816C87.1883 18.58 87.2217 18.4969 87.2867 18.4299C87.3526 18.3634 87.4454 18.3306 87.5673 18.3306C87.6867 18.3306 87.7795 18.3634 87.8454 18.4299C87.9121 18.4969 87.9455 18.58 87.9455 18.6816C87.9455 18.7449 87.9297 18.8017 87.8997 18.8501C87.8698 18.8996 87.8262 18.937 87.7718 18.9638C87.8411 18.9933 87.8946 19.0376 87.9314 19.0958C87.9673 19.1545 87.9857 19.2215 87.9857 19.2977C87.9857 19.4228 87.9481 19.5253 87.8745 19.6043C87.8001 19.6833 87.7008 19.7225 87.578 19.7225C87.4625 19.7225 87.3676 19.6902 87.2914 19.6246C87.2012 19.548 87.1562 19.4427 87.1562 19.3087C87.1562 19.2353 87.1729 19.1674 87.2072 19.106C87.2409 19.0441 87.2948 18.997 87.3671 18.9638ZM87.3949 19.2843C87.3949 19.3554 87.4125 19.4117 87.4467 19.4519C87.4801 19.4925 87.5237 19.5129 87.5738 19.5129C87.6238 19.5129 87.6657 19.493 87.6982 19.4542C87.7308 19.4159 87.7474 19.36 87.7474 19.2866C87.7474 19.2233 87.7308 19.1716 87.6974 19.1332C87.664 19.0949 87.6221 19.0751 87.5712 19.0751C87.5117 19.0751 87.4677 19.0972 87.4382 19.1416C87.4099 19.185 87.3949 19.2321 87.3949 19.2843ZM87.4176 18.7005C87.4176 18.7522 87.4317 18.7929 87.4587 18.8224C87.4861 18.8511 87.522 18.8663 87.5682 18.8663C87.6131 18.8663 87.6499 18.8515 87.6777 18.8215C87.7051 18.7929 87.7196 18.7518 87.7196 18.6996C87.7196 18.6511 87.7055 18.6118 87.6786 18.5814C87.6512 18.5527 87.6153 18.538 87.5699 18.538C87.5241 18.538 87.4865 18.5523 87.4587 18.5823C87.4317 18.6128 87.4176 18.652 87.4176 18.7005Z" fill="black"/>
<path d="M91.5291 19.6981H91.287V18.7139C91.1984 18.803 91.0949 18.8696 90.9747 18.9125V18.6756C91.038 18.653 91.1069 18.6109 91.1809 18.5486C91.2544 18.4862 91.3054 18.4142 91.3327 18.3306H91.5291V19.6981V19.6981Z" fill="black"/>
<path d="M91.8949 19.3835L92.1297 19.3554C92.1349 19.4066 92.1498 19.445 92.1742 19.4699C92.1986 19.4948 92.2303 19.5064 92.2705 19.5064C92.3197 19.5064 92.3624 19.4815 92.3975 19.432C92.4326 19.3836 92.4553 19.2806 92.4643 19.124C92.4031 19.2007 92.3274 19.2381 92.2363 19.2381C92.137 19.2381 92.0514 19.1965 91.9796 19.1138C91.9077 19.0312 91.8718 18.9236 91.8718 18.7915C91.8718 18.6529 91.9094 18.5417 91.9856 18.4576C92.0617 18.3722 92.1584 18.3306 92.2765 18.3306C92.4044 18.3306 92.5096 18.3837 92.5905 18.4908C92.673 18.5975 92.7141 18.7735 92.7141 19.0182C92.7141 19.2676 92.6713 19.4468 92.5853 19.5572C92.5002 19.6676 92.389 19.7225 92.2521 19.7225C92.1537 19.7225 92.0733 19.6939 92.0129 19.6376C91.9518 19.5803 91.9124 19.4962 91.8949 19.3835ZM92.4424 18.8123C92.4424 18.7282 92.4249 18.6636 92.389 18.6169C92.353 18.5703 92.312 18.5472 92.2645 18.5472C92.22 18.5472 92.1828 18.5661 92.1533 18.604C92.1242 18.6428 92.1088 18.7051 92.1088 18.7915C92.1088 18.8792 92.1246 18.9439 92.1571 18.9855C92.1888 19.0261 92.229 19.0469 92.2773 19.0469C92.3231 19.0469 92.3624 19.027 92.3941 18.9878C92.4275 18.9476 92.4424 18.8899 92.4424 18.8123Z" fill="black"/>
<path d="M96.4568 19.4556V19.6981H95.6089C95.6179 19.6066 95.6457 19.5193 95.6915 19.4376C95.7373 19.3558 95.8276 19.2464 95.964 19.1111C96.0727 19.0016 96.1394 18.9273 96.1647 18.888C96.1972 18.8349 96.2138 18.7813 96.2138 18.7287C96.2138 18.6705 96.1997 18.6252 96.1702 18.5938C96.142 18.5634 96.1018 18.5472 96.0509 18.5472C96 18.5472 95.9597 18.5634 95.9307 18.5966C95.9007 18.6289 95.8832 18.6834 95.878 18.7601L95.6376 18.7333C95.6517 18.5897 95.6971 18.4867 95.7728 18.4243C95.8485 18.362 95.9431 18.3306 96.0569 18.3306C96.1813 18.3306 96.2793 18.3666 96.3503 18.4396C96.4213 18.5116 96.4573 18.6022 96.4573 18.7093C96.4573 18.7712 96.4474 18.8289 96.4265 18.8843C96.4064 18.9402 96.3738 18.9979 96.3294 19.0589C96.3003 19.0991 96.2476 19.1568 96.1715 19.2325C96.0945 19.3078 96.047 19.3582 96.026 19.3831C96.0059 19.408 95.9893 19.4316 95.9769 19.4551H96.4568V19.4556Z" fill="black"/>
<path d="M97.0292 18.3306C97.1511 18.3306 97.2465 18.3782 97.3149 18.4719C97.3975 18.5832 97.4386 18.7684 97.4386 19.027C97.4386 19.2843 97.3967 19.469 97.3141 19.5817C97.2465 19.675 97.1511 19.7216 97.0292 19.7216C96.9055 19.7216 96.8067 19.6708 96.7318 19.5683C96.6565 19.4667 96.6189 19.2852 96.6189 19.0238C96.6189 18.767 96.6608 18.5823 96.7425 18.4705C96.8114 18.3772 96.9064 18.3306 97.0292 18.3306ZM97.0292 18.5472C97.0001 18.5472 96.9731 18.5569 96.9504 18.5767C96.9269 18.5975 96.9094 18.6336 96.897 18.6853C96.8803 18.7527 96.8717 18.8663 96.8717 19.0266C96.8717 19.1859 96.8794 19.2953 96.8944 19.3558C96.9094 19.4154 96.9278 19.4551 96.9504 19.4745C96.9731 19.4949 96.9996 19.5046 97.0292 19.5046C97.0587 19.5046 97.0844 19.4944 97.107 19.4745C97.1306 19.4542 97.1481 19.4182 97.1605 19.3665C97.1772 19.2995 97.1857 19.1859 97.1857 19.027C97.1857 18.8663 97.178 18.7569 97.1631 18.6973C97.1481 18.6372 97.1297 18.5975 97.107 18.5767C97.0835 18.5569 97.0587 18.5472 97.0292 18.5472Z" fill="black"/>
<path d="M68.0777 23.5044V23.7469H67.2298C67.2388 23.655 67.2666 23.5682 67.3124 23.4864C67.3581 23.4047 67.4493 23.2957 67.5849 23.1594C67.6935 23.0509 67.7603 22.9761 67.7855 22.9373C67.8189 22.8833 67.8356 22.8297 67.8356 22.7766C67.8356 22.7189 67.8206 22.6745 67.7911 22.6431C67.7628 22.6117 67.7226 22.596 67.6717 22.596C67.6216 22.596 67.5806 22.6122 67.5515 22.645C67.5216 22.6778 67.5049 22.7318 67.4997 22.8085L67.2593 22.7826C67.2734 22.639 67.3188 22.536 67.3936 22.4736C67.4698 22.4099 67.5639 22.3794 67.6777 22.3794C67.8022 22.3794 67.9001 22.4155 67.9712 22.4875C68.043 22.5605 68.0781 22.6501 68.0781 22.7581C68.0781 22.8195 68.0683 22.8782 68.0473 22.9336C68.0272 22.9886 67.9947 23.0472 67.9502 23.1073C67.9211 23.1479 67.8693 23.2061 67.7923 23.2814C67.7162 23.3571 67.6679 23.4074 67.6469 23.4315C67.6268 23.4564 67.6101 23.4809 67.5977 23.504H68.0777V23.5044Z" fill="black"/>
<path d="M68.8597 23.7473H68.6184V22.7632C68.5298 22.8528 68.4254 22.9184 68.3061 22.9613V22.7244C68.3685 22.7018 68.4374 22.6593 68.5114 22.5974C68.585 22.536 68.6359 22.463 68.6633 22.3799H68.8597V23.7473Z" fill="black"/>
<path d="M72.8073 23.5044V23.7469H71.9603C71.9689 23.655 71.9963 23.5682 72.042 23.4864C72.0878 23.4047 72.1789 23.2957 72.3145 23.1594C72.4232 23.0509 72.4899 22.9761 72.5152 22.9373C72.5485 22.8833 72.5652 22.8297 72.5652 22.7766C72.5652 22.7189 72.5502 22.6745 72.5207 22.6431C72.4925 22.6117 72.4523 22.596 72.4014 22.596C72.3513 22.596 72.3103 22.6122 72.2812 22.645C72.2512 22.6778 72.2345 22.7318 72.2294 22.8085L71.989 22.7826C72.0031 22.639 72.0484 22.536 72.1233 22.4736C72.1995 22.4099 72.2936 22.3794 72.4074 22.3794C72.5318 22.3794 72.6298 22.4155 72.7008 22.4875C72.7727 22.5605 72.8078 22.6501 72.8078 22.7581C72.8078 22.8195 72.7979 22.8782 72.777 22.9336C72.7569 22.9886 72.7244 23.0472 72.6807 23.1073C72.6516 23.1479 72.599 23.2061 72.522 23.2814C72.4459 23.3571 72.3975 23.4074 72.3766 23.4315C72.3565 23.4564 72.3398 23.4809 72.3274 23.504H72.8073V23.5044Z" fill="black"/>
<path d="M73.7874 23.5044V23.7469H72.9395C72.9484 23.655 72.9762 23.5682 73.022 23.4864C73.0678 23.4047 73.1589 23.2957 73.2945 23.1594C73.4032 23.0509 73.4699 22.9761 73.4952 22.9373C73.5285 22.8833 73.5452 22.8297 73.5452 22.7766C73.5452 22.7189 73.5302 22.6745 73.5007 22.6431C73.4725 22.6117 73.4323 22.596 73.3814 22.596C73.3313 22.596 73.2902 22.6122 73.2612 22.645C73.2312 22.6778 73.2145 22.7318 73.2094 22.8085L72.969 22.7826C72.9831 22.639 73.0284 22.536 73.1033 22.4736C73.1794 22.4099 73.2736 22.3794 73.3874 22.3794C73.5118 22.3794 73.6098 22.4155 73.6808 22.4875C73.7527 22.5605 73.7878 22.6501 73.7878 22.7581C73.7878 22.8195 73.7779 22.8782 73.757 22.9336C73.7369 22.9886 73.7044 23.0472 73.6599 23.1073C73.6308 23.1479 73.579 23.2061 73.502 23.2814C73.4259 23.3571 73.3775 23.4074 73.3565 23.4315C73.3364 23.4564 73.3198 23.4809 73.3074 23.504H73.7874V23.5044Z" fill="black"/>
<path d="M77.5374 23.5044V23.7469H76.6895C76.6985 23.655 76.7263 23.5682 76.7721 23.4864C76.8178 23.4047 76.9081 23.2957 77.0437 23.1594C77.1532 23.0509 77.22 22.9761 77.2452 22.9373C77.2777 22.8833 77.2944 22.8297 77.2944 22.7766C77.2944 22.7189 77.2803 22.6745 77.2508 22.6431C77.2213 22.6117 77.1823 22.596 77.1314 22.596C77.0805 22.596 77.0403 22.6122 77.0104 22.645C76.9813 22.6778 76.9637 22.7318 76.9586 22.8085L76.7182 22.7826C76.7323 22.639 76.7776 22.536 76.8534 22.4736C76.9286 22.4099 77.0236 22.3794 77.1374 22.3794C77.2619 22.3794 77.3599 22.4155 77.4309 22.4875C77.5019 22.5605 77.5378 22.6501 77.5378 22.7581C77.5378 22.8195 77.528 22.8782 77.507 22.9336C77.4869 22.9886 77.4544 23.0472 77.4099 23.1073C77.3808 23.1479 77.3282 23.2061 77.2512 23.2814C77.1751 23.3571 77.1276 23.4074 77.1066 23.4315C77.0865 23.4564 77.0698 23.4809 77.0574 23.504H77.5374V23.5044Z" fill="black"/>
<path d="M77.6918 23.3862L77.9258 23.3557C77.9335 23.4204 77.9532 23.4689 77.9861 23.503C78.019 23.5372 78.0588 23.5538 78.1046 23.5538C78.1546 23.5538 78.1966 23.5335 78.2308 23.4929C78.265 23.4513 78.2817 23.3964 78.2817 23.3275C78.2817 23.262 78.2659 23.2093 78.2334 23.171C78.2008 23.1327 78.1606 23.1142 78.114 23.1142C78.0823 23.1142 78.0456 23.1202 78.0028 23.1336L78.0293 22.9207C78.0943 22.9221 78.1448 22.9073 78.179 22.8745C78.2132 22.8417 78.2308 22.7988 78.2308 22.7447C78.2308 22.6985 78.2184 22.6625 78.1923 22.6353C78.1671 22.608 78.1337 22.5946 78.0922 22.5946C78.0511 22.5946 78.0152 22.6099 77.9861 22.6413C77.957 22.6718 77.9395 22.717 77.9326 22.7766L77.7097 22.7359C77.7256 22.6533 77.7491 22.5877 77.7808 22.5378C77.8116 22.4893 77.8552 22.4501 77.9112 22.4224C77.9673 22.3937 78.0297 22.3799 78.099 22.3799C78.2175 22.3799 78.3129 22.4205 78.3848 22.5027C78.4442 22.5697 78.4733 22.645 78.4733 22.729C78.4733 22.8486 78.413 22.9442 78.292 23.0153C78.3638 23.032 78.4216 23.0694 78.4648 23.1276C78.5084 23.1862 78.5298 23.256 78.5298 23.3386C78.5298 23.4582 78.4896 23.5598 78.4087 23.6439C78.3279 23.7279 78.2265 23.77 78.1063 23.77C77.9917 23.77 77.8984 23.7349 77.8223 23.6642C77.747 23.5931 77.7038 23.5003 77.6918 23.3862Z" fill="black"/>
<path d="M82.2675 23.5044V23.7469H81.4196C81.4286 23.655 81.4564 23.5682 81.5022 23.4864C81.548 23.4047 81.6382 23.2957 81.7738 23.1594C81.8833 23.0509 81.9501 22.9761 81.9753 22.9373C82.0078 22.8833 82.0245 22.8297 82.0245 22.7766C82.0245 22.7189 82.0104 22.6745 81.9809 22.6431C81.9514 22.6117 81.9124 22.596 81.8615 22.596C81.8106 22.596 81.7704 22.6122 81.7405 22.645C81.7114 22.6778 81.6938 22.7318 81.6887 22.8085L81.4483 22.7826C81.4624 22.639 81.5077 22.536 81.5835 22.4736C81.6587 22.4099 81.7537 22.3794 81.8675 22.3794C81.992 22.3794 82.09 22.4155 82.161 22.4875C82.232 22.5605 82.2679 22.6501 82.2679 22.7581C82.2679 22.8195 82.2581 22.8782 82.2371 22.9336C82.217 22.9886 82.1845 23.0472 82.14 23.1073C82.1109 23.1479 82.0583 23.2061 81.9813 23.2814C81.9052 23.3571 81.8577 23.4074 81.8367 23.4315C81.8166 23.4564 81.7999 23.4809 81.7875 23.504H82.2675V23.5044Z" fill="black"/>
<path d="M82.9048 23.7473V23.473H82.3885V23.2449L82.9356 22.3799H83.1388V23.244H83.295V23.473H83.1388V23.7473H82.9048V23.7473ZM82.9048 23.244V22.7784L82.6148 23.244H82.9048Z" fill="black"/>
<path d="M86.9971 23.5044V23.7469H86.1492C86.1582 23.655 86.186 23.5682 86.2318 23.4864C86.2776 23.4047 86.3678 23.2957 86.5034 23.1594C86.613 23.0509 86.6797 22.9761 86.7049 22.9373C86.7374 22.8833 86.7541 22.8297 86.7541 22.7766C86.7541 22.7189 86.74 22.6745 86.7105 22.6431C86.681 22.6117 86.642 22.596 86.5911 22.596C86.5402 22.596 86.5 22.6122 86.4701 22.645C86.441 22.6778 86.4234 22.7318 86.4183 22.8085L86.1779 22.7826C86.192 22.639 86.2374 22.536 86.3131 22.4736C86.3892 22.4099 86.4833 22.3794 86.5971 22.3794C86.7216 22.3794 86.8196 22.4155 86.8906 22.4875C86.9616 22.5605 86.9975 22.6501 86.9975 22.7581C86.9975 22.8195 86.9877 22.8782 86.9667 22.9336C86.9466 22.9886 86.9141 23.0472 86.8696 23.1073C86.8405 23.1479 86.7879 23.2061 86.7118 23.2814C86.6348 23.3571 86.5873 23.4074 86.5663 23.4315C86.5462 23.4564 86.5295 23.4809 86.5171 23.504H86.9971V23.5044Z" fill="black"/>
<path d="M87.1635 23.3972L87.4048 23.37C87.4116 23.4286 87.4313 23.4758 87.466 23.5099C87.4993 23.5436 87.5387 23.5612 87.5827 23.5612C87.6328 23.5612 87.6764 23.539 87.7106 23.4947C87.7457 23.4499 87.7633 23.3834 87.7633 23.2947C87.7633 23.2102 87.7457 23.1479 87.7115 23.1058C87.6764 23.0643 87.6311 23.043 87.5763 23.043C87.507 23.043 87.4441 23.0763 87.3889 23.1423L87.1926 23.1118L87.3171 22.4039H87.9562V22.6482H87.5002L87.4625 22.8786C87.516 22.85 87.5712 22.8352 87.6281 22.8352C87.735 22.8352 87.8261 22.8772 87.9006 22.9613C87.975 23.0453 88.0127 23.1552 88.0127 23.2892C88.0127 23.4019 87.9827 23.5021 87.9224 23.5889C87.8398 23.7094 87.726 23.7695 87.5806 23.7695C87.4638 23.7695 87.3693 23.7358 87.2957 23.6679C87.2221 23.6018 87.1776 23.5109 87.1635 23.3972Z" fill="black"/>
<path d="M91.7272 23.5044V23.7469H90.8793C90.8883 23.655 90.9161 23.5682 90.9618 23.4864C91.0076 23.4047 91.0979 23.2957 91.2344 23.1594C91.343 23.0509 91.4097 22.9761 91.435 22.9373C91.4675 22.8833 91.4842 22.8297 91.4842 22.7766C91.4842 22.7189 91.4701 22.6745 91.4405 22.6431C91.4123 22.6117 91.3721 22.596 91.3212 22.596C91.2703 22.596 91.2301 22.6122 91.2001 22.645C91.171 22.6778 91.1535 22.7318 91.1484 22.8085L90.9079 22.7826C90.9221 22.639 90.9674 22.536 91.0431 22.4736C91.1193 22.4099 91.2134 22.3794 91.3272 22.3794C91.4517 22.3794 91.5496 22.4155 91.6206 22.4875C91.6917 22.5605 91.7276 22.6501 91.7276 22.7581C91.7276 22.8195 91.7178 22.8782 91.6968 22.9336C91.6767 22.9886 91.6442 23.0472 91.5997 23.1073C91.5706 23.1479 91.518 23.2061 91.4418 23.2814C91.3648 23.3571 91.3173 23.4074 91.2964 23.4315C91.2763 23.4564 91.2596 23.4809 91.2472 23.504H91.7272V23.5044Z" fill="black"/>
<path d="M92.7098 22.7189L92.4758 22.747C92.4698 22.6953 92.4548 22.656 92.4309 22.632C92.4065 22.6071 92.3757 22.5946 92.3372 22.5946C92.2863 22.5946 92.2426 22.6191 92.2076 22.6685C92.1716 22.7179 92.1498 22.8214 92.1408 22.9779C92.2011 22.9013 92.276 22.8629 92.3654 22.8629C92.4664 22.8629 92.5528 22.9041 92.6242 22.9881C92.6969 23.0708 92.7329 23.1779 92.7329 23.3091C92.7329 23.4481 92.6944 23.5598 92.6191 23.6444C92.5429 23.7289 92.4463 23.7704 92.3265 23.7704C92.1994 23.7704 92.0951 23.7173 92.0125 23.6102C91.9308 23.5035 91.8897 23.3285 91.8897 23.0842C91.8897 22.8357 91.9334 22.6547 92.0185 22.5452C92.1036 22.4348 92.2148 22.3799 92.3509 22.3799C92.4471 22.3799 92.5263 22.4085 92.5891 22.4667C92.652 22.5249 92.6922 22.6085 92.7098 22.7189ZM92.1614 23.2883C92.1614 23.3737 92.1789 23.4388 92.2157 23.485C92.2516 23.5317 92.2927 23.5538 92.3393 23.5538C92.3838 23.5538 92.421 23.5349 92.4514 23.4975C92.4813 23.4596 92.4959 23.3973 92.4959 23.3118C92.4959 23.2232 92.48 23.1585 92.4484 23.1169C92.4159 23.0754 92.3757 23.0555 92.3273 23.0555C92.2816 23.0555 92.2422 23.0749 92.2097 23.1142C92.1776 23.1539 92.1614 23.2116 92.1614 23.2883Z" fill="black"/>
<path d="M96.4568 23.5044V23.7469H95.6089C95.6179 23.655 95.6457 23.5682 95.6915 23.4864C95.7373 23.4047 95.8276 23.2957 95.964 23.1594C96.0727 23.0509 96.1394 22.9761 96.1647 22.9373C96.1972 22.8833 96.2138 22.8297 96.2138 22.7766C96.2138 22.7189 96.1997 22.6745 96.1702 22.6431C96.142 22.6117 96.1018 22.596 96.0509 22.596C96 22.596 95.9597 22.6122 95.9307 22.645C95.9007 22.6778 95.8832 22.7318 95.878 22.8085L95.6376 22.7826C95.6517 22.639 95.6971 22.536 95.7728 22.4736C95.8489 22.4099 95.9431 22.3794 96.0569 22.3794C96.1813 22.3794 96.2793 22.4155 96.3503 22.4875C96.4213 22.5605 96.4573 22.6501 96.4573 22.7581C96.4573 22.8195 96.4474 22.8782 96.4265 22.9336C96.4064 22.9886 96.3738 23.0472 96.3294 23.1073C96.3003 23.1479 96.2476 23.2061 96.1715 23.2814C96.0945 23.3571 96.047 23.4074 96.026 23.4315C96.0059 23.4564 95.9893 23.4809 95.9769 23.504H96.4568V23.5044Z" fill="black"/>
<path d="M96.6198 22.6459V22.4044H97.4471V22.5937C97.3787 22.6657 97.3094 22.7706 97.2392 22.9059C97.1682 23.0412 97.1148 23.1853 97.078 23.3382C97.0403 23.491 97.0228 23.6273 97.0228 23.7478H96.7896C96.7939 23.5598 96.8299 23.3682 96.8974 23.1714C96.9659 22.9761 97.057 22.8006 97.1699 22.6464H96.6198V22.6459Z" fill="black"/>
<path d="M67.5878 27.5541V27.7961H66.7399C66.7489 27.7047 66.7767 27.6178 66.8225 27.5361C66.8683 27.4543 66.9594 27.3454 67.095 27.2091C67.2036 27.1001 67.2704 27.0258 67.2956 26.9865C67.3281 26.9325 67.3448 26.8794 67.3448 26.8263C67.3448 26.7685 67.3307 26.7238 67.3012 26.6923C67.2729 26.6609 67.2327 26.6457 67.1818 26.6457C67.1318 26.6457 67.0907 26.6614 67.0616 26.6947C67.0317 26.7274 67.0141 26.7815 67.0099 26.8577L66.7694 26.8318C66.7836 26.6882 66.8281 26.5857 66.9038 26.5229C66.9799 26.4596 67.074 26.4291 67.1878 26.4291C67.3123 26.4291 67.4103 26.4651 67.4813 26.5372C67.5523 26.6101 67.5882 26.6997 67.5882 26.8078C67.5882 26.8688 67.5784 26.9274 67.5574 26.9833C67.5373 27.0383 67.5048 27.0969 67.4603 27.1569C67.4312 27.1976 67.3786 27.2553 67.3025 27.3306C67.2255 27.4063 67.178 27.4567 67.157 27.4811C67.1369 27.5056 67.1202 27.5306 67.1078 27.5536H67.5878V27.5541Z" fill="black"/>
<path d="M67.9587 27.0614C67.8962 27.0327 67.85 26.9939 67.8227 26.9441C67.7936 26.8937 67.779 26.8392 67.779 26.7806C67.779 26.6785 67.8124 26.5949 67.8774 26.5284C67.9433 26.4619 68.037 26.4291 68.1581 26.4291C68.2774 26.4291 68.3702 26.4619 68.437 26.5284C68.5029 26.5949 68.5362 26.6785 68.5362 26.7806C68.5362 26.8439 68.5212 26.8993 68.4904 26.9487C68.4605 26.9972 68.4177 27.0355 68.3625 27.0614C68.4327 27.0914 68.4853 27.1357 68.5221 27.1944C68.5589 27.2521 68.5764 27.3195 68.5764 27.3962C68.5764 27.5218 68.5396 27.6239 68.4652 27.7024C68.3908 27.7814 68.2924 27.8206 68.1688 27.8206C68.0541 27.8206 67.9583 27.7883 67.8821 27.7232C67.7919 27.6465 67.7469 27.5412 67.7469 27.4073C67.7469 27.3339 67.7645 27.2655 67.7979 27.2045C67.8325 27.1427 67.8851 27.0955 67.9587 27.0614ZM67.9857 27.3819C67.9857 27.4544 68.0032 27.5098 68.0374 27.5504C68.0716 27.5902 68.1144 27.6105 68.1653 27.6105C68.2154 27.6105 68.2565 27.5911 68.289 27.5528C68.3215 27.5135 68.3382 27.4581 68.3382 27.3851C68.3382 27.3209 68.3215 27.2701 68.2881 27.2318C68.2547 27.1925 68.2128 27.1731 68.1619 27.1731C68.1024 27.1731 68.0584 27.1958 68.0297 27.2392C68.0006 27.2826 67.9857 27.3311 67.9857 27.3819ZM68.0088 26.7986C68.0088 26.8508 68.022 26.8914 68.049 26.9205C68.0763 26.9496 68.1131 26.9639 68.1585 26.9639C68.2038 26.9639 68.241 26.9501 68.268 26.9205C68.2954 26.891 68.3099 26.8499 68.3099 26.7977C68.3099 26.7492 68.2958 26.7099 68.2689 26.6804C68.2415 26.6513 68.2055 26.6356 68.161 26.6356C68.1144 26.6356 68.0776 26.6508 68.0498 26.6813C68.0224 26.7104 68.0088 26.7496 68.0088 26.7986Z" fill="black"/>
<path d="M73.3848 11.5919H73.1435V10.6073C73.055 10.6969 72.9514 10.7634 72.8312 10.8059V10.5694C72.8937 10.5468 72.9634 10.5043 73.0366 10.4424C73.111 10.3796 73.1619 10.3076 73.1893 10.224H73.3848V11.5919Z" fill="black"/>
<path d="M78.3125 11.3483V11.5912H77.4655C77.4745 11.4998 77.5023 11.412 77.5481 11.3303C77.5938 11.2486 77.6841 11.1396 77.8197 11.0042C77.9292 10.8943 77.996 10.82 78.0203 10.7812C78.0537 10.7276 78.0704 10.6745 78.0704 10.6214C78.0704 10.5637 78.0554 10.5184 78.0268 10.487C77.9977 10.4561 77.9575 10.4399 77.9066 10.4399C77.8565 10.4399 77.8163 10.4565 77.7864 10.4893C77.7564 10.5216 77.7397 10.5766 77.7346 10.6528L77.4942 10.6265C77.5083 10.4824 77.5536 10.3799 77.6285 10.317C77.7047 10.2547 77.7996 10.2233 77.9126 10.2233C78.037 10.2233 78.135 10.2593 78.206 10.3323C78.2779 10.4043 78.3129 10.4949 78.3129 10.602C78.3129 10.6639 78.3031 10.7221 78.283 10.7775C78.2629 10.8329 78.2304 10.8911 78.1859 10.9521C78.1568 10.9918 78.1042 11.0495 78.0272 11.1257C77.951 11.201 77.9027 11.2509 77.8826 11.2758C77.8625 11.3012 77.8458 11.3248 77.8334 11.3478H78.3125V11.3483Z" fill="black"/>
<path d="M82.2178 11.2296L82.4518 11.1991C82.4595 11.2638 82.4792 11.3132 82.5122 11.3469C82.5451 11.3806 82.584 11.3977 82.6307 11.3977C82.6807 11.3977 82.7226 11.3779 82.7569 11.3363C82.7911 11.2957 82.8078 11.2407 82.8078 11.171C82.8078 11.1054 82.7911 11.0537 82.7586 11.0153C82.7269 10.977 82.6867 10.9576 82.6392 10.9576C82.6084 10.9576 82.5716 10.9641 82.528 10.977L82.5545 10.7641C82.6204 10.7664 82.67 10.7507 82.7051 10.7179C82.7393 10.686 82.756 10.6422 82.756 10.5886C82.756 10.5429 82.7436 10.5059 82.7184 10.4791C82.6931 10.4524 82.6589 10.4385 82.6174 10.4385C82.5763 10.4385 82.5412 10.4533 82.5122 10.4847C82.4831 10.5161 82.4647 10.5614 82.4587 10.6205L82.2358 10.5794C82.2516 10.4972 82.2752 10.4311 82.306 10.3822C82.3368 10.3328 82.3813 10.2944 82.4373 10.2658C82.4933 10.2376 82.5558 10.2233 82.6251 10.2233C82.7436 10.2233 82.839 10.2649 82.9109 10.3461C82.9695 10.4131 82.9994 10.4893 82.9994 10.5734C82.9994 10.6925 82.9382 10.7881 82.8172 10.8588C82.8899 10.8754 82.9477 10.9128 82.9909 10.9715C83.0345 11.0296 83.0559 11.0998 83.0559 11.182C83.0559 11.3017 83.0148 11.4037 82.934 11.4878C82.8535 11.5723 82.7526 11.6143 82.6324 11.6143C82.5177 11.6143 82.4236 11.5783 82.3483 11.5076C82.273 11.437 82.2298 11.3446 82.2178 11.2296Z" fill="black"/>
<path d="M87.43 11.5912V11.3164H86.9145V11.0883L87.4608 10.2233H87.664V11.0874H87.821V11.3164H87.664V11.5912H87.43V11.5912ZM87.43 11.0878V10.6223L87.1399 11.0878H87.43Z" fill="black"/>
<path d="M91.6895 11.2408L91.9308 11.2135C91.9376 11.2722 91.9573 11.3193 91.992 11.3535C92.0253 11.3881 92.0647 11.4052 92.1088 11.4052C92.1588 11.4052 92.2016 11.3826 92.2367 11.3382C92.2717 11.2934 92.2893 11.2279 92.2893 11.1378C92.2893 11.0542 92.2717 10.9923 92.2375 10.9498C92.2024 10.9078 92.1571 10.8875 92.1015 10.8875C92.0322 10.8875 91.9701 10.9207 91.915 10.9868L91.7186 10.9563L91.8431 10.2474H92.4814V10.4912H92.0262L91.9877 10.7231C92.042 10.694 92.0972 10.6792 92.1532 10.6792C92.261 10.6792 92.3522 10.7217 92.4266 10.8053C92.501 10.8898 92.5387 10.9988 92.5387 11.1332C92.5387 11.2454 92.5087 11.3456 92.4484 11.4329C92.3658 11.5534 92.2521 11.6139 92.1066 11.6139C91.9898 11.6139 91.8953 11.5802 91.8217 11.5123C91.7481 11.4444 91.7036 11.3553 91.6895 11.2408Z" fill="black"/>
<path d="M97.235 10.5637L97.001 10.5918C96.9959 10.5401 96.9809 10.5018 96.9565 10.4768C96.9321 10.4519 96.9013 10.4399 96.862 10.4399C96.8119 10.4399 96.7683 10.4648 96.7323 10.5133C96.6973 10.5627 96.6754 10.6662 96.6665 10.8232C96.7268 10.7465 96.8008 10.7082 96.891 10.7082C96.9911 10.7082 97.0784 10.7498 97.1499 10.8324C97.2217 10.916 97.2576 11.0227 97.2576 11.1543C97.2576 11.2938 97.22 11.4056 97.1439 11.4896C97.0686 11.5741 96.971 11.6162 96.8521 11.6162C96.7251 11.6162 96.6207 11.5626 96.5381 11.4559C96.4564 11.3483 96.4153 11.1737 96.4153 10.9299C96.4153 10.68 96.4581 10.5004 96.5433 10.39C96.6292 10.2806 96.7396 10.2247 96.8765 10.2247C96.9727 10.2247 97.0519 10.2538 97.1148 10.312C97.1781 10.3697 97.2183 10.4542 97.235 10.5637ZM96.687 11.1326C96.687 11.2181 96.7054 11.2832 96.7413 11.3298C96.7781 11.376 96.8192 11.3986 96.8658 11.3986C96.9103 11.3986 96.9475 11.3802 96.9779 11.3418C97.007 11.304 97.0224 11.2425 97.0224 11.1562C97.0224 11.0684 97.0065 11.0028 96.974 10.9622C96.9424 10.9206 96.9022 10.8994 96.8538 10.8994C96.808 10.8994 96.7687 10.9197 96.7362 10.959C96.7037 10.9982 96.687 11.056 96.687 11.1326Z" fill="black"/>
<path d="M67.3765 6.49924L67.6157 6.47337C67.6306 6.5602 67.6601 6.62439 67.7033 6.66503C67.7478 6.70567 67.8069 6.72599 67.8822 6.72599C67.9617 6.72599 68.0208 6.70798 68.061 6.67196C68.1012 6.63593 68.1222 6.59298 68.1222 6.54542C68.1222 6.51401 68.1132 6.48723 68.0961 6.46552C68.0794 6.44335 68.0503 6.42488 68.0075 6.40826C67.9793 6.3981 67.913 6.37916 67.8103 6.35099C67.6781 6.31589 67.5857 6.27202 67.5331 6.22122C67.4587 6.14917 67.4202 6.06004 67.4202 5.95659C67.4202 5.88963 67.4386 5.82682 67.4736 5.76863C67.5087 5.70998 67.5588 5.66565 67.6255 5.63471C67.6914 5.60515 67.7718 5.58945 67.8655 5.58945C68.0182 5.58945 68.1337 5.62547 68.2107 5.69751C68.2886 5.76956 68.3292 5.867 68.3326 5.988L68.0862 5.99908C68.0764 5.93166 68.0537 5.88224 68.0195 5.85361C67.9844 5.82405 67.9327 5.80881 67.8634 5.80881C67.7915 5.80881 67.7354 5.82452 67.6952 5.85638C67.6691 5.8767 67.6559 5.90395 67.6559 5.93858C67.6559 5.96906 67.6683 5.99631 67.6927 6.01848C67.7235 6.04711 67.7987 6.07574 67.919 6.10622C68.0383 6.1367 68.1269 6.16857 68.1846 6.2009C68.2415 6.23322 68.2864 6.27848 68.3189 6.33483C68.3515 6.39117 68.3673 6.4609 68.3673 6.54449C68.3673 6.61931 68.348 6.68997 68.3087 6.75555C68.2702 6.82205 68.215 6.871 68.1448 6.90241C68.073 6.93427 67.9853 6.95043 67.8792 6.95043C67.7256 6.95043 67.6067 6.9121 67.5241 6.83544C67.4415 6.75878 67.3924 6.64609 67.3765 6.49924Z" fill="#FD0000"/>
<path d="M95.7308 6.49927L95.97 6.47341C95.985 6.56023 96.0145 6.62442 96.0577 6.66506C96.1022 6.7057 96.1612 6.72602 96.2365 6.72602C96.3161 6.72602 96.3751 6.70801 96.4162 6.67199C96.4564 6.63597 96.4765 6.59302 96.4765 6.54545C96.4765 6.51405 96.4675 6.48726 96.4504 6.46555C96.4337 6.44338 96.4046 6.42491 96.3618 6.40829C96.3336 6.39813 96.2673 6.37919 96.1646 6.35102C96.0324 6.31592 95.9409 6.27205 95.8874 6.22125C95.813 6.1492 95.7753 6.06007 95.7753 5.95663C95.7753 5.88966 95.7929 5.82685 95.828 5.76866C95.863 5.71001 95.9139 5.66568 95.9798 5.63474C96.0457 5.60518 96.1261 5.58948 96.2198 5.58948C96.3725 5.58948 96.488 5.6255 96.565 5.69754C96.6429 5.76959 96.6835 5.86703 96.687 5.98803L96.4414 5.99911C96.4307 5.93169 96.408 5.88227 96.3738 5.85364C96.3387 5.82408 96.287 5.80884 96.2177 5.80884C96.1467 5.80884 96.0898 5.82455 96.0496 5.85641C96.0235 5.87673 96.0102 5.90398 96.0102 5.93861C96.0102 5.96909 96.0226 5.99634 96.047 6.01851C96.0778 6.04714 96.1531 6.07577 96.2733 6.10625C96.3926 6.13673 96.4812 6.1686 96.5389 6.20093C96.5967 6.23326 96.6408 6.27852 96.6733 6.33486C96.7058 6.3912 96.7216 6.46094 96.7216 6.54453C96.7216 6.61934 96.7024 6.69 96.663 6.75558C96.6245 6.82208 96.5693 6.87103 96.4992 6.90244C96.4281 6.9343 96.3396 6.95047 96.2335 6.95047C96.0799 6.95047 95.961 6.91214 95.8784 6.83547C95.7959 6.75881 95.7467 6.64613 95.7308 6.49927Z" fill="#FD0000"/>
<path d="M72.1382 6.92672V5.61099H72.5066L72.7282 6.50877L72.9463 5.61099H73.3155V6.92672H73.0866V5.89132L72.8454 6.92672H72.6079L72.3675 5.89132V6.92672H72.1382Z" fill="#FD0000"/>
<path d="M77.3111 6.92671V5.83359H76.9492V5.61145H77.9177V5.83359H77.5566V6.92671H77.3111Z" fill="#FD0000"/>
<path d="M81.4551 6.92672L81.1642 5.61099H81.4166L81.6005 6.51478L81.823 5.61099H82.1164L82.3295 6.53048L82.5169 5.61099H82.765L82.4694 6.92672H82.208L81.965 5.9435L81.7237 6.92672H81.4551Z" fill="#FD0000"/>
<path d="M86.8734 6.92671V5.83359H86.5115V5.61145H87.4801V5.83359H87.119V6.92671H86.8734Z" fill="#FD0000"/>
<path d="M91.2793 6.92672V5.61099H92.1147V5.83313H91.5248V6.14532H92.0335V6.36792H91.5248V6.92626H91.2793V6.92672Z" fill="#FD0000"/>
<path opacity="0.15" d="M54.7848 3.02336V80.8845C54.7848 82.5443 53.6131 83.896 52.1738 83.896H2.60389C1.16419 83.896 0 82.5447 0 80.8845V3.02336C0 1.36361 1.16419 0.0119019 2.60389 0.0119019H52.1738C53.6131 0.0123616 54.7848 1.36361 54.7848 3.02336Z" fill="#FFBE55"/>
<path opacity="0.9" d="M18.0861 13.2308H43.4968H52.0779C52.3628 13.2308 52.5874 12.9851 52.5874 12.6807V11.9871C52.5874 11.6795 52.3628 11.437 52.0779 11.437H43.4968H18.0861C17.8046 11.437 17.5766 11.6795 17.5766 11.9871V12.6807C17.5766 12.9851 17.8046 13.2308 18.0861 13.2308Z" fill="#591D4E"/>
<path opacity="0.9" d="M52.0787 14.8259H39.6921H18.0861C17.8038 14.8259 17.5775 15.0702 17.5775 15.3755V16.0687C17.5775 16.373 17.8038 16.621 18.0861 16.621H39.6921H52.0787C52.3611 16.621 52.5882 16.373 52.5882 16.0687V15.3755C52.5887 15.0707 52.3611 14.8259 52.0787 14.8259Z" fill="#591D4E"/>
<path opacity="0.9" d="M52.0787 18.3117H47.0645H18.0877C17.8063 18.3117 17.5782 18.5588 17.5782 18.8631V19.5554C17.5782 19.8602 17.8063 20.1059 18.0877 20.1059H47.0645H52.0787C52.3644 20.1059 52.589 19.8602 52.589 19.5554V18.8631C52.5895 18.5588 52.3644 18.3117 52.0787 18.3117Z" fill="#591D4E"/>
<path opacity="0.9" d="M18.0877 31.6879H43.4976H52.0787C52.3644 31.6879 52.589 31.4422 52.589 31.1374V30.4442C52.589 30.1371 52.3644 29.8941 52.0787 29.8941H43.4976H18.0877C17.8063 29.8941 17.5782 30.1371 17.5782 30.4442V31.1374C17.5782 31.4422 17.8063 31.6879 18.0877 31.6879Z" fill="#591D4E"/>
<path opacity="0.9" d="M52.0805 33.283H39.693H18.0879C17.8055 33.283 17.5784 33.5273 17.5784 33.8321V34.5257C17.5784 34.8301 17.8055 35.0781 18.0879 35.0781H39.693H52.0805C52.3629 35.0781 52.5892 34.8301 52.5892 34.5257V33.8321C52.5896 33.5273 52.3629 33.283 52.0805 33.283Z" fill="#591D4E"/>
<path opacity="0.9" d="M52.0788 36.7688H47.0647H18.0879C17.8064 36.7688 17.5784 37.0154 17.5784 37.3202V38.0125C17.5784 38.3169 17.8064 38.563 18.0879 38.563H47.0647H52.0788C52.3646 38.563 52.5892 38.3169 52.5892 38.0125V37.3202C52.5896 37.0154 52.3646 36.7688 52.0788 36.7688Z" fill="#591D4E"/>
<path d="M10.7512 12.8114C12.4106 13.1855 13.4775 14.9469 13.1305 16.7374C12.7844 18.5288 11.1529 19.6806 9.49431 19.3065C7.83491 18.932 6.76714 17.171 7.11408 15.3805C7.46059 13.5901 9.09261 12.4374 10.7512 12.8114ZM10.9124 11.9797C8.82524 11.5086 6.77998 12.9541 6.34363 15.2069C5.90814 17.4592 7.24585 19.6676 9.33304 20.1382C11.4202 20.6093 13.4655 19.1643 13.901 16.911C14.3373 14.6583 12.9988 12.4508 10.9124 11.9797Z" fill="#591D4E"/>
<path d="M8.02144 15.4595L9.28813 18.1163C9.41775 18.3884 9.77623 18.3953 9.91313 18.1265C10.5942 16.7965 12.3284 13.6856 14.6338 11.6042C14.7715 11.4791 14.6171 11.2343 14.4674 11.3428C12.5214 12.7458 10.782 14.7469 9.55464 17.0786L8.18871 15.3279C8.10401 15.2378 7.96797 15.3454 8.02144 15.4595Z" fill="#0A5D94"/>
<path d="M10.7512 31.2685C12.4105 31.6426 13.4775 33.404 13.1305 35.1944C12.7844 36.9858 11.1529 38.1376 9.49431 37.7635C7.83491 37.389 6.76714 35.6281 7.11408 33.8376C7.46059 32.0462 9.09261 30.8935 10.7512 31.2685ZM10.9124 30.4368C8.82524 29.9657 6.77998 31.4112 6.34363 33.664C5.90814 35.9158 7.24585 38.1247 9.33303 38.5953C11.4202 39.0663 13.4655 37.6208 13.901 35.3681C14.3373 33.1153 12.9988 30.9074 10.9124 30.4368Z" fill="#591D4E"/>
<path d="M8.0215 33.9166L9.28819 36.5735C9.41781 36.8455 9.7763 36.8524 9.91319 36.5836C10.5942 35.2536 12.3285 32.1428 14.6339 30.0613C14.7716 29.9357 14.6172 29.691 14.4674 29.7995C12.5214 31.203 10.782 33.2036 9.5547 35.5358L8.18877 33.785C8.10407 33.6949 7.96803 33.8025 8.0215 33.9166Z" fill="#0A5D94"/>
<path d="M44.0085 51.0215V51.7147C44.0085 52.0186 43.7805 52.2652 43.4982 52.2652H18.0879C17.8064 52.2652 17.5784 52.0186 17.5784 51.7147V51.0215C17.5784 50.713 17.8064 50.4715 18.0879 50.4715H43.4978C43.7805 50.4715 44.0085 50.713 44.0085 51.0215Z" fill="#591D4E"/>
<path opacity="0.4" d="M52.5895 51.0216V51.7148C52.5895 52.0187 52.365 52.2653 52.0792 52.2653H43.4982C43.7805 52.2653 44.0085 52.0187 44.0085 51.7148V51.0216C44.0085 50.7131 43.7805 50.4716 43.4982 50.4716H52.0792C52.3645 50.4716 52.5895 50.7131 52.5895 51.0216Z" fill="#591D4E"/>
<path d="M40.2033 54.5198V55.213C40.2033 55.5183 39.9762 55.7658 39.693 55.7658H18.0879C17.8055 55.7658 17.5784 55.5183 17.5784 55.213V54.5198C17.5784 54.2155 17.8055 53.9702 18.0879 53.9702H39.693C39.9762 53.9698 40.2033 54.215 40.2033 54.5198Z" fill="#591D4E"/>
<path opacity="0.4" d="M52.5896 54.5194V55.2126C52.5896 55.5178 52.3633 55.7654 52.0809 55.7654H39.6934C39.9766 55.7654 40.2038 55.5178 40.2038 55.2126V54.5194C40.2038 54.215 39.9766 53.9698 39.6934 53.9698H52.0809C52.3628 53.9694 52.5896 54.2146 52.5896 54.5194Z" fill="#591D4E"/>
<path d="M47.5745 47.7047V48.3979C47.5745 48.7018 47.3465 48.9484 47.065 48.9484H18.0877C17.8063 48.9484 17.5782 48.7018 17.5782 48.3979V47.7047C17.5782 47.4013 17.8063 47.1547 18.0877 47.1547H47.0645C47.3465 47.1543 47.5745 47.4009 47.5745 47.7047Z" fill="#591D4E"/>
<path opacity="0.4" d="M52.5895 47.7047V48.3979C52.5895 48.7018 52.365 48.9484 52.0792 48.9484H47.0651C47.3465 48.9484 47.5746 48.7018 47.5746 48.3979V47.7047C47.5746 47.4013 47.3465 47.1547 47.0651 47.1547H52.0792C52.3645 47.1543 52.5895 47.4009 52.5895 47.7047Z" fill="#591D4E"/>
<path d="M10.7512 48.2122C12.4106 48.5863 13.4775 50.3477 13.1305 52.1382C12.7844 53.9296 11.1529 55.0814 9.49431 54.7073C7.83491 54.3328 6.76714 52.5719 7.11408 50.7814C7.46059 48.9904 9.09261 47.8377 10.7512 48.2122ZM10.9124 47.381C8.82524 46.9099 6.77998 48.3554 6.34363 50.6082C5.90814 52.86 7.24585 55.0689 9.33303 55.5395C11.4202 56.0106 13.4655 54.5651 13.901 52.3123C14.3373 50.0591 12.9988 47.8511 10.9124 47.381Z" fill="#591D4E"/>
<path d="M44.0085 68.1298V68.823C44.0085 69.1269 43.7805 69.3735 43.4982 69.3735H18.0879C17.8064 69.3735 17.5784 69.1269 17.5784 68.823V68.1298C17.5784 67.8213 17.8064 67.5797 18.0879 67.5797H43.4978C43.7805 67.5797 44.0085 67.8213 44.0085 68.1298Z" fill="#591D4E"/>
<path d="M52.5895 68.1298V68.823C52.5895 69.1268 52.365 69.3734 52.0792 69.3734H43.4982C43.7805 69.3734 44.0085 69.1268 44.0085 68.823V68.1298C44.0085 67.8213 43.7805 67.5797 43.4982 67.5797H52.0792C52.3645 67.5797 52.5895 67.8213 52.5895 68.1298Z" fill="#591D4E"/>
<path d="M40.2033 71.628V72.3212C40.2033 72.6265 39.9762 72.874 39.693 72.874H18.0879C17.8055 72.874 17.5784 72.6265 17.5784 72.3212V71.628C17.5784 71.3237 17.8055 71.0784 18.0879 71.0784H39.693C39.9762 71.0784 40.2033 71.3237 40.2033 71.628Z" fill="#591D4E"/>
<path opacity="0.4" d="M52.5896 71.6271V72.3202C52.5896 72.6255 52.3633 72.873 52.0809 72.873H39.6934C39.9766 72.873 40.2038 72.6255 40.2038 72.3202V71.6271C40.2038 71.3227 39.9766 71.0775 39.6934 71.0775H52.0809C52.3628 71.0775 52.5896 71.3227 52.5896 71.6271Z" fill="#591D4E"/>
<path d="M47.5745 64.8129V65.5061C47.5745 65.81 47.3465 66.0566 47.065 66.0566H18.0877C17.8063 66.0566 17.5782 65.81 17.5782 65.5061V64.8129C17.5782 64.5095 17.8063 64.2629 18.0877 64.2629H47.0645C47.3465 64.2624 47.5745 64.5091 47.5745 64.8129Z" fill="#591D4E"/>
<path opacity="0.4" d="M52.5895 64.813V65.5062C52.5895 65.81 52.365 66.0567 52.0792 66.0567H47.0651C47.3465 66.0567 47.5746 65.81 47.5746 65.5062V64.813C47.5746 64.5096 47.3465 64.2629 47.0651 64.2629H52.0792C52.3645 64.2625 52.5895 64.5091 52.5895 64.813Z" fill="#591D4E"/>
<path d="M10.7512 65.3205C12.4106 65.6946 13.4775 67.456 13.1305 69.2464C12.7844 71.0379 11.1529 72.1896 9.49431 71.8156C7.83491 71.441 6.76714 69.6801 7.11408 67.8896C7.46059 66.0987 9.09261 64.946 10.7512 65.3205ZM10.9124 64.4888C8.82524 64.0177 6.77998 65.4632 6.34363 67.716C5.90814 69.9678 7.24585 72.1767 9.33303 72.6473C11.4202 73.1184 13.4655 71.6729 13.901 69.4201C14.3373 67.1673 12.9988 64.9594 10.9124 64.4888Z" fill="#591D4E"/>
<path d="M93.5106 28.3398L87.8766 28.252C87.8523 30.2759 89.6823 31.5113 89.6723 32.394C89.6608 33.3747 87.8096 33.9467 87.7793 36.4786L93.4133 36.5668C93.4428 34.0358 91.6068 33.4055 91.6176 32.4244C91.6283 31.5425 93.4858 30.3646 93.5106 28.3398Z" fill="#F7F7F7"/>
<path d="M88.8104 35.662C88.9966 34.9002 89.4124 34.4229 89.7908 33.9889C90.1863 33.5328 90.5961 33.0634 90.6037 32.4078C90.6117 31.8124 90.2329 31.2763 89.831 30.709C89.4921 30.2281 89.1225 29.703 88.9332 29.1003L92.4333 29.154C92.23 29.7522 91.8468 30.2648 91.4972 30.7343C91.0837 31.2892 90.6926 31.8147 90.6858 32.4092C90.6775 33.0653 91.0762 33.5489 91.4613 34.0151C91.8289 34.4611 92.2332 34.9512 92.401 35.7204L88.8104 35.662Z" fill="black"/>
<path d="M94.2836 28.3527L87.1007 28.2387C86.9038 28.2364 86.7447 28.0488 86.7487 27.8217V27.7122C86.7519 27.4842 86.9145 27.3008 87.1115 27.3044L94.2944 27.4166C94.4922 27.4208 94.6505 27.607 94.6473 27.8345L94.6465 27.9444C94.6445 28.1729 94.4818 28.3555 94.2836 28.3527Z" fill="#0B4870"/>
<path d="M94.1771 37.5135L86.9934 37.4004C86.7965 37.3976 86.6382 37.21 86.6406 36.9829L86.6422 36.8721C86.6454 36.6445 86.8064 36.4629 87.0042 36.4648L94.1879 36.5779C94.3856 36.5815 94.5439 36.7687 94.5407 36.9953L94.5383 37.1061C94.5359 37.3337 94.3741 37.5162 94.1771 37.5135Z" fill="#0B4870"/>
<path d="M62.3825 42.2895C62.5537 42.5634 62.4886 42.936 62.2354 43.1231L56.482 47.3474C56.2271 47.533 55.8823 47.4624 55.709 47.1885L50.1978 38.4402C50.025 38.1663 50.0917 37.7937 50.3449 37.6071L56.0983 33.3828C56.3524 33.1971 56.6981 33.2669 56.8705 33.5412L62.3825 42.2895Z" fill="#D3D3D3"/>
<path d="M56.6556 34.191L61.3369 41.6222C61.4875 41.8605 61.4306 42.1861 61.209 42.3482L56.191 46.033C55.9703 46.1965 55.6687 46.1342 55.5186 45.895L50.8373 38.4638C50.6858 38.2246 50.7436 37.8995 50.9652 37.7374L55.9827 34.0525C56.2047 33.8904 56.5055 33.9518 56.6556 34.191Z" fill="#CCE9FF"/>
<path d="M59.008 45.0392C59.1921 45.0392 59.3413 44.8781 59.3413 44.6794C59.3413 44.4807 59.1921 44.3197 59.008 44.3197C58.824 44.3197 58.6748 44.4807 58.6748 44.6794C58.6748 44.8781 58.824 45.0392 59.008 45.0392Z" fill="#9E3E8E"/>
<path d="M55.3834 46.2829C55.3834 46.2829 54.4525 45.3791 54.002 45.0008C53.5516 44.6226 52.7071 43.5096 52.5818 43.445C52.4573 43.3794 50.8432 39.804 50.5797 39.6608C50.3175 39.5176 50.8287 39.0355 51.3861 39.901C51.9426 40.7659 52.9218 41.8789 53.2936 41.7977C53.6653 41.7164 53.3454 40.6306 53.5883 40.3979C53.8313 40.1651 53.8198 40.3304 53.9383 40.4524C54.0568 40.5766 53.913 41.9247 54.2583 42.3371C54.6026 42.7485 54.6634 43.5844 54.9226 43.9026C55.1814 44.2204 56.4314 45.7693 56.4314 45.7693L55.3834 46.2829Z" fill="#EEA886"/>
<path d="M75.4292 94.6212C75.4292 94.6212 75.6307 96.1309 75.6555 96.3572C75.6807 96.584 77.8954 96.2237 77.8954 96.2237L78.0742 94.4272C78.0747 94.4272 75.706 94.4083 75.4292 94.6212Z" fill="#424773"/>
<path d="M75.6324 96.1646C75.6324 96.1646 74.9304 97.0739 74.2519 97.4701C73.5726 97.8664 71.4362 98.0234 71.0349 98.433C70.7449 98.73 71.0499 100.004 73.8682 99.9788C76.6874 99.952 78.0469 100.159 78.3476 99.6698C78.6501 99.1817 77.9113 96.0625 77.9113 96.0625C77.9113 96.0625 77.2439 96.322 75.6324 96.1646Z" fill="#0E1922"/>
<path d="M59.5607 94.6212C59.5607 94.6212 59.7622 96.1309 59.787 96.3572C59.8123 96.584 62.0269 96.2237 62.0269 96.2237L62.2058 94.4272C62.2062 94.4272 59.8375 94.4083 59.5607 94.6212Z" fill="#424773"/>
<path d="M59.7631 96.1646C59.7631 96.1646 59.062 97.0739 58.3835 97.4702C57.7042 97.8664 54.1373 98.1915 53.7364 98.6016C53.4464 98.8981 54.0346 100.09 58.0002 99.9783C60.8185 99.8994 62.178 100.158 62.4804 99.6694C62.7829 99.1812 62.0437 96.0621 62.0437 96.0621C62.0437 96.0621 61.414 96.3392 59.7631 96.1646Z" fill="#0E1922"/>
<path d="M70.1229 25.8473C70.1229 25.8473 67.3299 24.7213 66.0414 27.0157C64.7537 29.3109 64.8782 33.906 66.2852 34.4718C67.6939 35.0366 69.8085 34.741 70.5297 33.3057C71.2501 31.8689 71.9008 29.7926 71.87 28.4053C71.8383 27.0175 70.8566 26.2472 70.1229 25.8473Z" fill="#EEA886"/>
<path d="M66.5894 34.5766C66.5894 34.5766 66.7053 35.3903 66.5133 35.7921C66.3212 36.193 70.1319 36.2036 70.1319 36.2036C70.1319 36.2036 70.4412 34.0219 71.0277 32.1788C71.6142 30.3357 66.5894 34.5766 66.5894 34.5766Z" fill="#EEA886"/>
<path d="M71.0277 32.1788C71.0277 32.1788 70.7646 32.6476 69.6908 32.4651C68.6171 32.2832 67.3072 30.7421 66.8593 30.5726C66.4114 30.4031 66.4071 30.1186 66.4071 30.1186L66.1265 30.5615L65.6504 30.5934C65.6504 30.5934 66.085 29.2148 65.4288 28.6523C64.7738 28.0894 66.109 24.1874 69.5522 25.4866C69.5522 25.4866 72.1968 26.274 72.1006 27.8977C72.0043 29.5206 71.6193 31.3706 71.0277 32.1788Z" fill="black"/>
<path d="M66.4781 29.528C66.5384 29.2555 67.1793 28.4778 67.4257 29.3105C67.6712 30.1445 67.0539 31.2649 66.7104 31.1684C66.3665 31.0733 66.3254 30.2189 66.4781 29.528Z" fill="#EEA886"/>
<path d="M53.4693 44.7967C53.4709 44.7962 53.4726 44.7962 53.4742 44.7962C53.4534 44.8069 53.4501 44.8074 53.4693 44.7967Z" fill="#323657"/>
<path d="M76.7695 46.8172C76.6591 47.2069 76.1496 47.5339 75.8211 47.6798C75.6106 47.7722 75.3749 47.8031 75.1358 47.7533L74.9685 47.7228V47.7186H74.9642C74.9535 47.8188 74.939 47.9191 74.9291 48.0225V48.0382C75.1572 49.1849 74.8145 53.3431 74.6258 55.3488C74.5647 56.0185 74.5189 56.4507 74.5189 56.4507C74.5189 56.4507 62.6392 56.3385 62.7966 56.4507C62.4321 56.2928 62.2541 55.3535 62.1793 54.1172C62.0296 51.6723 62.2939 48.0802 62.3615 47.2065C62.2439 48.1149 61.6445 50.5791 60.931 51.972C60.6495 52.5193 59.7152 54.2326 59.2626 53.8391C57.0762 51.9572 53.6915 44.8535 53.4742 44.7958C53.6564 44.7112 55.0793 44.0028 55.279 43.9294C55.4536 43.8684 57.0338 45.6704 57.9895 46.7904C58.4139 47.2868 58.7172 47.6484 58.7172 47.6484C58.9914 46.9793 59.9971 42.755 60.3116 41.2919C61.0136 37.9964 60.9066 37.8611 60.9066 37.8611C63.043 37.1646 66.2882 35.7436 66.2882 35.7436L70.5678 35.5547C70.5678 35.5547 74.4949 36.4876 76.0422 37.2413C76.0465 37.2413 76.0499 37.2491 76.0564 37.2607C76.2566 37.6311 77.768 43.3484 76.7695 46.8172Z" fill="#F86A6A"/>
<path d="M58.7163 47.6494L58.3587 49.2884C58.3587 49.2884 57.9694 47.6439 57.9878 46.7899C58.4147 47.2873 58.7163 47.6494 58.7163 47.6494Z" fill="#0B4870"/>
<path d="M78.4139 87.4307C78.363 85.4203 76.9367 76.5257 76.5881 72.7683C76.2749 69.3979 75.3659 65.8756 75.5211 62.6498C75.614 60.7231 75.6221 58.8162 75.0399 57.4788C75.1644 56.974 74.5586 56.2854 74.642 55.6717C74.642 55.6717 63.8036 54.3462 62.6404 56.3381C62.6404 56.3381 61.0721 65.1801 60.8651 67.1549C60.6589 69.1291 60.5207 76.7104 60.4163 77.9453C60.3136 79.1793 59.7271 94.0947 59.1749 95.9286H62.8243C62.8243 95.9286 65.6259 85.0855 65.6259 79.9547C65.6259 75.2224 67.4667 69.736 68.8493 66.2562C69.6823 69.7775 71.8139 77.501 72.3191 78.7914C72.9399 80.3782 75.3381 95.9286 75.3381 95.9286L78.1931 95.858C78.1931 95.858 78.4656 89.44 78.4139 87.4307Z" fill="#986A49"/>
<path d="M67.4817 28.8514C68.7724 28.8514 69.8187 27.8827 69.8187 26.6878C69.8187 25.4929 68.7724 24.5242 67.4817 24.5242C66.191 24.5242 65.1447 25.4929 65.1447 26.6878C65.1447 27.8827 66.191 28.8514 67.4817 28.8514Z" fill="black"/>
</svg>
